<?xml version="1.0"?>
<svg xmlns="http://www.w3.org/2000/svg" xmlns:xlink="http://www.w3.org/1999/xlink" viewBox="0 0 299.600000 220.000000" width="149.800000mm" height="110.000000mm" version="1.1">
<a xlink:href="delaylines-0x7facb6b5e720.svg">
<rect x="1.000000" y="1.000000" width="298.600000" height="219.000000" rx="0" ry="0" style="stroke:none;fill:#cccccc;"/>
<rect x="0.000000" y="0.000000" width="298.600000" height="219.000000" rx="0" ry="0" style="stroke:none;fill:#ffffff;"/>
</a>
<text x="10.000000" y="7.000000" font-family="Arial" font-size="7"></text>
<rect x="33.000000" y="99.000000" width="24.000000" height="24.000000" rx="0" ry="0" style="stroke:none;fill:#cccccc;"/>
<rect x="32.000000" y="98.000000" width="24.000000" height="24.000000" rx="0" ry="0" style="stroke:none;fill:#47945E;"/>
<text x="44.000000" y="112.000000" font-family="Arial" font-size="7" text-anchor="middle" fill="#FFFFFF">x</text>
<circle cx="34.000000" cy="100.000000" r="1"/>
<line x1="29.000000" y1="109.000000" x2="32.000000" y2="110.000000"  transform="rotate(0.000000,32.000000,110.000000)" style="stroke: black; stroke-width:0.25;"/>
<line x1="29.000000" y1="111.000000" x2="32.000000" y2="110.000000"  transform="rotate(0.000000,32.000000,110.000000)" style="stroke: black; stroke-width:0.25;"/>
<rect x="134.800000" y="25.000000" width="24.000000" height="24.000000" rx="0" ry="0" style="stroke:none;fill:#cccccc;"/>
<rect x="133.800000" y="24.000000" width="24.000000" height="24.000000" rx="0" ry="0" style="stroke:none;fill:#47945E;"/>
<text x="145.800000" y="38.000000" font-family="Arial" font-size="7" text-anchor="middle" fill="#FFFFFF">x</text>
<circle cx="135.800000" cy="26.000000" r="1"/>
<a xlink:href="delayval-0x7facb1c20ac0.svg">
<rect x="65.000000" y="57.000000" width="51.600000" height="24.000000" rx="0" ry="0" style="stroke:none;fill:#cccccc;"/>
<rect x="64.000000" y="56.000000" width="51.600000" height="24.000000" rx="0" ry="0" style="stroke:none;fill:#003366;"/>
</a>
<a xlink:href="delayval-0x7facb1c20ac0.svg">
<text x="89.800000" y="70.000000" font-family="Arial" font-size="7" text-anchor="middle" fill="#FFFFFF">delayval(7)</text>
</a>
<circle cx="66.000000" cy="58.000000" r="1"/>
<rect x="78.800000" y="89.000000" width="24.000000" height="24.000000" rx="0" ry="0" style="stroke:none;fill:#cccccc;"/>
<rect x="77.800000" y="88.000000" width="24.000000" height="24.000000" rx="0" ry="0" style="stroke:none;fill:#f44800;"/>
<text x="89.800000" y="102.000000" font-family="Arial" font-size="7" text-anchor="middle" fill="#FFFFFF">1</text>
<circle cx="79.800000" cy="90.000000" r="1"/>
<rect x="132.600000" y="73.000000" width="24.000000" height="24.000000" rx="0" ry="0" style="stroke:none;fill:#cccccc;"/>
<rect x="131.600000" y="72.000000" width="24.000000" height="24.000000" rx="0" ry="0" style="stroke:none;fill:#4B71A1;"/>
<text x="143.600000" y="86.000000" font-family="Arial" font-size="7" text-anchor="middle" fill="#FFFFFF">-</text>
<circle cx="133.600000" cy="74.000000" r="1"/>
<line x1="128.600000" y1="79.000000" x2="131.600000" y2="80.000000"  transform="rotate(0.000000,131.600000,80.000000)" style="stroke: black; stroke-width:0.25;"/>
<line x1="128.600000" y1="81.000000" x2="131.600000" y2="80.000000"  transform="rotate(0.000000,131.600000,80.000000)" style="stroke: black; stroke-width:0.25;"/>
<line x1="128.600000" y1="87.000000" x2="131.600000" y2="88.000000"  transform="rotate(0.000000,131.600000,88.000000)" style="stroke: black; stroke-width:0.25;"/>
<line x1="128.600000" y1="89.000000" x2="131.600000" y2="88.000000"  transform="rotate(0.000000,131.600000,88.000000)" style="stroke: black; stroke-width:0.25;"/>
<rect x="164.600000" y="73.000000" width="24.000000" height="24.000000" rx="0" ry="0" style="stroke:none;fill:#cccccc;"/>
<rect x="163.600000" y="72.000000" width="24.000000" height="24.000000" rx="0" ry="0" style="stroke:none;fill:#4B71A1;"/>
<text x="175.600000" y="86.000000" font-family="Arial" font-size="7" text-anchor="middle" fill="#FFFFFF">int</text>
<circle cx="165.600000" cy="74.000000" r="1"/>
<line x1="160.600000" y1="83.000000" x2="163.600000" y2="84.000000"  transform="rotate(0.000000,163.600000,84.000000)" style="stroke: black; stroke-width:0.25;"/>
<line x1="160.600000" y1="85.000000" x2="163.600000" y2="84.000000"  transform="rotate(0.000000,163.600000,84.000000)" style="stroke: black; stroke-width:0.25;"/>
<rect x="93.900000" y="131.000000" width="25.800000" height="24.000000" rx="0" ry="0" style="stroke:none;fill:#cccccc;"/>
<rect x="92.900000" y="130.000000" width="25.800000" height="24.000000" rx="0" ry="0" style="stroke:none;fill:#f44800;"/>
<text x="105.800000" y="144.000000" font-family="Arial" font-size="7" text-anchor="middle" fill="#FFFFFF">8192</text>
<circle cx="94.900000" cy="132.000000" r="1"/>
<line x1="83.900000" y1="121.000000" x2="83.900000" y2="163.000000"  style="stroke: black; stroke-linecap:round; stroke-width:0.25; stroke-dasharray:3,3;"/>
<line x1="83.900000" y1="163.000000" x2="127.700000" y2="163.000000"  style="stroke: black; stroke-linecap:round; stroke-width:0.25; stroke-dasharray:3,3;"/>
<line x1="127.700000" y1="163.000000" x2="127.700000" y2="121.000000"  style="stroke: black; stroke-linecap:round; stroke-width:0.25; stroke-dasharray:3,3;"/>
<line x1="83.900000" y1="121.000000" x2="88.900000" y2="121.000000"  style="stroke: black; stroke-linecap:round; stroke-width:0.25; stroke-dasharray:3,3;"/>
<line x1="121.150000" y1="121.000000" x2="127.700000" y2="121.000000"  style="stroke: black; stroke-linecap:round; stroke-width:0.25; stroke-dasharray:3,3;"/>
<text x="88.900000" y="123.000000" font-family="Arial" font-size="7">dlmax(0)</text>
<rect x="94.800000" y="173.000000" width="24.000000" height="24.000000" rx="0" ry="0" style="stroke:none;fill:#cccccc;"/>
<rect x="93.800000" y="172.000000" width="24.000000" height="24.000000" rx="0" ry="0" style="stroke:none;fill:#f44800;"/>
<text x="105.800000" y="186.000000" font-family="Arial" font-size="7" text-anchor="middle" fill="#FFFFFF">1</text>
<circle cx="95.800000" cy="174.000000" r="1"/>
<rect x="145.700000" y="147.000000" width="24.000000" height="24.000000" rx="0" ry="0" style="stroke:none;fill:#cccccc;"/>
<rect x="144.700000" y="146.000000" width="24.000000" height="24.000000" rx="0" ry="0" style="stroke:none;fill:#4B71A1;"/>
<text x="156.700000" y="160.000000" font-family="Arial" font-size="7" text-anchor="middle" fill="#FFFFFF">-</text>
<circle cx="146.700000" cy="148.000000" r="1"/>
<line x1="141.700000" y1="153.000000" x2="144.700000" y2="154.000000"  transform="rotate(0.000000,144.700000,154.000000)" style="stroke: black; stroke-width:0.25;"/>
<line x1="141.700000" y1="155.000000" x2="144.700000" y2="154.000000"  transform="rotate(0.000000,144.700000,154.000000)" style="stroke: black; stroke-width:0.25;"/>
<line x1="141.700000" y1="161.000000" x2="144.700000" y2="162.000000"  transform="rotate(0.000000,144.700000,162.000000)" style="stroke: black; stroke-width:0.25;"/>
<line x1="141.700000" y1="163.000000" x2="144.700000" y2="162.000000"  transform="rotate(0.000000,144.700000,162.000000)" style="stroke: black; stroke-width:0.25;"/>
<rect x="204.600000" y="115.000000" width="24.000000" height="24.000000" rx="0" ry="0" style="stroke:none;fill:#cccccc;"/>
<rect x="203.600000" y="114.000000" width="24.000000" height="24.000000" rx="0" ry="0" style="stroke:none;fill:#4B71A1;"/>
<text x="215.600000" y="128.000000" font-family="Arial" font-size="7" text-anchor="middle" fill="#FFFFFF">&amp;</text>
<circle cx="205.600000" cy="116.000000" r="1"/>
<line x1="200.600000" y1="121.000000" x2="203.600000" y2="122.000000"  transform="rotate(0.000000,203.600000,122.000000)" style="stroke: black; stroke-width:0.25;"/>
<line x1="200.600000" y1="123.000000" x2="203.600000" y2="122.000000"  transform="rotate(0.000000,203.600000,122.000000)" style="stroke: black; stroke-width:0.25;"/>
<line x1="200.600000" y1="129.000000" x2="203.600000" y2="130.000000"  transform="rotate(0.000000,203.600000,130.000000)" style="stroke: black; stroke-width:0.25;"/>
<line x1="200.600000" y1="131.000000" x2="203.600000" y2="130.000000"  transform="rotate(0.000000,203.600000,130.000000)" style="stroke: black; stroke-width:0.25;"/>
<rect x="244.600000" y="99.000000" width="24.000000" height="24.000000" rx="0" ry="0" style="stroke:none;fill:#cccccc;"/>
<rect x="243.600000" y="98.000000" width="24.000000" height="24.000000" rx="0" ry="0" style="stroke:none;fill:#4B71A1;"/>
<text x="255.600000" y="112.000000" font-family="Arial" font-size="7" text-anchor="middle" fill="#FFFFFF">@</text>
<circle cx="245.600000" cy="100.000000" r="1"/>
<line x1="240.600000" y1="105.000000" x2="243.600000" y2="106.000000"  transform="rotate(0.000000,243.600000,106.000000)" style="stroke: black; stroke-width:0.25;"/>
<line x1="240.600000" y1="107.000000" x2="243.600000" y2="106.000000"  transform="rotate(0.000000,243.600000,106.000000)" style="stroke: black; stroke-width:0.25;"/>
<line x1="240.600000" y1="113.000000" x2="243.600000" y2="114.000000"  transform="rotate(0.000000,243.600000,114.000000)" style="stroke: black; stroke-width:0.25;"/>
<line x1="240.600000" y1="115.000000" x2="243.600000" y2="114.000000"  transform="rotate(0.000000,243.600000,114.000000)" style="stroke: black; stroke-width:0.25;"/>
<line x1="15.000000" y1="15.000000" x2="15.000000" y2="205.000000"  style="stroke: black; stroke-linecap:round; stroke-width:0.25; stroke-dasharray:3,3;"/>
<line x1="15.000000" y1="205.000000" x2="284.600000" y2="205.000000"  style="stroke: black; stroke-linecap:round; stroke-width:0.25; stroke-dasharray:3,3;"/>
<line x1="284.600000" y1="205.000000" x2="284.600000" y2="15.000000"  style="stroke: black; stroke-linecap:round; stroke-width:0.25; stroke-dasharray:3,3;"/>
<line x1="15.000000" y1="15.000000" x2="20.000000" y2="15.000000"  style="stroke: black; stroke-linecap:round; stroke-width:0.25; stroke-dasharray:3,3;"/>
<line x1="119.975000" y1="15.000000" x2="284.600000" y2="15.000000"  style="stroke: black; stroke-linecap:round; stroke-width:0.25; stroke-dasharray:3,3;"/>
<text x="20.000000" y="17.000000" font-family="Arial" font-size="7">delay(8192)((...r):powf),1:-)</text>
<line x1="286.600000" y1="109.000000" x2="289.600000" y2="110.000000"  transform="rotate(0.000000,289.600000,110.000000)" style="stroke: black; stroke-width:0.25;"/>
<line x1="286.600000" y1="111.000000" x2="289.600000" y2="110.000000"  transform="rotate(0.000000,289.600000,110.000000)" style="stroke: black; stroke-width:0.25;"/>
<line x1="10.000000" y1="110.000000" x2="20.000000" y2="110.000000"  style="stroke:black; stroke-linecap:round; stroke-width:0.25;"/>
<line x1="20.000000" y1="110.000000" x2="24.000000" y2="110.000000"  style="stroke:black; stroke-linecap:round; stroke-width:0.25;"/>
<line x1="24.000000" y1="110.000000" x2="28.000000" y2="110.000000"  style="stroke:black; stroke-linecap:round; stroke-width:0.25;"/>
<line x1="28.000000" y1="110.000000" x2="28.000000" y2="110.000000"  style="stroke:black; stroke-linecap:round; stroke-width:0.25;"/>
<line x1="28.000000" y1="110.000000" x2="32.000000" y2="110.000000"  style="stroke:black; stroke-linecap:round; stroke-width:0.25;"/>
<line x1="101.800000" y1="100.000000" x2="105.800000" y2="100.000000"  style="stroke:black; stroke-linecap:round; stroke-width:0.25;"/>
<line x1="105.800000" y1="100.000000" x2="119.600000" y2="100.000000"  style="stroke:black; stroke-linecap:round; stroke-width:0.25;"/>
<line x1="115.600000" y1="68.000000" x2="119.600000" y2="68.000000"  style="stroke:black; stroke-linecap:round; stroke-width:0.25;"/>
<line x1="117.800000" y1="184.000000" x2="121.800000" y2="184.000000"  style="stroke:black; stroke-linecap:round; stroke-width:0.25;"/>
<line x1="118.700000" y1="142.000000" x2="122.700000" y2="142.000000"  style="stroke:black; stroke-linecap:round; stroke-width:0.25;"/>
<line x1="119.600000" y1="68.000000" x2="127.600000" y2="68.000000"  style="stroke:black; stroke-linecap:round; stroke-width:0.25;"/>
<line x1="119.600000" y1="88.000000" x2="127.600000" y2="88.000000"  style="stroke:black; stroke-linecap:round; stroke-width:0.25;"/>
<line x1="119.600000" y1="100.000000" x2="119.600000" y2="88.000000"  style="stroke:black; stroke-linecap:round; stroke-width:0.25;"/>
<line x1="119.600000" y1="100.000000" x2="119.600000" y2="100.000000"  style="stroke:black; stroke-linecap:round; stroke-width:0.25;"/>
<line x1="121.800000" y1="184.000000" x2="132.700000" y2="184.000000"  style="stroke:black; stroke-linecap:round; stroke-width:0.25;"/>
<line x1="122.700000" y1="142.000000" x2="132.700000" y2="142.000000"  style="stroke:black; stroke-linecap:round; stroke-width:0.25;"/>
<line x1="127.600000" y1="68.000000" x2="127.600000" y2="80.000000"  style="stroke:black; stroke-linecap:round; stroke-width:0.25;"/>
<line x1="127.600000" y1="80.000000" x2="127.600000" y2="80.000000"  style="stroke:black; stroke-linecap:round; stroke-width:0.25;"/>
<line x1="127.600000" y1="80.000000" x2="131.600000" y2="80.000000"  style="stroke:black; stroke-linecap:round; stroke-width:0.25;"/>
<line x1="127.600000" y1="88.000000" x2="131.600000" y2="88.000000"  style="stroke:black; stroke-linecap:round; stroke-width:0.25;"/>
<line x1="132.700000" y1="142.000000" x2="140.700000" y2="142.000000"  style="stroke:black; stroke-linecap:round; stroke-width:0.25;"/>
<line x1="132.700000" y1="162.000000" x2="140.700000" y2="162.000000"  style="stroke:black; stroke-linecap:round; stroke-width:0.25;"/>
<line x1="132.700000" y1="184.000000" x2="132.700000" y2="162.000000"  style="stroke:black; stroke-linecap:round; stroke-width:0.25;"/>
<line x1="132.700000" y1="184.000000" x2="132.700000" y2="184.000000"  style="stroke:black; stroke-linecap:round; stroke-width:0.25;"/>
<line x1="140.700000" y1="142.000000" x2="140.700000" y2="154.000000"  style="stroke:black; stroke-linecap:round; stroke-width:0.25;"/>
<line x1="140.700000" y1="154.000000" x2="140.700000" y2="154.000000"  style="stroke:black; stroke-linecap:round; stroke-width:0.25;"/>
<line x1="140.700000" y1="154.000000" x2="144.700000" y2="154.000000"  style="stroke:black; stroke-linecap:round; stroke-width:0.25;"/>
<line x1="140.700000" y1="162.000000" x2="144.700000" y2="162.000000"  style="stroke:black; stroke-linecap:round; stroke-width:0.25;"/>
<line x1="155.600000" y1="84.000000" x2="159.600000" y2="84.000000"  style="stroke:black; stroke-linecap:round; stroke-width:0.25;"/>
<line x1="157.800000" y1="36.000000" x2="161.800000" y2="36.000000"  style="stroke:black; stroke-linecap:round; stroke-width:0.25;"/>
<line x1="159.600000" y1="84.000000" x2="159.600000" y2="84.000000"  style="stroke:black; stroke-linecap:round; stroke-width:0.25;"/>
<line x1="159.600000" y1="84.000000" x2="163.600000" y2="84.000000"  style="stroke:black; stroke-linecap:round; stroke-width:0.25;"/>
<line x1="161.800000" y1="36.000000" x2="231.600000" y2="36.000000"  style="stroke:black; stroke-linecap:round; stroke-width:0.25;"/>
<line x1="168.700000" y1="158.000000" x2="172.700000" y2="158.000000"  style="stroke:black; stroke-linecap:round; stroke-width:0.25;"/>
<line x1="172.700000" y1="158.000000" x2="191.600000" y2="158.000000"  style="stroke:black; stroke-linecap:round; stroke-width:0.25;"/>
<line x1="187.600000" y1="84.000000" x2="191.600000" y2="84.000000"  style="stroke:black; stroke-linecap:round; stroke-width:0.25;"/>
<line x1="191.600000" y1="84.000000" x2="199.600000" y2="84.000000"  style="stroke:black; stroke-linecap:round; stroke-width:0.25;"/>
<line x1="191.600000" y1="130.000000" x2="199.600000" y2="130.000000"  style="stroke:black; stroke-linecap:round; stroke-width:0.25;"/>
<line x1="191.600000" y1="158.000000" x2="191.600000" y2="130.000000"  style="stroke:black; stroke-linecap:round; stroke-width:0.25;"/>
<line x1="191.600000" y1="158.000000" x2="191.600000" y2="158.000000"  style="stroke:black; stroke-linecap:round; stroke-width:0.25;"/>
<line x1="199.600000" y1="84.000000" x2="199.600000" y2="122.000000"  style="stroke:black; stroke-linecap:round; stroke-width:0.25;"/>
<line x1="199.600000" y1="122.000000" x2="199.600000" y2="122.000000"  style="stroke:black; stroke-linecap:round; stroke-width:0.25;"/>
<line x1="199.600000" y1="122.000000" x2="203.600000" y2="122.000000"  style="stroke:black; stroke-linecap:round; stroke-width:0.25;"/>
<line x1="199.600000" y1="130.000000" x2="203.600000" y2="130.000000"  style="stroke:black; stroke-linecap:round; stroke-width:0.25;"/>
<line x1="227.600000" y1="126.000000" x2="231.600000" y2="126.000000"  style="stroke:black; stroke-linecap:round; stroke-width:0.25;"/>
<line x1="231.600000" y1="114.000000" x2="239.600000" y2="114.000000"  style="stroke:black; stroke-linecap:round; stroke-width:0.25;"/>
<line x1="231.600000" y1="126.000000" x2="231.600000" y2="114.000000"  style="stroke:black; stroke-linecap:round; stroke-width:0.25;"/>
<line x1="231.600000" y1="126.000000" x2="231.600000" y2="126.000000"  style="stroke:black; stroke-linecap:round; stroke-width:0.25;"/>
<line x1="231.600000" y1="36.000000" x2="239.600000" y2="36.000000"  style="stroke:black; stroke-linecap:round; stroke-width:0.25;"/>
<line x1="239.600000" y1="106.000000" x2="243.600000" y2="106.000000"  style="stroke:black; stroke-linecap:round; stroke-width:0.25;"/>
<line x1="239.600000" y1="114.000000" x2="243.600000" y2="114.000000"  style="stroke:black; stroke-linecap:round; stroke-width:0.25;"/>
<line x1="239.600000" y1="36.000000" x2="239.600000" y2="106.000000"  style="stroke:black; stroke-linecap:round; stroke-width:0.25;"/>
<line x1="239.600000" y1="106.000000" x2="239.600000" y2="106.000000"  style="stroke:black; stroke-linecap:round; stroke-width:0.25;"/>
<line x1="267.600000" y1="110.000000" x2="271.600000" y2="110.000000"  style="stroke:black; stroke-linecap:round; stroke-width:0.25;"/>
<line x1="271.600000" y1="110.000000" x2="271.600000" y2="110.000000"  style="stroke:black; stroke-linecap:round; stroke-width:0.25;"/>
<line x1="271.600000" y1="110.000000" x2="275.600000" y2="110.000000"  style="stroke:black; stroke-linecap:round; stroke-width:0.25;"/>
<line x1="275.600000" y1="110.000000" x2="279.600000" y2="110.000000"  style="stroke:black; stroke-linecap:round; stroke-width:0.25;"/>
<line x1="279.600000" y1="110.000000" x2="289.600000" y2="110.000000"  style="stroke:black; stroke-linecap:round; stroke-width:0.25;"/>
</svg>
