<?xml version="1.0"?>
<svg xmlns="http://www.w3.org/2000/svg" xmlns:xlink="http://www.w3.org/1999/xlink" viewBox="0 0 342.400000 152.000000" width="171.200000mm" height="76.000000mm" version="1.1">
<a xlink:href="filter-0x7facb6b6b380.svg">
<rect x="1.000000" y="1.000000" width="341.400000" height="151.000000" rx="0" ry="0" style="stroke:none;fill:#cccccc;"/>
<rect x="0.000000" y="0.000000" width="341.400000" height="151.000000" rx="0" ry="0" style="stroke:none;fill:#ffffff;"/>
</a>
<text x="10.000000" y="7.000000" font-family="Arial" font-size="7"></text>
<a xlink:href="analyzer-0x7facb6b64cc0.svg">
<rect x="33.000000" y="57.000000" width="129.000000" height="40.000000" rx="0" ry="0" style="stroke:none;fill:#cccccc;"/>
<rect x="32.000000" y="56.000000" width="129.000000" height="40.000000" rx="0" ry="0" style="stroke:none;fill:#003366;"/>
</a>
<a xlink:href="analyzer-0x7facb6b64cc0.svg">
<text x="96.500000" y="78.000000" font-family="Arial" font-size="7" text-anchor="middle" fill="#FFFFFF">analyzer(3)(v... 10000, 1))))</text>
</a>
<circle cx="34.000000" cy="58.000000" r="1"/>
<line x1="29.000000" y1="75.000000" x2="32.000000" y2="76.000000"  transform="rotate(0.000000,32.000000,76.000000)" style="stroke: black; stroke-width:0.25;"/>
<line x1="29.000000" y1="77.000000" x2="32.000000" y2="76.000000"  transform="rotate(0.000000,32.000000,76.000000)" style="stroke: black; stroke-width:0.25;"/>
<a xlink:href="ap-0x7facb6b65300.svg">
<rect x="194.000000" y="25.000000" width="25.800000" height="24.000000" rx="0" ry="0" style="stroke:none;fill:#cccccc;"/>
<rect x="193.000000" y="24.000000" width="25.800000" height="24.000000" rx="0" ry="0" style="stroke:none;fill:#003366;"/>
</a>
<a xlink:href="ap-0x7facb6b65300.svg">
<text x="205.900000" y="38.000000" font-family="Arial" font-size="7" text-anchor="middle" fill="#FFFFFF">ap(3)</text>
</a>
<circle cx="195.000000" cy="26.000000" r="1"/>
<line x1="190.000000" y1="35.000000" x2="193.000000" y2="36.000000"  transform="rotate(0.000000,193.000000,36.000000)" style="stroke: black; stroke-width:0.25;"/>
<line x1="190.000000" y1="37.000000" x2="193.000000" y2="36.000000"  transform="rotate(0.000000,193.000000,36.000000)" style="stroke: black; stroke-width:0.25;"/>
<a xlink:href="ap-0x7facb6b65870.svg">
<rect x="227.800000" y="25.000000" width="25.800000" height="24.000000" rx="0" ry="0" style="stroke:none;fill:#cccccc;"/>
<rect x="226.800000" y="24.000000" width="25.800000" height="24.000000" rx="0" ry="0" style="stroke:none;fill:#003366;"/>
</a>
<a xlink:href="ap-0x7facb6b65870.svg">
<text x="239.700000" y="38.000000" font-family="Arial" font-size="7" text-anchor="middle" fill="#FFFFFF">ap(2)</text>
</a>
<circle cx="228.800000" cy="26.000000" r="1"/>
<line x1="223.800000" y1="35.000000" x2="226.800000" y2="36.000000"  transform="rotate(0.000000,226.800000,36.000000)" style="stroke: black; stroke-width:0.25;"/>
<line x1="223.800000" y1="37.000000" x2="226.800000" y2="36.000000"  transform="rotate(0.000000,226.800000,36.000000)" style="stroke: black; stroke-width:0.25;"/>
<a xlink:href="ap-0x7facb6b65de0.svg">
<rect x="261.600000" y="25.000000" width="25.800000" height="24.000000" rx="0" ry="0" style="stroke:none;fill:#cccccc;"/>
<rect x="260.600000" y="24.000000" width="25.800000" height="24.000000" rx="0" ry="0" style="stroke:none;fill:#003366;"/>
</a>
<a xlink:href="ap-0x7facb6b65de0.svg">
<text x="273.500000" y="38.000000" font-family="Arial" font-size="7" text-anchor="middle" fill="#FFFFFF">ap(1)</text>
</a>
<circle cx="262.600000" cy="26.000000" r="1"/>
<line x1="257.600000" y1="35.000000" x2="260.600000" y2="36.000000"  transform="rotate(0.000000,260.600000,36.000000)" style="stroke: black; stroke-width:0.25;"/>
<line x1="257.600000" y1="37.000000" x2="260.600000" y2="36.000000"  transform="rotate(0.000000,260.600000,36.000000)" style="stroke: black; stroke-width:0.25;"/>
<a xlink:href="ap-0x7facb6b65870.svg">
<rect x="210.900000" y="57.000000" width="25.800000" height="24.000000" rx="0" ry="0" style="stroke:none;fill:#cccccc;"/>
<rect x="209.900000" y="56.000000" width="25.800000" height="24.000000" rx="0" ry="0" style="stroke:none;fill:#003366;"/>
</a>
<a xlink:href="ap-0x7facb6b65870.svg">
<text x="222.800000" y="70.000000" font-family="Arial" font-size="7" text-anchor="middle" fill="#FFFFFF">ap(2)</text>
</a>
<circle cx="211.900000" cy="58.000000" r="1"/>
<line x1="206.900000" y1="67.000000" x2="209.900000" y2="68.000000"  transform="rotate(0.000000,209.900000,68.000000)" style="stroke: black; stroke-width:0.25;"/>
<line x1="206.900000" y1="69.000000" x2="209.900000" y2="68.000000"  transform="rotate(0.000000,209.900000,68.000000)" style="stroke: black; stroke-width:0.25;"/>
<a xlink:href="ap-0x7facb6b65de0.svg">
<rect x="244.700000" y="57.000000" width="25.800000" height="24.000000" rx="0" ry="0" style="stroke:none;fill:#cccccc;"/>
<rect x="243.700000" y="56.000000" width="25.800000" height="24.000000" rx="0" ry="0" style="stroke:none;fill:#003366;"/>
</a>
<a xlink:href="ap-0x7facb6b65de0.svg">
<text x="256.600000" y="70.000000" font-family="Arial" font-size="7" text-anchor="middle" fill="#FFFFFF">ap(1)</text>
</a>
<circle cx="245.700000" cy="58.000000" r="1"/>
<line x1="240.700000" y1="67.000000" x2="243.700000" y2="68.000000"  transform="rotate(0.000000,243.700000,68.000000)" style="stroke: black; stroke-width:0.25;"/>
<line x1="240.700000" y1="69.000000" x2="243.700000" y2="68.000000"  transform="rotate(0.000000,243.700000,68.000000)" style="stroke: black; stroke-width:0.25;"/>
<a xlink:href="ap-0x7facb6b65de0.svg">
<rect x="227.800000" y="89.000000" width="25.800000" height="24.000000" rx="0" ry="0" style="stroke:none;fill:#cccccc;"/>
<rect x="226.800000" y="88.000000" width="25.800000" height="24.000000" rx="0" ry="0" style="stroke:none;fill:#003366;"/>
</a>
<a xlink:href="ap-0x7facb6b65de0.svg">
<text x="239.700000" y="102.000000" font-family="Arial" font-size="7" text-anchor="middle" fill="#FFFFFF">ap(1)</text>
</a>
<circle cx="228.800000" cy="90.000000" r="1"/>
<line x1="223.800000" y1="99.000000" x2="226.800000" y2="100.000000"  transform="rotate(0.000000,226.800000,100.000000)" style="stroke: black; stroke-width:0.25;"/>
<line x1="223.800000" y1="101.000000" x2="226.800000" y2="100.000000"  transform="rotate(0.000000,226.800000,100.000000)" style="stroke: black; stroke-width:0.25;"/>
<line x1="15.000000" y1="15.000000" x2="15.000000" y2="137.000000"  style="stroke: black; stroke-linecap:round; stroke-width:0.25; stroke-dasharray:3,3;"/>
<line x1="15.000000" y1="137.000000" x2="327.400000" y2="137.000000"  style="stroke: black; stroke-linecap:round; stroke-width:0.25; stroke-dasharray:3,3;"/>
<line x1="327.400000" y1="137.000000" x2="327.400000" y2="15.000000"  style="stroke: black; stroke-linecap:round; stroke-width:0.25; stroke-dasharray:3,3;"/>
<line x1="15.000000" y1="15.000000" x2="20.000000" y2="15.000000"  style="stroke: black; stroke-linecap:round; stroke-width:0.25; stroke-dasharray:3,3;"/>
<line x1="119.975000" y1="15.000000" x2="327.400000" y2="15.000000"  style="stroke: black; stroke-linecap:round; stroke-width:0.25; stroke-dasharray:3,3;"/>
<text x="20.000000" y="17.000000" font-family="Arial" font-size="7">filterbank(3)... 10000, 1))))</text>
<line x1="329.400000" y1="59.000000" x2="332.400000" y2="60.000000"  transform="rotate(0.000000,332.400000,60.000000)" style="stroke: black; stroke-width:0.25;"/>
<line x1="329.400000" y1="61.000000" x2="332.400000" y2="60.000000"  transform="rotate(0.000000,332.400000,60.000000)" style="stroke: black; stroke-width:0.25;"/>
<line x1="329.400000" y1="67.000000" x2="332.400000" y2="68.000000"  transform="rotate(0.000000,332.400000,68.000000)" style="stroke: black; stroke-width:0.25;"/>
<line x1="329.400000" y1="69.000000" x2="332.400000" y2="68.000000"  transform="rotate(0.000000,332.400000,68.000000)" style="stroke: black; stroke-width:0.25;"/>
<line x1="329.400000" y1="75.000000" x2="332.400000" y2="76.000000"  transform="rotate(0.000000,332.400000,76.000000)" style="stroke: black; stroke-width:0.25;"/>
<line x1="329.400000" y1="77.000000" x2="332.400000" y2="76.000000"  transform="rotate(0.000000,332.400000,76.000000)" style="stroke: black; stroke-width:0.25;"/>
<line x1="329.400000" y1="83.000000" x2="332.400000" y2="84.000000"  transform="rotate(0.000000,332.400000,84.000000)" style="stroke: black; stroke-width:0.25;"/>
<line x1="329.400000" y1="85.000000" x2="332.400000" y2="84.000000"  transform="rotate(0.000000,332.400000,84.000000)" style="stroke: black; stroke-width:0.25;"/>
<line x1="329.400000" y1="91.000000" x2="332.400000" y2="92.000000"  transform="rotate(0.000000,332.400000,92.000000)" style="stroke: black; stroke-width:0.25;"/>
<line x1="329.400000" y1="93.000000" x2="332.400000" y2="92.000000"  transform="rotate(0.000000,332.400000,92.000000)" style="stroke: black; stroke-width:0.25;"/>
<line x1="10.000000" y1="76.000000" x2="20.000000" y2="76.000000"  style="stroke:black; stroke-linecap:round; stroke-width:0.25;"/>
<line x1="20.000000" y1="76.000000" x2="24.000000" y2="76.000000"  style="stroke:black; stroke-linecap:round; stroke-width:0.25;"/>
<line x1="24.000000" y1="76.000000" x2="28.000000" y2="76.000000"  style="stroke:black; stroke-linecap:round; stroke-width:0.25;"/>
<line x1="28.000000" y1="76.000000" x2="28.000000" y2="76.000000"  style="stroke:black; stroke-linecap:round; stroke-width:0.25;"/>
<line x1="28.000000" y1="76.000000" x2="32.000000" y2="76.000000"  style="stroke:black; stroke-linecap:round; stroke-width:0.25;"/>
<line x1="161.000000" y1="60.000000" x2="165.000000" y2="60.000000"  style="stroke:black; stroke-linecap:round; stroke-width:0.25;"/>
<line x1="161.000000" y1="68.000000" x2="165.000000" y2="68.000000"  style="stroke:black; stroke-linecap:round; stroke-width:0.25;"/>
<line x1="161.000000" y1="76.000000" x2="165.000000" y2="76.000000"  style="stroke:black; stroke-linecap:round; stroke-width:0.25;"/>
<line x1="161.000000" y1="84.000000" x2="165.000000" y2="84.000000"  style="stroke:black; stroke-linecap:round; stroke-width:0.25;"/>
<line x1="161.000000" y1="92.000000" x2="165.000000" y2="92.000000"  style="stroke:black; stroke-linecap:round; stroke-width:0.25;"/>
<line x1="165.000000" y1="36.000000" x2="189.000000" y2="36.000000"  style="stroke:black; stroke-linecap:round; stroke-width:0.25;"/>
<line x1="165.000000" y1="60.000000" x2="165.000000" y2="36.000000"  style="stroke:black; stroke-linecap:round; stroke-width:0.25;"/>
<line x1="165.000000" y1="60.000000" x2="165.000000" y2="60.000000"  style="stroke:black; stroke-linecap:round; stroke-width:0.25;"/>
<line x1="165.000000" y1="68.000000" x2="189.000000" y2="68.000000"  style="stroke:black; stroke-linecap:round; stroke-width:0.25;"/>
<line x1="165.000000" y1="76.000000" x2="189.000000" y2="76.000000"  style="stroke:black; stroke-linecap:round; stroke-width:0.25;"/>
<line x1="165.000000" y1="84.000000" x2="181.000000" y2="84.000000"  style="stroke:black; stroke-linecap:round; stroke-width:0.25;"/>
<line x1="165.000000" y1="92.000000" x2="173.000000" y2="92.000000"  style="stroke:black; stroke-linecap:round; stroke-width:0.25;"/>
<line x1="173.000000" y1="92.000000" x2="173.000000" y2="128.000000"  style="stroke:black; stroke-linecap:round; stroke-width:0.25;"/>
<line x1="173.000000" y1="128.000000" x2="189.000000" y2="128.000000"  style="stroke:black; stroke-linecap:round; stroke-width:0.25;"/>
<line x1="181.000000" y1="84.000000" x2="181.000000" y2="120.000000"  style="stroke:black; stroke-linecap:round; stroke-width:0.25;"/>
<line x1="181.000000" y1="120.000000" x2="189.000000" y2="120.000000"  style="stroke:black; stroke-linecap:round; stroke-width:0.25;"/>
<line x1="189.000000" y1="36.000000" x2="193.000000" y2="36.000000"  style="stroke:black; stroke-linecap:round; stroke-width:0.25;"/>
<line x1="189.000000" y1="68.000000" x2="205.900000" y2="68.000000"  style="stroke:black; stroke-linecap:round; stroke-width:0.25;"/>
<line x1="189.000000" y1="76.000000" x2="189.000000" y2="100.000000"  style="stroke:black; stroke-linecap:round; stroke-width:0.25;"/>
<line x1="189.000000" y1="100.000000" x2="189.000000" y2="100.000000"  style="stroke:black; stroke-linecap:round; stroke-width:0.25;"/>
<line x1="189.000000" y1="100.000000" x2="205.900000" y2="100.000000"  style="stroke:black; stroke-linecap:round; stroke-width:0.25;"/>
<line x1="189.000000" y1="120.000000" x2="239.700000" y2="120.000000"  style="stroke:black; stroke-linecap:round; stroke-width:0.25;"/>
<line x1="189.000000" y1="128.000000" x2="239.700000" y2="128.000000"  style="stroke:black; stroke-linecap:round; stroke-width:0.25;"/>
<line x1="205.900000" y1="68.000000" x2="209.900000" y2="68.000000"  style="stroke:black; stroke-linecap:round; stroke-width:0.25;"/>
<line x1="205.900000" y1="100.000000" x2="222.800000" y2="100.000000"  style="stroke:black; stroke-linecap:round; stroke-width:0.25;"/>
<line x1="218.800000" y1="36.000000" x2="222.800000" y2="36.000000"  style="stroke:black; stroke-linecap:round; stroke-width:0.25;"/>
<line x1="222.800000" y1="36.000000" x2="222.800000" y2="36.000000"  style="stroke:black; stroke-linecap:round; stroke-width:0.25;"/>
<line x1="222.800000" y1="36.000000" x2="226.800000" y2="36.000000"  style="stroke:black; stroke-linecap:round; stroke-width:0.25;"/>
<line x1="222.800000" y1="100.000000" x2="226.800000" y2="100.000000"  style="stroke:black; stroke-linecap:round; stroke-width:0.25;"/>
<line x1="235.700000" y1="68.000000" x2="239.700000" y2="68.000000"  style="stroke:black; stroke-linecap:round; stroke-width:0.25;"/>
<line x1="239.700000" y1="68.000000" x2="239.700000" y2="68.000000"  style="stroke:black; stroke-linecap:round; stroke-width:0.25;"/>
<line x1="239.700000" y1="68.000000" x2="243.700000" y2="68.000000"  style="stroke:black; stroke-linecap:round; stroke-width:0.25;"/>
<line x1="239.700000" y1="120.000000" x2="290.400000" y2="120.000000"  style="stroke:black; stroke-linecap:round; stroke-width:0.25;"/>
<line x1="239.700000" y1="128.000000" x2="290.400000" y2="128.000000"  style="stroke:black; stroke-linecap:round; stroke-width:0.25;"/>
<line x1="252.600000" y1="36.000000" x2="256.600000" y2="36.000000"  style="stroke:black; stroke-linecap:round; stroke-width:0.25;"/>
<line x1="252.600000" y1="100.000000" x2="256.600000" y2="100.000000"  style="stroke:black; stroke-linecap:round; stroke-width:0.25;"/>
<line x1="256.600000" y1="36.000000" x2="256.600000" y2="36.000000"  style="stroke:black; stroke-linecap:round; stroke-width:0.25;"/>
<line x1="256.600000" y1="36.000000" x2="260.600000" y2="36.000000"  style="stroke:black; stroke-linecap:round; stroke-width:0.25;"/>
<line x1="256.600000" y1="100.000000" x2="256.600000" y2="100.000000"  style="stroke:black; stroke-linecap:round; stroke-width:0.25;"/>
<line x1="256.600000" y1="100.000000" x2="273.500000" y2="100.000000"  style="stroke:black; stroke-linecap:round; stroke-width:0.25;"/>
<line x1="269.500000" y1="68.000000" x2="273.500000" y2="68.000000"  style="stroke:black; stroke-linecap:round; stroke-width:0.25;"/>
<line x1="273.500000" y1="68.000000" x2="273.500000" y2="68.000000"  style="stroke:black; stroke-linecap:round; stroke-width:0.25;"/>
<line x1="273.500000" y1="68.000000" x2="290.400000" y2="68.000000"  style="stroke:black; stroke-linecap:round; stroke-width:0.25;"/>
<line x1="273.500000" y1="100.000000" x2="290.400000" y2="100.000000"  style="stroke:black; stroke-linecap:round; stroke-width:0.25;"/>
<line x1="286.400000" y1="36.000000" x2="290.400000" y2="36.000000"  style="stroke:black; stroke-linecap:round; stroke-width:0.25;"/>
<line x1="290.400000" y1="68.000000" x2="314.400000" y2="68.000000"  style="stroke:black; stroke-linecap:round; stroke-width:0.25;"/>
<line x1="290.400000" y1="76.000000" x2="314.400000" y2="76.000000"  style="stroke:black; stroke-linecap:round; stroke-width:0.25;"/>
<line x1="290.400000" y1="100.000000" x2="290.400000" y2="76.000000"  style="stroke:black; stroke-linecap:round; stroke-width:0.25;"/>
<line x1="290.400000" y1="100.000000" x2="290.400000" y2="100.000000"  style="stroke:black; stroke-linecap:round; stroke-width:0.25;"/>
<line x1="290.400000" y1="120.000000" x2="298.400000" y2="120.000000"  style="stroke:black; stroke-linecap:round; stroke-width:0.25;"/>
<line x1="290.400000" y1="128.000000" x2="306.400000" y2="128.000000"  style="stroke:black; stroke-linecap:round; stroke-width:0.25;"/>
<line x1="290.400000" y1="36.000000" x2="290.400000" y2="36.000000"  style="stroke:black; stroke-linecap:round; stroke-width:0.25;"/>
<line x1="290.400000" y1="36.000000" x2="314.400000" y2="36.000000"  style="stroke:black; stroke-linecap:round; stroke-width:0.25;"/>
<line x1="298.400000" y1="84.000000" x2="314.400000" y2="84.000000"  style="stroke:black; stroke-linecap:round; stroke-width:0.25;"/>
<line x1="298.400000" y1="120.000000" x2="298.400000" y2="84.000000"  style="stroke:black; stroke-linecap:round; stroke-width:0.25;"/>
<line x1="306.400000" y1="92.000000" x2="314.400000" y2="92.000000"  style="stroke:black; stroke-linecap:round; stroke-width:0.25;"/>
<line x1="306.400000" y1="128.000000" x2="306.400000" y2="92.000000"  style="stroke:black; stroke-linecap:round; stroke-width:0.25;"/>
<line x1="314.400000" y1="60.000000" x2="318.400000" y2="60.000000"  style="stroke:black; stroke-linecap:round; stroke-width:0.25;"/>
<line x1="314.400000" y1="68.000000" x2="318.400000" y2="68.000000"  style="stroke:black; stroke-linecap:round; stroke-width:0.25;"/>
<line x1="314.400000" y1="76.000000" x2="318.400000" y2="76.000000"  style="stroke:black; stroke-linecap:round; stroke-width:0.25;"/>
<line x1="314.400000" y1="84.000000" x2="318.400000" y2="84.000000"  style="stroke:black; stroke-linecap:round; stroke-width:0.25;"/>
<line x1="314.400000" y1="92.000000" x2="318.400000" y2="92.000000"  style="stroke:black; stroke-linecap:round; stroke-width:0.25;"/>
<line x1="314.400000" y1="36.000000" x2="314.400000" y2="60.000000"  style="stroke:black; stroke-linecap:round; stroke-width:0.25;"/>
<line x1="314.400000" y1="60.000000" x2="314.400000" y2="60.000000"  style="stroke:black; stroke-linecap:round; stroke-width:0.25;"/>
<line x1="318.400000" y1="60.000000" x2="322.400000" y2="60.000000"  style="stroke:black; stroke-linecap:round; stroke-width:0.25;"/>
<line x1="318.400000" y1="68.000000" x2="322.400000" y2="68.000000"  style="stroke:black; stroke-linecap:round; stroke-width:0.25;"/>
<line x1="318.400000" y1="76.000000" x2="322.400000" y2="76.000000"  style="stroke:black; stroke-linecap:round; stroke-width:0.25;"/>
<line x1="318.400000" y1="84.000000" x2="322.400000" y2="84.000000"  style="stroke:black; stroke-linecap:round; stroke-width:0.25;"/>
<line x1="318.400000" y1="92.000000" x2="322.400000" y2="92.000000"  style="stroke:black; stroke-linecap:round; stroke-width:0.25;"/>
<line x1="322.400000" y1="60.000000" x2="332.400000" y2="60.000000"  style="stroke:black; stroke-linecap:round; stroke-width:0.25;"/>
<line x1="322.400000" y1="68.000000" x2="332.400000" y2="68.000000"  style="stroke:black; stroke-linecap:round; stroke-width:0.25;"/>
<line x1="322.400000" y1="76.000000" x2="332.400000" y2="76.000000"  style="stroke:black; stroke-linecap:round; stroke-width:0.25;"/>
<line x1="322.400000" y1="84.000000" x2="332.400000" y2="84.000000"  style="stroke:black; stroke-linecap:round; stroke-width:0.25;"/>
<line x1="322.400000" y1="92.000000" x2="332.400000" y2="92.000000"  style="stroke:black; stroke-linecap:round; stroke-width:0.25;"/>
</svg>
