<?xml version="1.0"?>
<svg xmlns="http://www.w3.org/2000/svg" xmlns:xlink="http://www.w3.org/1999/xlink" viewBox="0 0 511.300000 240.000000" width="255.650000mm" height="120.000000mm" version="1.1">
<a xlink:href="delayfilters-0x7facb6b6c1c0.svg">
<rect x="1.000000" y="1.000000" width="510.300000" height="239.000000" rx="0" ry="0" style="stroke:none;fill:#cccccc;"/>
<rect x="0.000000" y="0.000000" width="510.300000" height="239.000000" rx="0" ry="0" style="stroke:none;fill:#ffffff;"/>
</a>
<text x="10.000000" y="7.000000" font-family="Arial" font-size="7"></text>
<a xlink:href="filterbank-0x7facb6b66460.svg">
<rect x="33.000000" y="101.000000" width="129.000000" height="40.000000" rx="0" ry="0" style="stroke:none;fill:#cccccc;"/>
<rect x="32.000000" y="100.000000" width="129.000000" height="40.000000" rx="0" ry="0" style="stroke:none;fill:#003366;"/>
</a>
<a xlink:href="filterbank-0x7facb6b66460.svg">
<text x="96.500000" y="122.000000" font-family="Arial" font-size="7" text-anchor="middle" fill="#FFFFFF">filterbank(3)... 10000, 1))))</text>
</a>
<circle cx="34.000000" cy="102.000000" r="1"/>
<line x1="29.000000" y1="119.000000" x2="32.000000" y2="120.000000"  transform="rotate(0.000000,32.000000,120.000000)" style="stroke: black; stroke-width:0.25;"/>
<line x1="29.000000" y1="121.000000" x2="32.000000" y2="120.000000"  transform="rotate(0.000000,32.000000,120.000000)" style="stroke: black; stroke-width:0.25;"/>
<a xlink:href="g-0x7facb5db5950.svg">
<rect x="194.000000" y="33.000000" width="38.700000" height="24.000000" rx="0" ry="0" style="stroke:none;fill:#cccccc;"/>
<rect x="193.000000" y="32.000000" width="38.700000" height="24.000000" rx="0" ry="0" style="stroke:none;fill:#003366;"/>
</a>
<a xlink:href="g-0x7facb5db5950.svg">
<text x="212.350000" y="46.000000" font-family="Arial" font-size="7" text-anchor="middle" fill="#FFFFFF">g(0)(3)</text>
</a>
<circle cx="195.000000" cy="34.000000" r="1"/>
<rect x="248.700000" y="29.000000" width="24.000000" height="24.000000" rx="0" ry="0" style="stroke:none;fill:#cccccc;"/>
<rect x="247.700000" y="28.000000" width="24.000000" height="24.000000" rx="0" ry="0" style="stroke:none;fill:#4B71A1;"/>
<text x="259.700000" y="42.000000" font-family="Arial" font-size="7" text-anchor="middle" fill="#FFFFFF">*</text>
<circle cx="249.700000" cy="30.000000" r="1"/>
<line x1="244.700000" y1="35.000000" x2="247.700000" y2="36.000000"  transform="rotate(0.000000,247.700000,36.000000)" style="stroke: black; stroke-width:0.25;"/>
<line x1="244.700000" y1="37.000000" x2="247.700000" y2="36.000000"  transform="rotate(0.000000,247.700000,36.000000)" style="stroke: black; stroke-width:0.25;"/>
<line x1="244.700000" y1="43.000000" x2="247.700000" y2="44.000000"  transform="rotate(0.000000,247.700000,44.000000)" style="stroke: black; stroke-width:0.25;"/>
<line x1="244.700000" y1="45.000000" x2="247.700000" y2="44.000000"  transform="rotate(0.000000,247.700000,44.000000)" style="stroke: black; stroke-width:0.25;"/>
<a xlink:href="g-0x7facb5da8d20.svg">
<rect x="194.000000" y="73.000000" width="38.700000" height="24.000000" rx="0" ry="0" style="stroke:none;fill:#cccccc;"/>
<rect x="193.000000" y="72.000000" width="38.700000" height="24.000000" rx="0" ry="0" style="stroke:none;fill:#003366;"/>
</a>
<a xlink:href="g-0x7facb5da8d20.svg">
<text x="212.350000" y="86.000000" font-family="Arial" font-size="7" text-anchor="middle" fill="#FFFFFF">g(1)(3)</text>
</a>
<circle cx="195.000000" cy="74.000000" r="1"/>
<rect x="248.700000" y="69.000000" width="24.000000" height="24.000000" rx="0" ry="0" style="stroke:none;fill:#cccccc;"/>
<rect x="247.700000" y="68.000000" width="24.000000" height="24.000000" rx="0" ry="0" style="stroke:none;fill:#4B71A1;"/>
<text x="259.700000" y="82.000000" font-family="Arial" font-size="7" text-anchor="middle" fill="#FFFFFF">*</text>
<circle cx="249.700000" cy="70.000000" r="1"/>
<line x1="244.700000" y1="75.000000" x2="247.700000" y2="76.000000"  transform="rotate(0.000000,247.700000,76.000000)" style="stroke: black; stroke-width:0.25;"/>
<line x1="244.700000" y1="77.000000" x2="247.700000" y2="76.000000"  transform="rotate(0.000000,247.700000,76.000000)" style="stroke: black; stroke-width:0.25;"/>
<line x1="244.700000" y1="83.000000" x2="247.700000" y2="84.000000"  transform="rotate(0.000000,247.700000,84.000000)" style="stroke: black; stroke-width:0.25;"/>
<line x1="244.700000" y1="85.000000" x2="247.700000" y2="84.000000"  transform="rotate(0.000000,247.700000,84.000000)" style="stroke: black; stroke-width:0.25;"/>
<a xlink:href="g-0x7facb5d9ad20.svg">
<rect x="194.000000" y="113.000000" width="38.700000" height="24.000000" rx="0" ry="0" style="stroke:none;fill:#cccccc;"/>
<rect x="193.000000" y="112.000000" width="38.700000" height="24.000000" rx="0" ry="0" style="stroke:none;fill:#003366;"/>
</a>
<a xlink:href="g-0x7facb5d9ad20.svg">
<text x="212.350000" y="126.000000" font-family="Arial" font-size="7" text-anchor="middle" fill="#FFFFFF">g(2)(3)</text>
</a>
<circle cx="195.000000" cy="114.000000" r="1"/>
<rect x="248.700000" y="109.000000" width="24.000000" height="24.000000" rx="0" ry="0" style="stroke:none;fill:#cccccc;"/>
<rect x="247.700000" y="108.000000" width="24.000000" height="24.000000" rx="0" ry="0" style="stroke:none;fill:#4B71A1;"/>
<text x="259.700000" y="122.000000" font-family="Arial" font-size="7" text-anchor="middle" fill="#FFFFFF">*</text>
<circle cx="249.700000" cy="110.000000" r="1"/>
<line x1="244.700000" y1="115.000000" x2="247.700000" y2="116.000000"  transform="rotate(0.000000,247.700000,116.000000)" style="stroke: black; stroke-width:0.25;"/>
<line x1="244.700000" y1="117.000000" x2="247.700000" y2="116.000000"  transform="rotate(0.000000,247.700000,116.000000)" style="stroke: black; stroke-width:0.25;"/>
<line x1="244.700000" y1="123.000000" x2="247.700000" y2="124.000000"  transform="rotate(0.000000,247.700000,124.000000)" style="stroke: black; stroke-width:0.25;"/>
<line x1="244.700000" y1="125.000000" x2="247.700000" y2="124.000000"  transform="rotate(0.000000,247.700000,124.000000)" style="stroke: black; stroke-width:0.25;"/>
<a xlink:href="g-0x7facb5d8b960.svg">
<rect x="194.000000" y="153.000000" width="38.700000" height="24.000000" rx="0" ry="0" style="stroke:none;fill:#cccccc;"/>
<rect x="193.000000" y="152.000000" width="38.700000" height="24.000000" rx="0" ry="0" style="stroke:none;fill:#003366;"/>
</a>
<a xlink:href="g-0x7facb5d8b960.svg">
<text x="212.350000" y="166.000000" font-family="Arial" font-size="7" text-anchor="middle" fill="#FFFFFF">g(3)(3)</text>
</a>
<circle cx="195.000000" cy="154.000000" r="1"/>
<rect x="248.700000" y="149.000000" width="24.000000" height="24.000000" rx="0" ry="0" style="stroke:none;fill:#cccccc;"/>
<rect x="247.700000" y="148.000000" width="24.000000" height="24.000000" rx="0" ry="0" style="stroke:none;fill:#4B71A1;"/>
<text x="259.700000" y="162.000000" font-family="Arial" font-size="7" text-anchor="middle" fill="#FFFFFF">*</text>
<circle cx="249.700000" cy="150.000000" r="1"/>
<line x1="244.700000" y1="155.000000" x2="247.700000" y2="156.000000"  transform="rotate(0.000000,247.700000,156.000000)" style="stroke: black; stroke-width:0.25;"/>
<line x1="244.700000" y1="157.000000" x2="247.700000" y2="156.000000"  transform="rotate(0.000000,247.700000,156.000000)" style="stroke: black; stroke-width:0.25;"/>
<line x1="244.700000" y1="163.000000" x2="247.700000" y2="164.000000"  transform="rotate(0.000000,247.700000,164.000000)" style="stroke: black; stroke-width:0.25;"/>
<line x1="244.700000" y1="165.000000" x2="247.700000" y2="164.000000"  transform="rotate(0.000000,247.700000,164.000000)" style="stroke: black; stroke-width:0.25;"/>
<a xlink:href="g-0x7facb5d7b270.svg">
<rect x="194.000000" y="193.000000" width="38.700000" height="24.000000" rx="0" ry="0" style="stroke:none;fill:#cccccc;"/>
<rect x="193.000000" y="192.000000" width="38.700000" height="24.000000" rx="0" ry="0" style="stroke:none;fill:#003366;"/>
</a>
<a xlink:href="g-0x7facb5d7b270.svg">
<text x="212.350000" y="206.000000" font-family="Arial" font-size="7" text-anchor="middle" fill="#FFFFFF">g(4)(3)</text>
</a>
<circle cx="195.000000" cy="194.000000" r="1"/>
<rect x="248.700000" y="189.000000" width="24.000000" height="24.000000" rx="0" ry="0" style="stroke:none;fill:#cccccc;"/>
<rect x="247.700000" y="188.000000" width="24.000000" height="24.000000" rx="0" ry="0" style="stroke:none;fill:#4B71A1;"/>
<text x="259.700000" y="202.000000" font-family="Arial" font-size="7" text-anchor="middle" fill="#FFFFFF">*</text>
<circle cx="249.700000" cy="190.000000" r="1"/>
<line x1="244.700000" y1="195.000000" x2="247.700000" y2="196.000000"  transform="rotate(0.000000,247.700000,196.000000)" style="stroke: black; stroke-width:0.25;"/>
<line x1="244.700000" y1="197.000000" x2="247.700000" y2="196.000000"  transform="rotate(0.000000,247.700000,196.000000)" style="stroke: black; stroke-width:0.25;"/>
<line x1="244.700000" y1="203.000000" x2="247.700000" y2="204.000000"  transform="rotate(0.000000,247.700000,204.000000)" style="stroke: black; stroke-width:0.25;"/>
<line x1="244.700000" y1="205.000000" x2="247.700000" y2="204.000000"  transform="rotate(0.000000,247.700000,204.000000)" style="stroke: black; stroke-width:0.25;"/>
<a xlink:href="loopgainmax-0x7facb1958b80.svg">
<rect x="348.700000" y="97.000000" width="51.600000" height="24.000000" rx="0" ry="0" style="stroke:none;fill:#cccccc;"/>
<rect x="347.700000" y="96.000000" width="51.600000" height="24.000000" rx="0" ry="0" style="stroke:none;fill:#003366;"/>
</a>
<a xlink:href="loopgainmax-0x7facb1958b80.svg">
<text x="373.500000" y="110.000000" font-family="Arial" font-size="7" text-anchor="middle" fill="#FFFFFF">loopgainmax</text>
</a>
<circle cx="349.700000" cy="98.000000" r="1"/>
<rect x="416.300000" y="93.000000" width="24.000000" height="24.000000" rx="0" ry="0" style="stroke:none;fill:#cccccc;"/>
<rect x="415.300000" y="92.000000" width="24.000000" height="24.000000" rx="0" ry="0" style="stroke:none;fill:#4B71A1;"/>
<text x="427.300000" y="106.000000" font-family="Arial" font-size="7" text-anchor="middle" fill="#FFFFFF">*</text>
<circle cx="417.300000" cy="94.000000" r="1"/>
<line x1="412.300000" y1="99.000000" x2="415.300000" y2="100.000000"  transform="rotate(0.000000,415.300000,100.000000)" style="stroke: black; stroke-width:0.25;"/>
<line x1="412.300000" y1="101.000000" x2="415.300000" y2="100.000000"  transform="rotate(0.000000,415.300000,100.000000)" style="stroke: black; stroke-width:0.25;"/>
<line x1="412.300000" y1="107.000000" x2="415.300000" y2="108.000000"  transform="rotate(0.000000,415.300000,108.000000)" style="stroke: black; stroke-width:0.25;"/>
<line x1="412.300000" y1="109.000000" x2="415.300000" y2="108.000000"  transform="rotate(0.000000,415.300000,108.000000)" style="stroke: black; stroke-width:0.25;"/>
<a xlink:href="N-0x7facb1e3a640.svg">
<rect x="365.600000" y="129.000000" width="24.000000" height="24.000000" rx="0" ry="0" style="stroke:none;fill:#cccccc;"/>
<rect x="364.600000" y="128.000000" width="24.000000" height="24.000000" rx="0" ry="0" style="stroke:none;fill:#003366;"/>
</a>
<a xlink:href="N-0x7facb1e3a640.svg">
<text x="376.600000" y="142.000000" font-family="Arial" font-size="7" text-anchor="middle" fill="#FFFFFF">N</text>
</a>
<circle cx="366.600000" cy="130.000000" r="1"/>
<rect x="397.600000" y="129.000000" width="25.800000" height="24.000000" rx="0" ry="0" style="stroke:none;fill:#cccccc;"/>
<rect x="396.600000" y="128.000000" width="25.800000" height="24.000000" rx="0" ry="0" style="stroke:none;fill:#4B71A1;"/>
<text x="409.500000" y="142.000000" font-family="Arial" font-size="7" text-anchor="middle" fill="#FFFFFF">sqrt</text>
<circle cx="398.600000" cy="130.000000" r="1"/>
<line x1="393.600000" y1="139.000000" x2="396.600000" y2="140.000000"  transform="rotate(0.000000,396.600000,140.000000)" style="stroke: black; stroke-width:0.25;"/>
<line x1="393.600000" y1="141.000000" x2="396.600000" y2="140.000000"  transform="rotate(0.000000,396.600000,140.000000)" style="stroke: black; stroke-width:0.25;"/>
<rect x="456.300000" y="109.000000" width="24.000000" height="24.000000" rx="0" ry="0" style="stroke:none;fill:#cccccc;"/>
<rect x="455.300000" y="108.000000" width="24.000000" height="24.000000" rx="0" ry="0" style="stroke:none;fill:#4B71A1;"/>
<text x="467.300000" y="122.000000" font-family="Arial" font-size="7" text-anchor="middle" fill="#FFFFFF">/</text>
<circle cx="457.300000" cy="110.000000" r="1"/>
<line x1="452.300000" y1="115.000000" x2="455.300000" y2="116.000000"  transform="rotate(0.000000,455.300000,116.000000)" style="stroke: black; stroke-width:0.25;"/>
<line x1="452.300000" y1="117.000000" x2="455.300000" y2="116.000000"  transform="rotate(0.000000,455.300000,116.000000)" style="stroke: black; stroke-width:0.25;"/>
<line x1="452.300000" y1="123.000000" x2="455.300000" y2="124.000000"  transform="rotate(0.000000,455.300000,124.000000)" style="stroke: black; stroke-width:0.25;"/>
<line x1="452.300000" y1="125.000000" x2="455.300000" y2="124.000000"  transform="rotate(0.000000,455.300000,124.000000)" style="stroke: black; stroke-width:0.25;"/>
<line x1="15.000000" y1="15.000000" x2="15.000000" y2="225.000000"  style="stroke: black; stroke-linecap:round; stroke-width:0.25; stroke-dasharray:3,3;"/>
<line x1="15.000000" y1="225.000000" x2="496.300000" y2="225.000000"  style="stroke: black; stroke-linecap:round; stroke-width:0.25; stroke-dasharray:3,3;"/>
<line x1="496.300000" y1="225.000000" x2="496.300000" y2="15.000000"  style="stroke: black; stroke-linecap:round; stroke-width:0.25; stroke-dasharray:3,3;"/>
<line x1="15.000000" y1="15.000000" x2="20.000000" y2="15.000000"  style="stroke: black; stroke-linecap:round; stroke-width:0.25; stroke-dasharray:3,3;"/>
<line x1="119.975000" y1="15.000000" x2="496.300000" y2="15.000000"  style="stroke: black; stroke-linecap:round; stroke-width:0.25; stroke-dasharray:3,3;"/>
<text x="20.000000" y="17.000000" font-family="Arial" font-size="7">filter(3)(vgr..., 10, 0.1))))</text>
<line x1="498.300000" y1="119.000000" x2="501.300000" y2="120.000000"  transform="rotate(0.000000,501.300000,120.000000)" style="stroke: black; stroke-width:0.25;"/>
<line x1="498.300000" y1="121.000000" x2="501.300000" y2="120.000000"  transform="rotate(0.000000,501.300000,120.000000)" style="stroke: black; stroke-width:0.25;"/>
<line x1="10.000000" y1="120.000000" x2="20.000000" y2="120.000000"  style="stroke:black; stroke-linecap:round; stroke-width:0.25;"/>
<line x1="20.000000" y1="120.000000" x2="24.000000" y2="120.000000"  style="stroke:black; stroke-linecap:round; stroke-width:0.25;"/>
<line x1="24.000000" y1="120.000000" x2="28.000000" y2="120.000000"  style="stroke:black; stroke-linecap:round; stroke-width:0.25;"/>
<line x1="28.000000" y1="120.000000" x2="28.000000" y2="120.000000"  style="stroke:black; stroke-linecap:round; stroke-width:0.25;"/>
<line x1="28.000000" y1="120.000000" x2="32.000000" y2="120.000000"  style="stroke:black; stroke-linecap:round; stroke-width:0.25;"/>
<line x1="161.000000" y1="104.000000" x2="165.000000" y2="104.000000"  style="stroke:black; stroke-linecap:round; stroke-width:0.25;"/>
<line x1="161.000000" y1="112.000000" x2="165.000000" y2="112.000000"  style="stroke:black; stroke-linecap:round; stroke-width:0.25;"/>
<line x1="161.000000" y1="120.000000" x2="165.000000" y2="120.000000"  style="stroke:black; stroke-linecap:round; stroke-width:0.25;"/>
<line x1="161.000000" y1="128.000000" x2="165.000000" y2="128.000000"  style="stroke:black; stroke-linecap:round; stroke-width:0.25;"/>
<line x1="161.000000" y1="136.000000" x2="165.000000" y2="136.000000"  style="stroke:black; stroke-linecap:round; stroke-width:0.25;"/>
<line x1="165.000000" y1="24.000000" x2="189.000000" y2="24.000000"  style="stroke:black; stroke-linecap:round; stroke-width:0.25;"/>
<line x1="165.000000" y1="104.000000" x2="165.000000" y2="24.000000"  style="stroke:black; stroke-linecap:round; stroke-width:0.25;"/>
<line x1="165.000000" y1="104.000000" x2="165.000000" y2="104.000000"  style="stroke:black; stroke-linecap:round; stroke-width:0.25;"/>
<line x1="165.000000" y1="112.000000" x2="173.000000" y2="112.000000"  style="stroke:black; stroke-linecap:round; stroke-width:0.25;"/>
<line x1="165.000000" y1="120.000000" x2="181.000000" y2="120.000000"  style="stroke:black; stroke-linecap:round; stroke-width:0.25;"/>
<line x1="165.000000" y1="128.000000" x2="189.000000" y2="128.000000"  style="stroke:black; stroke-linecap:round; stroke-width:0.25;"/>
<line x1="165.000000" y1="136.000000" x2="181.000000" y2="136.000000"  style="stroke:black; stroke-linecap:round; stroke-width:0.25;"/>
<line x1="173.000000" y1="64.000000" x2="189.000000" y2="64.000000"  style="stroke:black; stroke-linecap:round; stroke-width:0.25;"/>
<line x1="173.000000" y1="112.000000" x2="173.000000" y2="64.000000"  style="stroke:black; stroke-linecap:round; stroke-width:0.25;"/>
<line x1="181.000000" y1="104.000000" x2="189.000000" y2="104.000000"  style="stroke:black; stroke-linecap:round; stroke-width:0.25;"/>
<line x1="181.000000" y1="120.000000" x2="181.000000" y2="104.000000"  style="stroke:black; stroke-linecap:round; stroke-width:0.25;"/>
<line x1="181.000000" y1="136.000000" x2="181.000000" y2="184.000000"  style="stroke:black; stroke-linecap:round; stroke-width:0.25;"/>
<line x1="181.000000" y1="184.000000" x2="189.000000" y2="184.000000"  style="stroke:black; stroke-linecap:round; stroke-width:0.25;"/>
<line x1="189.000000" y1="24.000000" x2="212.350000" y2="24.000000"  style="stroke:black; stroke-linecap:round; stroke-width:0.25;"/>
<line x1="189.000000" y1="64.000000" x2="212.350000" y2="64.000000"  style="stroke:black; stroke-linecap:round; stroke-width:0.25;"/>
<line x1="189.000000" y1="104.000000" x2="212.350000" y2="104.000000"  style="stroke:black; stroke-linecap:round; stroke-width:0.25;"/>
<line x1="189.000000" y1="128.000000" x2="189.000000" y2="144.000000"  style="stroke:black; stroke-linecap:round; stroke-width:0.25;"/>
<line x1="189.000000" y1="144.000000" x2="189.000000" y2="144.000000"  style="stroke:black; stroke-linecap:round; stroke-width:0.25;"/>
<line x1="189.000000" y1="144.000000" x2="212.350000" y2="144.000000"  style="stroke:black; stroke-linecap:round; stroke-width:0.25;"/>
<line x1="189.000000" y1="184.000000" x2="212.350000" y2="184.000000"  style="stroke:black; stroke-linecap:round; stroke-width:0.25;"/>
<line x1="212.350000" y1="24.000000" x2="235.700000" y2="24.000000"  style="stroke:black; stroke-linecap:round; stroke-width:0.25;"/>
<line x1="212.350000" y1="64.000000" x2="235.700000" y2="64.000000"  style="stroke:black; stroke-linecap:round; stroke-width:0.25;"/>
<line x1="212.350000" y1="104.000000" x2="235.700000" y2="104.000000"  style="stroke:black; stroke-linecap:round; stroke-width:0.25;"/>
<line x1="212.350000" y1="144.000000" x2="235.700000" y2="144.000000"  style="stroke:black; stroke-linecap:round; stroke-width:0.25;"/>
<line x1="212.350000" y1="184.000000" x2="235.700000" y2="184.000000"  style="stroke:black; stroke-linecap:round; stroke-width:0.25;"/>
<line x1="231.700000" y1="44.000000" x2="235.700000" y2="44.000000"  style="stroke:black; stroke-linecap:round; stroke-width:0.25;"/>
<line x1="231.700000" y1="84.000000" x2="235.700000" y2="84.000000"  style="stroke:black; stroke-linecap:round; stroke-width:0.25;"/>
<line x1="231.700000" y1="124.000000" x2="235.700000" y2="124.000000"  style="stroke:black; stroke-linecap:round; stroke-width:0.25;"/>
<line x1="231.700000" y1="164.000000" x2="235.700000" y2="164.000000"  style="stroke:black; stroke-linecap:round; stroke-width:0.25;"/>
<line x1="231.700000" y1="204.000000" x2="235.700000" y2="204.000000"  style="stroke:black; stroke-linecap:round; stroke-width:0.25;"/>
<line x1="235.700000" y1="24.000000" x2="243.700000" y2="24.000000"  style="stroke:black; stroke-linecap:round; stroke-width:0.25;"/>
<line x1="235.700000" y1="44.000000" x2="243.700000" y2="44.000000"  style="stroke:black; stroke-linecap:round; stroke-width:0.25;"/>
<line x1="235.700000" y1="64.000000" x2="243.700000" y2="64.000000"  style="stroke:black; stroke-linecap:round; stroke-width:0.25;"/>
<line x1="235.700000" y1="84.000000" x2="243.700000" y2="84.000000"  style="stroke:black; stroke-linecap:round; stroke-width:0.25;"/>
<line x1="235.700000" y1="104.000000" x2="243.700000" y2="104.000000"  style="stroke:black; stroke-linecap:round; stroke-width:0.25;"/>
<line x1="235.700000" y1="124.000000" x2="243.700000" y2="124.000000"  style="stroke:black; stroke-linecap:round; stroke-width:0.25;"/>
<line x1="235.700000" y1="144.000000" x2="243.700000" y2="144.000000"  style="stroke:black; stroke-linecap:round; stroke-width:0.25;"/>
<line x1="235.700000" y1="164.000000" x2="243.700000" y2="164.000000"  style="stroke:black; stroke-linecap:round; stroke-width:0.25;"/>
<line x1="235.700000" y1="184.000000" x2="243.700000" y2="184.000000"  style="stroke:black; stroke-linecap:round; stroke-width:0.25;"/>
<line x1="235.700000" y1="204.000000" x2="243.700000" y2="204.000000"  style="stroke:black; stroke-linecap:round; stroke-width:0.25;"/>
<line x1="243.700000" y1="24.000000" x2="243.700000" y2="36.000000"  style="stroke:black; stroke-linecap:round; stroke-width:0.25;"/>
<line x1="243.700000" y1="36.000000" x2="243.700000" y2="36.000000"  style="stroke:black; stroke-linecap:round; stroke-width:0.25;"/>
<line x1="243.700000" y1="36.000000" x2="247.700000" y2="36.000000"  style="stroke:black; stroke-linecap:round; stroke-width:0.25;"/>
<line x1="243.700000" y1="44.000000" x2="247.700000" y2="44.000000"  style="stroke:black; stroke-linecap:round; stroke-width:0.25;"/>
<line x1="243.700000" y1="64.000000" x2="243.700000" y2="76.000000"  style="stroke:black; stroke-linecap:round; stroke-width:0.25;"/>
<line x1="243.700000" y1="76.000000" x2="243.700000" y2="76.000000"  style="stroke:black; stroke-linecap:round; stroke-width:0.25;"/>
<line x1="243.700000" y1="76.000000" x2="247.700000" y2="76.000000"  style="stroke:black; stroke-linecap:round; stroke-width:0.25;"/>
<line x1="243.700000" y1="84.000000" x2="247.700000" y2="84.000000"  style="stroke:black; stroke-linecap:round; stroke-width:0.25;"/>
<line x1="243.700000" y1="104.000000" x2="243.700000" y2="116.000000"  style="stroke:black; stroke-linecap:round; stroke-width:0.25;"/>
<line x1="243.700000" y1="116.000000" x2="243.700000" y2="116.000000"  style="stroke:black; stroke-linecap:round; stroke-width:0.25;"/>
<line x1="243.700000" y1="116.000000" x2="247.700000" y2="116.000000"  style="stroke:black; stroke-linecap:round; stroke-width:0.25;"/>
<line x1="243.700000" y1="124.000000" x2="247.700000" y2="124.000000"  style="stroke:black; stroke-linecap:round; stroke-width:0.25;"/>
<line x1="243.700000" y1="144.000000" x2="243.700000" y2="156.000000"  style="stroke:black; stroke-linecap:round; stroke-width:0.25;"/>
<line x1="243.700000" y1="156.000000" x2="243.700000" y2="156.000000"  style="stroke:black; stroke-linecap:round; stroke-width:0.25;"/>
<line x1="243.700000" y1="156.000000" x2="247.700000" y2="156.000000"  style="stroke:black; stroke-linecap:round; stroke-width:0.25;"/>
<line x1="243.700000" y1="164.000000" x2="247.700000" y2="164.000000"  style="stroke:black; stroke-linecap:round; stroke-width:0.25;"/>
<line x1="243.700000" y1="184.000000" x2="243.700000" y2="196.000000"  style="stroke:black; stroke-linecap:round; stroke-width:0.25;"/>
<line x1="243.700000" y1="196.000000" x2="243.700000" y2="196.000000"  style="stroke:black; stroke-linecap:round; stroke-width:0.25;"/>
<line x1="243.700000" y1="196.000000" x2="247.700000" y2="196.000000"  style="stroke:black; stroke-linecap:round; stroke-width:0.25;"/>
<line x1="243.700000" y1="204.000000" x2="247.700000" y2="204.000000"  style="stroke:black; stroke-linecap:round; stroke-width:0.25;"/>
<line x1="271.700000" y1="40.000000" x2="275.700000" y2="40.000000"  style="stroke:black; stroke-linecap:round; stroke-width:0.25;"/>
<line x1="271.700000" y1="80.000000" x2="275.700000" y2="80.000000"  style="stroke:black; stroke-linecap:round; stroke-width:0.25;"/>
<line x1="271.700000" y1="120.000000" x2="275.700000" y2="120.000000"  style="stroke:black; stroke-linecap:round; stroke-width:0.25;"/>
<line x1="271.700000" y1="160.000000" x2="275.700000" y2="160.000000"  style="stroke:black; stroke-linecap:round; stroke-width:0.25;"/>
<line x1="271.700000" y1="200.000000" x2="275.700000" y2="200.000000"  style="stroke:black; stroke-linecap:round; stroke-width:0.25;"/>
<line x1="275.700000" y1="40.000000" x2="343.700000" y2="88.000000"  style="stroke:black; stroke-linecap:round; stroke-width:0.25;"/>
<line x1="275.700000" y1="80.000000" x2="343.700000" y2="88.000000"  style="stroke:black; stroke-linecap:round; stroke-width:0.25;"/>
<line x1="275.700000" y1="120.000000" x2="343.700000" y2="88.000000"  style="stroke:black; stroke-linecap:round; stroke-width:0.25;"/>
<line x1="275.700000" y1="160.000000" x2="343.700000" y2="88.000000"  style="stroke:black; stroke-linecap:round; stroke-width:0.25;"/>
<line x1="275.700000" y1="200.000000" x2="343.700000" y2="88.000000"  style="stroke:black; stroke-linecap:round; stroke-width:0.25;"/>
<line x1="343.700000" y1="88.000000" x2="373.500000" y2="88.000000"  style="stroke:black; stroke-linecap:round; stroke-width:0.25;"/>
<line x1="373.500000" y1="88.000000" x2="403.300000" y2="88.000000"  style="stroke:black; stroke-linecap:round; stroke-width:0.25;"/>
<line x1="388.600000" y1="140.000000" x2="392.600000" y2="140.000000"  style="stroke:black; stroke-linecap:round; stroke-width:0.25;"/>
<line x1="392.600000" y1="140.000000" x2="392.600000" y2="140.000000"  style="stroke:black; stroke-linecap:round; stroke-width:0.25;"/>
<line x1="392.600000" y1="140.000000" x2="396.600000" y2="140.000000"  style="stroke:black; stroke-linecap:round; stroke-width:0.25;"/>
<line x1="399.300000" y1="108.000000" x2="403.300000" y2="108.000000"  style="stroke:black; stroke-linecap:round; stroke-width:0.25;"/>
<line x1="403.300000" y1="108.000000" x2="411.300000" y2="108.000000"  style="stroke:black; stroke-linecap:round; stroke-width:0.25;"/>
<line x1="403.300000" y1="88.000000" x2="411.300000" y2="88.000000"  style="stroke:black; stroke-linecap:round; stroke-width:0.25;"/>
<line x1="411.300000" y1="100.000000" x2="415.300000" y2="100.000000"  style="stroke:black; stroke-linecap:round; stroke-width:0.25;"/>
<line x1="411.300000" y1="108.000000" x2="415.300000" y2="108.000000"  style="stroke:black; stroke-linecap:round; stroke-width:0.25;"/>
<line x1="411.300000" y1="88.000000" x2="411.300000" y2="100.000000"  style="stroke:black; stroke-linecap:round; stroke-width:0.25;"/>
<line x1="411.300000" y1="100.000000" x2="411.300000" y2="100.000000"  style="stroke:black; stroke-linecap:round; stroke-width:0.25;"/>
<line x1="422.400000" y1="140.000000" x2="426.400000" y2="140.000000"  style="stroke:black; stroke-linecap:round; stroke-width:0.25;"/>
<line x1="426.400000" y1="140.000000" x2="443.300000" y2="140.000000"  style="stroke:black; stroke-linecap:round; stroke-width:0.25;"/>
<line x1="439.300000" y1="104.000000" x2="443.300000" y2="104.000000"  style="stroke:black; stroke-linecap:round; stroke-width:0.25;"/>
<line x1="443.300000" y1="104.000000" x2="451.300000" y2="104.000000"  style="stroke:black; stroke-linecap:round; stroke-width:0.25;"/>
<line x1="443.300000" y1="124.000000" x2="451.300000" y2="124.000000"  style="stroke:black; stroke-linecap:round; stroke-width:0.25;"/>
<line x1="443.300000" y1="140.000000" x2="443.300000" y2="124.000000"  style="stroke:black; stroke-linecap:round; stroke-width:0.25;"/>
<line x1="443.300000" y1="140.000000" x2="443.300000" y2="140.000000"  style="stroke:black; stroke-linecap:round; stroke-width:0.25;"/>
<line x1="451.300000" y1="104.000000" x2="451.300000" y2="116.000000"  style="stroke:black; stroke-linecap:round; stroke-width:0.25;"/>
<line x1="451.300000" y1="116.000000" x2="451.300000" y2="116.000000"  style="stroke:black; stroke-linecap:round; stroke-width:0.25;"/>
<line x1="451.300000" y1="116.000000" x2="455.300000" y2="116.000000"  style="stroke:black; stroke-linecap:round; stroke-width:0.25;"/>
<line x1="451.300000" y1="124.000000" x2="455.300000" y2="124.000000"  style="stroke:black; stroke-linecap:round; stroke-width:0.25;"/>
<line x1="479.300000" y1="120.000000" x2="483.300000" y2="120.000000"  style="stroke:black; stroke-linecap:round; stroke-width:0.25;"/>
<line x1="483.300000" y1="120.000000" x2="483.300000" y2="120.000000"  style="stroke:black; stroke-linecap:round; stroke-width:0.25;"/>
<line x1="483.300000" y1="120.000000" x2="487.300000" y2="120.000000"  style="stroke:black; stroke-linecap:round; stroke-width:0.25;"/>
<line x1="487.300000" y1="120.000000" x2="491.300000" y2="120.000000"  style="stroke:black; stroke-linecap:round; stroke-width:0.25;"/>
<line x1="491.300000" y1="120.000000" x2="501.300000" y2="120.000000"  style="stroke:black; stroke-linecap:round; stroke-width:0.25;"/>
</svg>
