<?xml version="1.0"?>
<svg xmlns="http://www.w3.org/2000/svg" xmlns:xlink="http://www.w3.org/1999/xlink" viewBox="0 0 280.500000 216.000000" width="140.250000mm" height="108.000000mm" version="1.1">
<a xlink:href="filter-0x7facb6b6b380.svg">
<rect x="1.000000" y="1.000000" width="279.500000" height="215.000000" rx="0" ry="0" style="stroke:none;fill:#cccccc;"/>
<rect x="0.000000" y="0.000000" width="279.500000" height="215.000000" rx="0" ry="0" style="stroke:none;fill:#ffffff;"/>
</a>
<text x="10.000000" y="7.000000" font-family="Arial" font-size="7"></text>
<rect x="105.250000" y="25.000000" width="24.000000" height="24.000000" rx="0" ry="0" style="stroke:none;fill:#cccccc;"/>
<rect x="104.250000" y="24.000000" width="24.000000" height="24.000000" rx="0" ry="0" style="stroke:none;fill:#f44800;"/>
<text x="116.250000" y="38.000000" font-family="Arial" font-size="7" text-anchor="middle" fill="#FFFFFF">1</text>
<circle cx="106.250000" cy="26.000000" r="1"/>
<rect x="85.250000" y="57.000000" width="24.000000" height="24.000000" rx="0" ry="0" style="stroke:none;fill:#cccccc;"/>
<rect x="84.250000" y="56.000000" width="24.000000" height="24.000000" rx="0" ry="0" style="stroke:none;fill:#f44800;"/>
<text x="96.250000" y="70.000000" font-family="Arial" font-size="7" text-anchor="middle" fill="#FFFFFF">0.5</text>
<circle cx="86.250000" cy="58.000000" r="1"/>
<rect x="65.000000" y="129.000000" width="64.500000" height="24.000000" rx="0" ry="0" style="stroke:none;fill:#cccccc;"/>
<rect x="64.000000" y="128.000000" width="64.500000" height="24.000000" rx="0" ry="0" style="stroke:none;fill:#477881;"/>
<text x="96.250000" y="142.000000" font-family="Arial" font-size="7" text-anchor="middle" fill="#FFFFFF">button(Quench)</text>
<circle cx="66.000000" cy="130.000000" r="1"/>
<line x1="55.000000" y1="119.000000" x2="55.000000" y2="161.000000"  style="stroke: black; stroke-linecap:round; stroke-width:0.25; stroke-dasharray:3,3;"/>
<line x1="55.000000" y1="161.000000" x2="137.500000" y2="161.000000"  style="stroke: black; stroke-linecap:round; stroke-width:0.25; stroke-dasharray:3,3;"/>
<line x1="137.500000" y1="161.000000" x2="137.500000" y2="119.000000"  style="stroke: black; stroke-linecap:round; stroke-width:0.25; stroke-dasharray:3,3;"/>
<line x1="55.000000" y1="119.000000" x2="60.000000" y2="119.000000"  style="stroke: black; stroke-linecap:round; stroke-width:0.25; stroke-dasharray:3,3;"/>
<line x1="130.950000" y1="119.000000" x2="137.500000" y2="119.000000"  style="stroke: black; stroke-linecap:round; stroke-width:0.25; stroke-dasharray:3,3;"/>
<text x="60.000000" y="121.000000" font-family="Arial" font-size="7">vgroup(Reverb State)</text>
<line x1="45.000000" y1="109.000000" x2="45.000000" y2="171.000000"  style="stroke: black; stroke-linecap:round; stroke-width:0.25; stroke-dasharray:3,3;"/>
<line x1="45.000000" y1="171.000000" x2="147.500000" y2="171.000000"  style="stroke: black; stroke-linecap:round; stroke-width:0.25; stroke-dasharray:3,3;"/>
<line x1="147.500000" y1="171.000000" x2="147.500000" y2="109.000000"  style="stroke: black; stroke-linecap:round; stroke-width:0.25; stroke-dasharray:3,3;"/>
<line x1="45.000000" y1="109.000000" x2="50.000000" y2="109.000000"  style="stroke: black; stroke-linecap:round; stroke-width:0.25; stroke-dasharray:3,3;"/>
<line x1="127.400000" y1="109.000000" x2="147.500000" y2="109.000000"  style="stroke: black; stroke-linecap:round; stroke-width:0.25; stroke-dasharray:3,3;"/>
<text x="50.000000" y="111.000000" font-family="Arial" font-size="7">hgroup(Input Controls)</text>
<line x1="35.000000" y1="99.000000" x2="35.000000" y2="181.000000"  style="stroke: black; stroke-linecap:round; stroke-width:0.25; stroke-dasharray:3,3;"/>
<line x1="35.000000" y1="181.000000" x2="157.500000" y2="181.000000"  style="stroke: black; stroke-linecap:round; stroke-width:0.25; stroke-dasharray:3,3;"/>
<line x1="157.500000" y1="181.000000" x2="157.500000" y2="99.000000"  style="stroke: black; stroke-linecap:round; stroke-width:0.25; stroke-dasharray:3,3;"/>
<line x1="35.000000" y1="99.000000" x2="40.000000" y2="99.000000"  style="stroke: black; stroke-linecap:round; stroke-width:0.25; stroke-dasharray:3,3;"/>
<line x1="157.500000" y1="99.000000" x2="157.500000" y2="99.000000"  style="stroke: black; stroke-linecap:round; stroke-width:0.25; stroke-dasharray:3,3;"/>
<text x="40.000000" y="101.000000" font-family="Arial" font-size="7">vgroup(FEEDBACK DELAY NETWORK (FDN) REVERBERATOR, ORDER 16)</text>
<line x1="25.000000" y1="89.000000" x2="25.000000" y2="191.000000"  style="stroke: black; stroke-linecap:round; stroke-width:0.25; stroke-dasharray:3,3;"/>
<line x1="25.000000" y1="191.000000" x2="167.500000" y2="191.000000"  style="stroke: black; stroke-linecap:round; stroke-width:0.25; stroke-dasharray:3,3;"/>
<line x1="167.500000" y1="191.000000" x2="167.500000" y2="89.000000"  style="stroke: black; stroke-linecap:round; stroke-width:0.25; stroke-dasharray:3,3;"/>
<line x1="25.000000" y1="89.000000" x2="30.000000" y2="89.000000"  style="stroke: black; stroke-linecap:round; stroke-width:0.25; stroke-dasharray:3,3;"/>
<line x1="129.975000" y1="89.000000" x2="167.500000" y2="89.000000"  style="stroke: black; stroke-linecap:round; stroke-width:0.25; stroke-dasharray:3,3;"/>
<text x="30.000000" y="91.000000" font-family="Arial" font-size="7">quench_group(...verberator]))</text>
<rect x="185.500000" y="113.000000" width="24.000000" height="24.000000" rx="0" ry="0" style="stroke:none;fill:#cccccc;"/>
<rect x="184.500000" y="112.000000" width="24.000000" height="24.000000" rx="0" ry="0" style="stroke:none;fill:#4B71A1;"/>
<text x="196.500000" y="126.000000" font-family="Arial" font-size="7" text-anchor="middle" fill="#FFFFFF">*</text>
<circle cx="186.500000" cy="114.000000" r="1"/>
<line x1="181.500000" y1="119.000000" x2="184.500000" y2="120.000000"  transform="rotate(0.000000,184.500000,120.000000)" style="stroke: black; stroke-width:0.25;"/>
<line x1="181.500000" y1="121.000000" x2="184.500000" y2="120.000000"  transform="rotate(0.000000,184.500000,120.000000)" style="stroke: black; stroke-width:0.25;"/>
<line x1="181.500000" y1="127.000000" x2="184.500000" y2="128.000000"  transform="rotate(0.000000,184.500000,128.000000)" style="stroke: black; stroke-width:0.25;"/>
<line x1="181.500000" y1="129.000000" x2="184.500000" y2="128.000000"  transform="rotate(0.000000,184.500000,128.000000)" style="stroke: black; stroke-width:0.25;"/>
<rect x="225.500000" y="97.000000" width="24.000000" height="24.000000" rx="0" ry="0" style="stroke:none;fill:#cccccc;"/>
<rect x="224.500000" y="96.000000" width="24.000000" height="24.000000" rx="0" ry="0" style="stroke:none;fill:#4B71A1;"/>
<text x="236.500000" y="110.000000" font-family="Arial" font-size="7" text-anchor="middle" fill="#FFFFFF">-</text>
<circle cx="226.500000" cy="98.000000" r="1"/>
<line x1="221.500000" y1="103.000000" x2="224.500000" y2="104.000000"  transform="rotate(0.000000,224.500000,104.000000)" style="stroke: black; stroke-width:0.25;"/>
<line x1="221.500000" y1="105.000000" x2="224.500000" y2="104.000000"  transform="rotate(0.000000,224.500000,104.000000)" style="stroke: black; stroke-width:0.25;"/>
<line x1="221.500000" y1="111.000000" x2="224.500000" y2="112.000000"  transform="rotate(0.000000,224.500000,112.000000)" style="stroke: black; stroke-width:0.25;"/>
<line x1="221.500000" y1="113.000000" x2="224.500000" y2="112.000000"  transform="rotate(0.000000,224.500000,112.000000)" style="stroke: black; stroke-width:0.25;"/>
<line x1="15.000000" y1="15.000000" x2="15.000000" y2="201.000000"  style="stroke: black; stroke-linecap:round; stroke-width:0.25; stroke-dasharray:3,3;"/>
<line x1="15.000000" y1="201.000000" x2="265.500000" y2="201.000000"  style="stroke: black; stroke-linecap:round; stroke-width:0.25; stroke-dasharray:3,3;"/>
<line x1="265.500000" y1="201.000000" x2="265.500000" y2="15.000000"  style="stroke: black; stroke-linecap:round; stroke-width:0.25; stroke-dasharray:3,3;"/>
<line x1="15.000000" y1="15.000000" x2="20.000000" y2="15.000000"  style="stroke: black; stroke-linecap:round; stroke-width:0.25; stroke-dasharray:3,3;"/>
<line x1="61.925000" y1="15.000000" x2="265.500000" y2="15.000000"  style="stroke: black; stroke-linecap:round; stroke-width:0.25; stroke-dasharray:3,3;"/>
<text x="20.000000" y="17.000000" font-family="Arial" font-size="7">loopgainmax</text>
<line x1="267.500000" y1="107.000000" x2="270.500000" y2="108.000000"  transform="rotate(0.000000,270.500000,108.000000)" style="stroke: black; stroke-width:0.25;"/>
<line x1="267.500000" y1="109.000000" x2="270.500000" y2="108.000000"  transform="rotate(0.000000,270.500000,108.000000)" style="stroke: black; stroke-width:0.25;"/>
<line x1="108.250000" y1="68.000000" x2="112.250000" y2="68.000000"  style="stroke:black; stroke-linecap:round; stroke-width:0.25;"/>
<line x1="112.250000" y1="68.000000" x2="172.500000" y2="68.000000"  style="stroke:black; stroke-linecap:round; stroke-width:0.25;"/>
<line x1="128.250000" y1="36.000000" x2="132.250000" y2="36.000000"  style="stroke:black; stroke-linecap:round; stroke-width:0.25;"/>
<line x1="128.500000" y1="140.000000" x2="132.500000" y2="140.000000"  style="stroke:black; stroke-linecap:round; stroke-width:0.25;"/>
<line x1="132.250000" y1="36.000000" x2="212.500000" y2="36.000000"  style="stroke:black; stroke-linecap:round; stroke-width:0.25;"/>
<line x1="132.500000" y1="140.000000" x2="142.500000" y2="140.000000"  style="stroke:black; stroke-linecap:round; stroke-width:0.25;"/>
<line x1="142.500000" y1="140.000000" x2="152.500000" y2="140.000000"  style="stroke:black; stroke-linecap:round; stroke-width:0.25;"/>
<line x1="152.500000" y1="140.000000" x2="162.500000" y2="140.000000"  style="stroke:black; stroke-linecap:round; stroke-width:0.25;"/>
<line x1="162.500000" y1="140.000000" x2="172.500000" y2="140.000000"  style="stroke:black; stroke-linecap:round; stroke-width:0.25;"/>
<line x1="172.500000" y1="68.000000" x2="180.500000" y2="68.000000"  style="stroke:black; stroke-linecap:round; stroke-width:0.25;"/>
<line x1="172.500000" y1="128.000000" x2="180.500000" y2="128.000000"  style="stroke:black; stroke-linecap:round; stroke-width:0.25;"/>
<line x1="172.500000" y1="140.000000" x2="172.500000" y2="128.000000"  style="stroke:black; stroke-linecap:round; stroke-width:0.25;"/>
<line x1="172.500000" y1="140.000000" x2="172.500000" y2="140.000000"  style="stroke:black; stroke-linecap:round; stroke-width:0.25;"/>
<line x1="180.500000" y1="68.000000" x2="180.500000" y2="120.000000"  style="stroke:black; stroke-linecap:round; stroke-width:0.25;"/>
<line x1="180.500000" y1="120.000000" x2="180.500000" y2="120.000000"  style="stroke:black; stroke-linecap:round; stroke-width:0.25;"/>
<line x1="180.500000" y1="120.000000" x2="184.500000" y2="120.000000"  style="stroke:black; stroke-linecap:round; stroke-width:0.25;"/>
<line x1="180.500000" y1="128.000000" x2="184.500000" y2="128.000000"  style="stroke:black; stroke-linecap:round; stroke-width:0.25;"/>
<line x1="208.500000" y1="124.000000" x2="212.500000" y2="124.000000"  style="stroke:black; stroke-linecap:round; stroke-width:0.25;"/>
<line x1="212.500000" y1="36.000000" x2="220.500000" y2="36.000000"  style="stroke:black; stroke-linecap:round; stroke-width:0.25;"/>
<line x1="212.500000" y1="112.000000" x2="220.500000" y2="112.000000"  style="stroke:black; stroke-linecap:round; stroke-width:0.25;"/>
<line x1="212.500000" y1="124.000000" x2="212.500000" y2="112.000000"  style="stroke:black; stroke-linecap:round; stroke-width:0.25;"/>
<line x1="212.500000" y1="124.000000" x2="212.500000" y2="124.000000"  style="stroke:black; stroke-linecap:round; stroke-width:0.25;"/>
<line x1="220.500000" y1="36.000000" x2="220.500000" y2="104.000000"  style="stroke:black; stroke-linecap:round; stroke-width:0.25;"/>
<line x1="220.500000" y1="104.000000" x2="220.500000" y2="104.000000"  style="stroke:black; stroke-linecap:round; stroke-width:0.25;"/>
<line x1="220.500000" y1="104.000000" x2="224.500000" y2="104.000000"  style="stroke:black; stroke-linecap:round; stroke-width:0.25;"/>
<line x1="220.500000" y1="112.000000" x2="224.500000" y2="112.000000"  style="stroke:black; stroke-linecap:round; stroke-width:0.25;"/>
<line x1="248.500000" y1="108.000000" x2="252.500000" y2="108.000000"  style="stroke:black; stroke-linecap:round; stroke-width:0.25;"/>
<line x1="252.500000" y1="108.000000" x2="252.500000" y2="108.000000"  style="stroke:black; stroke-linecap:round; stroke-width:0.25;"/>
<line x1="252.500000" y1="108.000000" x2="256.500000" y2="108.000000"  style="stroke:black; stroke-linecap:round; stroke-width:0.25;"/>
<line x1="256.500000" y1="108.000000" x2="260.500000" y2="108.000000"  style="stroke:black; stroke-linecap:round; stroke-width:0.25;"/>
<line x1="260.500000" y1="108.000000" x2="270.500000" y2="108.000000"  style="stroke:black; stroke-linecap:round; stroke-width:0.25;"/>
</svg>
