<?xml version="1.0"?>
<svg xmlns="http://www.w3.org/2000/svg" xmlns:xlink="http://www.w3.org/1999/xlink" viewBox="0 0 520.000000 424.000000" width="260.000000mm" height="212.000000mm" version="1.1">
<a xlink:href="filter-0x7facb6b6b380.svg">
<rect x="1.000000" y="1.000000" width="519.000000" height="423.000000" rx="0" ry="0" style="stroke:none;fill:#cccccc;"/>
<rect x="0.000000" y="0.000000" width="519.000000" height="423.000000" rx="0" ry="0" style="stroke:none;fill:#ffffff;"/>
</a>
<text x="10.000000" y="7.000000" font-family="Arial" font-size="7"></text>
<rect x="225.000000" y="25.000000" width="24.000000" height="24.000000" rx="0" ry="0" style="stroke:none;fill:#cccccc;"/>
<rect x="224.000000" y="24.000000" width="24.000000" height="24.000000" rx="0" ry="0" style="stroke:none;fill:#f44800;"/>
<text x="236.000000" y="38.000000" font-family="Arial" font-size="7" text-anchor="middle" fill="#FFFFFF">1</text>
<circle cx="226.000000" cy="26.000000" r="1"/>
<rect x="205.000000" y="57.000000" width="24.000000" height="24.000000" rx="0" ry="0" style="stroke:none;fill:#cccccc;"/>
<rect x="204.000000" y="56.000000" width="24.000000" height="24.000000" rx="0" ry="0" style="stroke:none;fill:#f44800;"/>
<text x="216.000000" y="70.000000" font-family="Arial" font-size="7" text-anchor="middle" fill="#FFFFFF">1</text>
<circle cx="206.000000" cy="58.000000" r="1"/>
<rect x="185.000000" y="89.000000" width="24.000000" height="24.000000" rx="0" ry="0" style="stroke:none;fill:#cccccc;"/>
<rect x="184.000000" y="88.000000" width="24.000000" height="24.000000" rx="0" ry="0" style="stroke:none;fill:#f44800;"/>
<text x="196.000000" y="102.000000" font-family="Arial" font-size="7" text-anchor="middle" fill="#FFFFFF">1</text>
<circle cx="186.000000" cy="90.000000" r="1"/>
<rect x="165.000000" y="121.000000" width="24.000000" height="24.000000" rx="0" ry="0" style="stroke:none;fill:#cccccc;"/>
<rect x="164.000000" y="120.000000" width="24.000000" height="24.000000" rx="0" ry="0" style="stroke:none;fill:#f44800;"/>
<text x="176.000000" y="134.000000" font-family="Arial" font-size="7" text-anchor="middle" fill="#FFFFFF">1</text>
<circle cx="166.000000" cy="122.000000" r="1"/>
<rect x="145.000000" y="153.000000" width="24.000000" height="24.000000" rx="0" ry="0" style="stroke:none;fill:#cccccc;"/>
<rect x="144.000000" y="152.000000" width="24.000000" height="24.000000" rx="0" ry="0" style="stroke:none;fill:#f44800;"/>
<text x="156.000000" y="166.000000" font-family="Arial" font-size="7" text-anchor="middle" fill="#FFFFFF">1</text>
<circle cx="146.000000" cy="154.000000" r="1"/>
<rect x="125.000000" y="185.000000" width="24.000000" height="24.000000" rx="0" ry="0" style="stroke:none;fill:#cccccc;"/>
<rect x="124.000000" y="184.000000" width="24.000000" height="24.000000" rx="0" ry="0" style="stroke:none;fill:#f44800;"/>
<text x="136.000000" y="198.000000" font-family="Arial" font-size="7" text-anchor="middle" fill="#FFFFFF">1</text>
<circle cx="126.000000" cy="186.000000" r="1"/>
<rect x="105.000000" y="217.000000" width="24.000000" height="24.000000" rx="0" ry="0" style="stroke:none;fill:#cccccc;"/>
<rect x="104.000000" y="216.000000" width="24.000000" height="24.000000" rx="0" ry="0" style="stroke:none;fill:#f44800;"/>
<text x="116.000000" y="230.000000" font-family="Arial" font-size="7" text-anchor="middle" fill="#FFFFFF">1</text>
<circle cx="106.000000" cy="218.000000" r="1"/>
<rect x="85.000000" y="249.000000" width="24.000000" height="24.000000" rx="0" ry="0" style="stroke:none;fill:#cccccc;"/>
<rect x="84.000000" y="248.000000" width="24.000000" height="24.000000" rx="0" ry="0" style="stroke:none;fill:#f44800;"/>
<text x="96.000000" y="262.000000" font-family="Arial" font-size="7" text-anchor="middle" fill="#FFFFFF">1</text>
<circle cx="86.000000" cy="250.000000" r="1"/>
<rect x="65.000000" y="281.000000" width="24.000000" height="24.000000" rx="0" ry="0" style="stroke:none;fill:#cccccc;"/>
<rect x="64.000000" y="280.000000" width="24.000000" height="24.000000" rx="0" ry="0" style="stroke:none;fill:#f44800;"/>
<text x="76.000000" y="294.000000" font-family="Arial" font-size="7" text-anchor="middle" fill="#FFFFFF">1</text>
<circle cx="66.000000" cy="282.000000" r="1"/>
<rect x="45.000000" y="313.000000" width="24.000000" height="24.000000" rx="0" ry="0" style="stroke:none;fill:#cccccc;"/>
<rect x="44.000000" y="312.000000" width="24.000000" height="24.000000" rx="0" ry="0" style="stroke:none;fill:#f44800;"/>
<text x="56.000000" y="326.000000" font-family="Arial" font-size="7" text-anchor="middle" fill="#FFFFFF">1</text>
<circle cx="46.000000" cy="314.000000" r="1"/>
<rect x="25.000000" y="345.000000" width="24.000000" height="24.000000" rx="0" ry="0" style="stroke:none;fill:#cccccc;"/>
<rect x="24.000000" y="344.000000" width="24.000000" height="24.000000" rx="0" ry="0" style="stroke:none;fill:#f44800;"/>
<text x="36.000000" y="358.000000" font-family="Arial" font-size="7" text-anchor="middle" fill="#FFFFFF">1</text>
<circle cx="26.000000" cy="346.000000" r="1"/>
<a xlink:href="NB-0x7facb1e383e0.svg">
<rect x="25.000000" y="377.000000" width="24.000000" height="24.000000" rx="0" ry="0" style="stroke:none;fill:#cccccc;"/>
<rect x="24.000000" y="376.000000" width="24.000000" height="24.000000" rx="0" ry="0" style="stroke:none;fill:#003366;"/>
</a>
<a xlink:href="NB-0x7facb1e383e0.svg">
<text x="36.000000" y="390.000000" font-family="Arial" font-size="7" text-anchor="middle" fill="#FFFFFF">NB</text>
</a>
<circle cx="26.000000" cy="378.000000" r="1"/>
<rect x="65.000000" y="361.000000" width="24.000000" height="24.000000" rx="0" ry="0" style="stroke:none;fill:#cccccc;"/>
<rect x="64.000000" y="360.000000" width="24.000000" height="24.000000" rx="0" ry="0" style="stroke:none;fill:#4B71A1;"/>
<text x="76.000000" y="374.000000" font-family="Arial" font-size="7" text-anchor="middle" fill="#FFFFFF">+</text>
<circle cx="66.000000" cy="362.000000" r="1"/>
<line x1="61.000000" y1="367.000000" x2="64.000000" y2="368.000000"  transform="rotate(0.000000,64.000000,368.000000)" style="stroke: black; stroke-width:0.25;"/>
<line x1="61.000000" y1="369.000000" x2="64.000000" y2="368.000000"  transform="rotate(0.000000,64.000000,368.000000)" style="stroke: black; stroke-width:0.25;"/>
<line x1="61.000000" y1="375.000000" x2="64.000000" y2="376.000000"  transform="rotate(0.000000,64.000000,376.000000)" style="stroke: black; stroke-width:0.25;"/>
<line x1="61.000000" y1="377.000000" x2="64.000000" y2="376.000000"  transform="rotate(0.000000,64.000000,376.000000)" style="stroke: black; stroke-width:0.25;"/>
<rect x="105.000000" y="345.000000" width="24.000000" height="24.000000" rx="0" ry="0" style="stroke:none;fill:#cccccc;"/>
<rect x="104.000000" y="344.000000" width="24.000000" height="24.000000" rx="0" ry="0" style="stroke:none;fill:#4B71A1;"/>
<text x="116.000000" y="358.000000" font-family="Arial" font-size="7" text-anchor="middle" fill="#FFFFFF">+</text>
<circle cx="106.000000" cy="346.000000" r="1"/>
<line x1="101.000000" y1="351.000000" x2="104.000000" y2="352.000000"  transform="rotate(0.000000,104.000000,352.000000)" style="stroke: black; stroke-width:0.25;"/>
<line x1="101.000000" y1="353.000000" x2="104.000000" y2="352.000000"  transform="rotate(0.000000,104.000000,352.000000)" style="stroke: black; stroke-width:0.25;"/>
<line x1="101.000000" y1="359.000000" x2="104.000000" y2="360.000000"  transform="rotate(0.000000,104.000000,360.000000)" style="stroke: black; stroke-width:0.25;"/>
<line x1="101.000000" y1="361.000000" x2="104.000000" y2="360.000000"  transform="rotate(0.000000,104.000000,360.000000)" style="stroke: black; stroke-width:0.25;"/>
<rect x="145.000000" y="329.000000" width="24.000000" height="24.000000" rx="0" ry="0" style="stroke:none;fill:#cccccc;"/>
<rect x="144.000000" y="328.000000" width="24.000000" height="24.000000" rx="0" ry="0" style="stroke:none;fill:#4B71A1;"/>
<text x="156.000000" y="342.000000" font-family="Arial" font-size="7" text-anchor="middle" fill="#FFFFFF">+</text>
<circle cx="146.000000" cy="330.000000" r="1"/>
<line x1="141.000000" y1="335.000000" x2="144.000000" y2="336.000000"  transform="rotate(0.000000,144.000000,336.000000)" style="stroke: black; stroke-width:0.25;"/>
<line x1="141.000000" y1="337.000000" x2="144.000000" y2="336.000000"  transform="rotate(0.000000,144.000000,336.000000)" style="stroke: black; stroke-width:0.25;"/>
<line x1="141.000000" y1="343.000000" x2="144.000000" y2="344.000000"  transform="rotate(0.000000,144.000000,344.000000)" style="stroke: black; stroke-width:0.25;"/>
<line x1="141.000000" y1="345.000000" x2="144.000000" y2="344.000000"  transform="rotate(0.000000,144.000000,344.000000)" style="stroke: black; stroke-width:0.25;"/>
<rect x="185.000000" y="313.000000" width="24.000000" height="24.000000" rx="0" ry="0" style="stroke:none;fill:#cccccc;"/>
<rect x="184.000000" y="312.000000" width="24.000000" height="24.000000" rx="0" ry="0" style="stroke:none;fill:#4B71A1;"/>
<text x="196.000000" y="326.000000" font-family="Arial" font-size="7" text-anchor="middle" fill="#FFFFFF">+</text>
<circle cx="186.000000" cy="314.000000" r="1"/>
<line x1="181.000000" y1="319.000000" x2="184.000000" y2="320.000000"  transform="rotate(0.000000,184.000000,320.000000)" style="stroke: black; stroke-width:0.25;"/>
<line x1="181.000000" y1="321.000000" x2="184.000000" y2="320.000000"  transform="rotate(0.000000,184.000000,320.000000)" style="stroke: black; stroke-width:0.25;"/>
<line x1="181.000000" y1="327.000000" x2="184.000000" y2="328.000000"  transform="rotate(0.000000,184.000000,328.000000)" style="stroke: black; stroke-width:0.25;"/>
<line x1="181.000000" y1="329.000000" x2="184.000000" y2="328.000000"  transform="rotate(0.000000,184.000000,328.000000)" style="stroke: black; stroke-width:0.25;"/>
<rect x="225.000000" y="297.000000" width="24.000000" height="24.000000" rx="0" ry="0" style="stroke:none;fill:#cccccc;"/>
<rect x="224.000000" y="296.000000" width="24.000000" height="24.000000" rx="0" ry="0" style="stroke:none;fill:#4B71A1;"/>
<text x="236.000000" y="310.000000" font-family="Arial" font-size="7" text-anchor="middle" fill="#FFFFFF">+</text>
<circle cx="226.000000" cy="298.000000" r="1"/>
<line x1="221.000000" y1="303.000000" x2="224.000000" y2="304.000000"  transform="rotate(0.000000,224.000000,304.000000)" style="stroke: black; stroke-width:0.25;"/>
<line x1="221.000000" y1="305.000000" x2="224.000000" y2="304.000000"  transform="rotate(0.000000,224.000000,304.000000)" style="stroke: black; stroke-width:0.25;"/>
<line x1="221.000000" y1="311.000000" x2="224.000000" y2="312.000000"  transform="rotate(0.000000,224.000000,312.000000)" style="stroke: black; stroke-width:0.25;"/>
<line x1="221.000000" y1="313.000000" x2="224.000000" y2="312.000000"  transform="rotate(0.000000,224.000000,312.000000)" style="stroke: black; stroke-width:0.25;"/>
<rect x="265.000000" y="281.000000" width="24.000000" height="24.000000" rx="0" ry="0" style="stroke:none;fill:#cccccc;"/>
<rect x="264.000000" y="280.000000" width="24.000000" height="24.000000" rx="0" ry="0" style="stroke:none;fill:#4B71A1;"/>
<text x="276.000000" y="294.000000" font-family="Arial" font-size="7" text-anchor="middle" fill="#FFFFFF">+</text>
<circle cx="266.000000" cy="282.000000" r="1"/>
<line x1="261.000000" y1="287.000000" x2="264.000000" y2="288.000000"  transform="rotate(0.000000,264.000000,288.000000)" style="stroke: black; stroke-width:0.25;"/>
<line x1="261.000000" y1="289.000000" x2="264.000000" y2="288.000000"  transform="rotate(0.000000,264.000000,288.000000)" style="stroke: black; stroke-width:0.25;"/>
<line x1="261.000000" y1="295.000000" x2="264.000000" y2="296.000000"  transform="rotate(0.000000,264.000000,296.000000)" style="stroke: black; stroke-width:0.25;"/>
<line x1="261.000000" y1="297.000000" x2="264.000000" y2="296.000000"  transform="rotate(0.000000,264.000000,296.000000)" style="stroke: black; stroke-width:0.25;"/>
<rect x="305.000000" y="265.000000" width="24.000000" height="24.000000" rx="0" ry="0" style="stroke:none;fill:#cccccc;"/>
<rect x="304.000000" y="264.000000" width="24.000000" height="24.000000" rx="0" ry="0" style="stroke:none;fill:#4B71A1;"/>
<text x="316.000000" y="278.000000" font-family="Arial" font-size="7" text-anchor="middle" fill="#FFFFFF">+</text>
<circle cx="306.000000" cy="266.000000" r="1"/>
<line x1="301.000000" y1="271.000000" x2="304.000000" y2="272.000000"  transform="rotate(0.000000,304.000000,272.000000)" style="stroke: black; stroke-width:0.25;"/>
<line x1="301.000000" y1="273.000000" x2="304.000000" y2="272.000000"  transform="rotate(0.000000,304.000000,272.000000)" style="stroke: black; stroke-width:0.25;"/>
<line x1="301.000000" y1="279.000000" x2="304.000000" y2="280.000000"  transform="rotate(0.000000,304.000000,280.000000)" style="stroke: black; stroke-width:0.25;"/>
<line x1="301.000000" y1="281.000000" x2="304.000000" y2="280.000000"  transform="rotate(0.000000,304.000000,280.000000)" style="stroke: black; stroke-width:0.25;"/>
<rect x="345.000000" y="249.000000" width="24.000000" height="24.000000" rx="0" ry="0" style="stroke:none;fill:#cccccc;"/>
<rect x="344.000000" y="248.000000" width="24.000000" height="24.000000" rx="0" ry="0" style="stroke:none;fill:#4B71A1;"/>
<text x="356.000000" y="262.000000" font-family="Arial" font-size="7" text-anchor="middle" fill="#FFFFFF">+</text>
<circle cx="346.000000" cy="250.000000" r="1"/>
<line x1="341.000000" y1="255.000000" x2="344.000000" y2="256.000000"  transform="rotate(0.000000,344.000000,256.000000)" style="stroke: black; stroke-width:0.25;"/>
<line x1="341.000000" y1="257.000000" x2="344.000000" y2="256.000000"  transform="rotate(0.000000,344.000000,256.000000)" style="stroke: black; stroke-width:0.25;"/>
<line x1="341.000000" y1="263.000000" x2="344.000000" y2="264.000000"  transform="rotate(0.000000,344.000000,264.000000)" style="stroke: black; stroke-width:0.25;"/>
<line x1="341.000000" y1="265.000000" x2="344.000000" y2="264.000000"  transform="rotate(0.000000,344.000000,264.000000)" style="stroke: black; stroke-width:0.25;"/>
<rect x="385.000000" y="233.000000" width="24.000000" height="24.000000" rx="0" ry="0" style="stroke:none;fill:#cccccc;"/>
<rect x="384.000000" y="232.000000" width="24.000000" height="24.000000" rx="0" ry="0" style="stroke:none;fill:#4B71A1;"/>
<text x="396.000000" y="246.000000" font-family="Arial" font-size="7" text-anchor="middle" fill="#FFFFFF">+</text>
<circle cx="386.000000" cy="234.000000" r="1"/>
<line x1="381.000000" y1="239.000000" x2="384.000000" y2="240.000000"  transform="rotate(0.000000,384.000000,240.000000)" style="stroke: black; stroke-width:0.25;"/>
<line x1="381.000000" y1="241.000000" x2="384.000000" y2="240.000000"  transform="rotate(0.000000,384.000000,240.000000)" style="stroke: black; stroke-width:0.25;"/>
<line x1="381.000000" y1="247.000000" x2="384.000000" y2="248.000000"  transform="rotate(0.000000,384.000000,248.000000)" style="stroke: black; stroke-width:0.25;"/>
<line x1="381.000000" y1="249.000000" x2="384.000000" y2="248.000000"  transform="rotate(0.000000,384.000000,248.000000)" style="stroke: black; stroke-width:0.25;"/>
<rect x="425.000000" y="217.000000" width="24.000000" height="24.000000" rx="0" ry="0" style="stroke:none;fill:#cccccc;"/>
<rect x="424.000000" y="216.000000" width="24.000000" height="24.000000" rx="0" ry="0" style="stroke:none;fill:#4B71A1;"/>
<text x="436.000000" y="230.000000" font-family="Arial" font-size="7" text-anchor="middle" fill="#FFFFFF">+</text>
<circle cx="426.000000" cy="218.000000" r="1"/>
<line x1="421.000000" y1="223.000000" x2="424.000000" y2="224.000000"  transform="rotate(0.000000,424.000000,224.000000)" style="stroke: black; stroke-width:0.25;"/>
<line x1="421.000000" y1="225.000000" x2="424.000000" y2="224.000000"  transform="rotate(0.000000,424.000000,224.000000)" style="stroke: black; stroke-width:0.25;"/>
<line x1="421.000000" y1="231.000000" x2="424.000000" y2="232.000000"  transform="rotate(0.000000,424.000000,232.000000)" style="stroke: black; stroke-width:0.25;"/>
<line x1="421.000000" y1="233.000000" x2="424.000000" y2="232.000000"  transform="rotate(0.000000,424.000000,232.000000)" style="stroke: black; stroke-width:0.25;"/>
<rect x="465.000000" y="201.000000" width="24.000000" height="24.000000" rx="0" ry="0" style="stroke:none;fill:#cccccc;"/>
<rect x="464.000000" y="200.000000" width="24.000000" height="24.000000" rx="0" ry="0" style="stroke:none;fill:#4B71A1;"/>
<text x="476.000000" y="214.000000" font-family="Arial" font-size="7" text-anchor="middle" fill="#FFFFFF">+</text>
<circle cx="466.000000" cy="202.000000" r="1"/>
<line x1="461.000000" y1="207.000000" x2="464.000000" y2="208.000000"  transform="rotate(0.000000,464.000000,208.000000)" style="stroke: black; stroke-width:0.25;"/>
<line x1="461.000000" y1="209.000000" x2="464.000000" y2="208.000000"  transform="rotate(0.000000,464.000000,208.000000)" style="stroke: black; stroke-width:0.25;"/>
<line x1="461.000000" y1="215.000000" x2="464.000000" y2="216.000000"  transform="rotate(0.000000,464.000000,216.000000)" style="stroke: black; stroke-width:0.25;"/>
<line x1="461.000000" y1="217.000000" x2="464.000000" y2="216.000000"  transform="rotate(0.000000,464.000000,216.000000)" style="stroke: black; stroke-width:0.25;"/>
<line x1="15.000000" y1="15.000000" x2="15.000000" y2="409.000000"  style="stroke: black; stroke-linecap:round; stroke-width:0.25; stroke-dasharray:3,3;"/>
<line x1="15.000000" y1="409.000000" x2="505.000000" y2="409.000000"  style="stroke: black; stroke-linecap:round; stroke-width:0.25; stroke-dasharray:3,3;"/>
<line x1="505.000000" y1="409.000000" x2="505.000000" y2="15.000000"  style="stroke: black; stroke-linecap:round; stroke-width:0.25; stroke-dasharray:3,3;"/>
<line x1="15.000000" y1="15.000000" x2="20.000000" y2="15.000000"  style="stroke: black; stroke-linecap:round; stroke-width:0.25; stroke-dasharray:3,3;"/>
<line x1="29.675000" y1="15.000000" x2="505.000000" y2="15.000000"  style="stroke: black; stroke-linecap:round; stroke-width:0.25; stroke-dasharray:3,3;"/>
<text x="20.000000" y="17.000000" font-family="Arial" font-size="7">N</text>
<line x1="507.000000" y1="211.000000" x2="510.000000" y2="212.000000"  transform="rotate(0.000000,510.000000,212.000000)" style="stroke: black; stroke-width:0.25;"/>
<line x1="507.000000" y1="213.000000" x2="510.000000" y2="212.000000"  transform="rotate(0.000000,510.000000,212.000000)" style="stroke: black; stroke-width:0.25;"/>
<line x1="48.000000" y1="356.000000" x2="52.000000" y2="356.000000"  style="stroke:black; stroke-linecap:round; stroke-width:0.25;"/>
<line x1="48.000000" y1="388.000000" x2="52.000000" y2="388.000000"  style="stroke:black; stroke-linecap:round; stroke-width:0.25;"/>
<line x1="52.000000" y1="356.000000" x2="60.000000" y2="356.000000"  style="stroke:black; stroke-linecap:round; stroke-width:0.25;"/>
<line x1="52.000000" y1="376.000000" x2="60.000000" y2="376.000000"  style="stroke:black; stroke-linecap:round; stroke-width:0.25;"/>
<line x1="52.000000" y1="388.000000" x2="52.000000" y2="376.000000"  style="stroke:black; stroke-linecap:round; stroke-width:0.25;"/>
<line x1="52.000000" y1="388.000000" x2="52.000000" y2="388.000000"  style="stroke:black; stroke-linecap:round; stroke-width:0.25;"/>
<line x1="60.000000" y1="356.000000" x2="60.000000" y2="368.000000"  style="stroke:black; stroke-linecap:round; stroke-width:0.25;"/>
<line x1="60.000000" y1="368.000000" x2="60.000000" y2="368.000000"  style="stroke:black; stroke-linecap:round; stroke-width:0.25;"/>
<line x1="60.000000" y1="368.000000" x2="64.000000" y2="368.000000"  style="stroke:black; stroke-linecap:round; stroke-width:0.25;"/>
<line x1="60.000000" y1="376.000000" x2="64.000000" y2="376.000000"  style="stroke:black; stroke-linecap:round; stroke-width:0.25;"/>
<line x1="68.000000" y1="324.000000" x2="72.000000" y2="324.000000"  style="stroke:black; stroke-linecap:round; stroke-width:0.25;"/>
<line x1="72.000000" y1="324.000000" x2="92.000000" y2="324.000000"  style="stroke:black; stroke-linecap:round; stroke-width:0.25;"/>
<line x1="88.000000" y1="292.000000" x2="92.000000" y2="292.000000"  style="stroke:black; stroke-linecap:round; stroke-width:0.25;"/>
<line x1="88.000000" y1="372.000000" x2="92.000000" y2="372.000000"  style="stroke:black; stroke-linecap:round; stroke-width:0.25;"/>
<line x1="92.000000" y1="292.000000" x2="132.000000" y2="292.000000"  style="stroke:black; stroke-linecap:round; stroke-width:0.25;"/>
<line x1="92.000000" y1="324.000000" x2="100.000000" y2="324.000000"  style="stroke:black; stroke-linecap:round; stroke-width:0.25;"/>
<line x1="92.000000" y1="360.000000" x2="100.000000" y2="360.000000"  style="stroke:black; stroke-linecap:round; stroke-width:0.25;"/>
<line x1="92.000000" y1="372.000000" x2="92.000000" y2="360.000000"  style="stroke:black; stroke-linecap:round; stroke-width:0.25;"/>
<line x1="92.000000" y1="372.000000" x2="92.000000" y2="372.000000"  style="stroke:black; stroke-linecap:round; stroke-width:0.25;"/>
<line x1="100.000000" y1="324.000000" x2="100.000000" y2="352.000000"  style="stroke:black; stroke-linecap:round; stroke-width:0.25;"/>
<line x1="100.000000" y1="352.000000" x2="100.000000" y2="352.000000"  style="stroke:black; stroke-linecap:round; stroke-width:0.25;"/>
<line x1="100.000000" y1="352.000000" x2="104.000000" y2="352.000000"  style="stroke:black; stroke-linecap:round; stroke-width:0.25;"/>
<line x1="100.000000" y1="360.000000" x2="104.000000" y2="360.000000"  style="stroke:black; stroke-linecap:round; stroke-width:0.25;"/>
<line x1="108.000000" y1="260.000000" x2="112.000000" y2="260.000000"  style="stroke:black; stroke-linecap:round; stroke-width:0.25;"/>
<line x1="112.000000" y1="260.000000" x2="172.000000" y2="260.000000"  style="stroke:black; stroke-linecap:round; stroke-width:0.25;"/>
<line x1="128.000000" y1="228.000000" x2="132.000000" y2="228.000000"  style="stroke:black; stroke-linecap:round; stroke-width:0.25;"/>
<line x1="128.000000" y1="356.000000" x2="132.000000" y2="356.000000"  style="stroke:black; stroke-linecap:round; stroke-width:0.25;"/>
<line x1="132.000000" y1="228.000000" x2="212.000000" y2="228.000000"  style="stroke:black; stroke-linecap:round; stroke-width:0.25;"/>
<line x1="132.000000" y1="292.000000" x2="140.000000" y2="292.000000"  style="stroke:black; stroke-linecap:round; stroke-width:0.25;"/>
<line x1="132.000000" y1="344.000000" x2="140.000000" y2="344.000000"  style="stroke:black; stroke-linecap:round; stroke-width:0.25;"/>
<line x1="132.000000" y1="356.000000" x2="132.000000" y2="344.000000"  style="stroke:black; stroke-linecap:round; stroke-width:0.25;"/>
<line x1="132.000000" y1="356.000000" x2="132.000000" y2="356.000000"  style="stroke:black; stroke-linecap:round; stroke-width:0.25;"/>
<line x1="140.000000" y1="292.000000" x2="140.000000" y2="336.000000"  style="stroke:black; stroke-linecap:round; stroke-width:0.25;"/>
<line x1="140.000000" y1="336.000000" x2="140.000000" y2="336.000000"  style="stroke:black; stroke-linecap:round; stroke-width:0.25;"/>
<line x1="140.000000" y1="336.000000" x2="144.000000" y2="336.000000"  style="stroke:black; stroke-linecap:round; stroke-width:0.25;"/>
<line x1="140.000000" y1="344.000000" x2="144.000000" y2="344.000000"  style="stroke:black; stroke-linecap:round; stroke-width:0.25;"/>
<line x1="148.000000" y1="196.000000" x2="152.000000" y2="196.000000"  style="stroke:black; stroke-linecap:round; stroke-width:0.25;"/>
<line x1="152.000000" y1="196.000000" x2="252.000000" y2="196.000000"  style="stroke:black; stroke-linecap:round; stroke-width:0.25;"/>
<line x1="168.000000" y1="164.000000" x2="172.000000" y2="164.000000"  style="stroke:black; stroke-linecap:round; stroke-width:0.25;"/>
<line x1="168.000000" y1="340.000000" x2="172.000000" y2="340.000000"  style="stroke:black; stroke-linecap:round; stroke-width:0.25;"/>
<line x1="172.000000" y1="164.000000" x2="292.000000" y2="164.000000"  style="stroke:black; stroke-linecap:round; stroke-width:0.25;"/>
<line x1="172.000000" y1="260.000000" x2="180.000000" y2="260.000000"  style="stroke:black; stroke-linecap:round; stroke-width:0.25;"/>
<line x1="172.000000" y1="328.000000" x2="180.000000" y2="328.000000"  style="stroke:black; stroke-linecap:round; stroke-width:0.25;"/>
<line x1="172.000000" y1="340.000000" x2="172.000000" y2="328.000000"  style="stroke:black; stroke-linecap:round; stroke-width:0.25;"/>
<line x1="172.000000" y1="340.000000" x2="172.000000" y2="340.000000"  style="stroke:black; stroke-linecap:round; stroke-width:0.25;"/>
<line x1="180.000000" y1="260.000000" x2="180.000000" y2="320.000000"  style="stroke:black; stroke-linecap:round; stroke-width:0.25;"/>
<line x1="180.000000" y1="320.000000" x2="180.000000" y2="320.000000"  style="stroke:black; stroke-linecap:round; stroke-width:0.25;"/>
<line x1="180.000000" y1="320.000000" x2="184.000000" y2="320.000000"  style="stroke:black; stroke-linecap:round; stroke-width:0.25;"/>
<line x1="180.000000" y1="328.000000" x2="184.000000" y2="328.000000"  style="stroke:black; stroke-linecap:round; stroke-width:0.25;"/>
<line x1="188.000000" y1="132.000000" x2="192.000000" y2="132.000000"  style="stroke:black; stroke-linecap:round; stroke-width:0.25;"/>
<line x1="192.000000" y1="132.000000" x2="332.000000" y2="132.000000"  style="stroke:black; stroke-linecap:round; stroke-width:0.25;"/>
<line x1="208.000000" y1="100.000000" x2="212.000000" y2="100.000000"  style="stroke:black; stroke-linecap:round; stroke-width:0.25;"/>
<line x1="208.000000" y1="324.000000" x2="212.000000" y2="324.000000"  style="stroke:black; stroke-linecap:round; stroke-width:0.25;"/>
<line x1="212.000000" y1="100.000000" x2="372.000000" y2="100.000000"  style="stroke:black; stroke-linecap:round; stroke-width:0.25;"/>
<line x1="212.000000" y1="228.000000" x2="220.000000" y2="228.000000"  style="stroke:black; stroke-linecap:round; stroke-width:0.25;"/>
<line x1="212.000000" y1="312.000000" x2="220.000000" y2="312.000000"  style="stroke:black; stroke-linecap:round; stroke-width:0.25;"/>
<line x1="212.000000" y1="324.000000" x2="212.000000" y2="312.000000"  style="stroke:black; stroke-linecap:round; stroke-width:0.25;"/>
<line x1="212.000000" y1="324.000000" x2="212.000000" y2="324.000000"  style="stroke:black; stroke-linecap:round; stroke-width:0.25;"/>
<line x1="220.000000" y1="228.000000" x2="220.000000" y2="304.000000"  style="stroke:black; stroke-linecap:round; stroke-width:0.25;"/>
<line x1="220.000000" y1="304.000000" x2="220.000000" y2="304.000000"  style="stroke:black; stroke-linecap:round; stroke-width:0.25;"/>
<line x1="220.000000" y1="304.000000" x2="224.000000" y2="304.000000"  style="stroke:black; stroke-linecap:round; stroke-width:0.25;"/>
<line x1="220.000000" y1="312.000000" x2="224.000000" y2="312.000000"  style="stroke:black; stroke-linecap:round; stroke-width:0.25;"/>
<line x1="228.000000" y1="68.000000" x2="232.000000" y2="68.000000"  style="stroke:black; stroke-linecap:round; stroke-width:0.25;"/>
<line x1="232.000000" y1="68.000000" x2="412.000000" y2="68.000000"  style="stroke:black; stroke-linecap:round; stroke-width:0.25;"/>
<line x1="248.000000" y1="36.000000" x2="252.000000" y2="36.000000"  style="stroke:black; stroke-linecap:round; stroke-width:0.25;"/>
<line x1="248.000000" y1="308.000000" x2="252.000000" y2="308.000000"  style="stroke:black; stroke-linecap:round; stroke-width:0.25;"/>
<line x1="252.000000" y1="36.000000" x2="452.000000" y2="36.000000"  style="stroke:black; stroke-linecap:round; stroke-width:0.25;"/>
<line x1="252.000000" y1="196.000000" x2="260.000000" y2="196.000000"  style="stroke:black; stroke-linecap:round; stroke-width:0.25;"/>
<line x1="252.000000" y1="296.000000" x2="260.000000" y2="296.000000"  style="stroke:black; stroke-linecap:round; stroke-width:0.25;"/>
<line x1="252.000000" y1="308.000000" x2="252.000000" y2="296.000000"  style="stroke:black; stroke-linecap:round; stroke-width:0.25;"/>
<line x1="252.000000" y1="308.000000" x2="252.000000" y2="308.000000"  style="stroke:black; stroke-linecap:round; stroke-width:0.25;"/>
<line x1="260.000000" y1="196.000000" x2="260.000000" y2="288.000000"  style="stroke:black; stroke-linecap:round; stroke-width:0.25;"/>
<line x1="260.000000" y1="288.000000" x2="260.000000" y2="288.000000"  style="stroke:black; stroke-linecap:round; stroke-width:0.25;"/>
<line x1="260.000000" y1="288.000000" x2="264.000000" y2="288.000000"  style="stroke:black; stroke-linecap:round; stroke-width:0.25;"/>
<line x1="260.000000" y1="296.000000" x2="264.000000" y2="296.000000"  style="stroke:black; stroke-linecap:round; stroke-width:0.25;"/>
<line x1="288.000000" y1="292.000000" x2="292.000000" y2="292.000000"  style="stroke:black; stroke-linecap:round; stroke-width:0.25;"/>
<line x1="292.000000" y1="164.000000" x2="300.000000" y2="164.000000"  style="stroke:black; stroke-linecap:round; stroke-width:0.25;"/>
<line x1="292.000000" y1="280.000000" x2="300.000000" y2="280.000000"  style="stroke:black; stroke-linecap:round; stroke-width:0.25;"/>
<line x1="292.000000" y1="292.000000" x2="292.000000" y2="280.000000"  style="stroke:black; stroke-linecap:round; stroke-width:0.25;"/>
<line x1="292.000000" y1="292.000000" x2="292.000000" y2="292.000000"  style="stroke:black; stroke-linecap:round; stroke-width:0.25;"/>
<line x1="300.000000" y1="164.000000" x2="300.000000" y2="272.000000"  style="stroke:black; stroke-linecap:round; stroke-width:0.25;"/>
<line x1="300.000000" y1="272.000000" x2="300.000000" y2="272.000000"  style="stroke:black; stroke-linecap:round; stroke-width:0.25;"/>
<line x1="300.000000" y1="272.000000" x2="304.000000" y2="272.000000"  style="stroke:black; stroke-linecap:round; stroke-width:0.25;"/>
<line x1="300.000000" y1="280.000000" x2="304.000000" y2="280.000000"  style="stroke:black; stroke-linecap:round; stroke-width:0.25;"/>
<line x1="328.000000" y1="276.000000" x2="332.000000" y2="276.000000"  style="stroke:black; stroke-linecap:round; stroke-width:0.25;"/>
<line x1="332.000000" y1="132.000000" x2="340.000000" y2="132.000000"  style="stroke:black; stroke-linecap:round; stroke-width:0.25;"/>
<line x1="332.000000" y1="264.000000" x2="340.000000" y2="264.000000"  style="stroke:black; stroke-linecap:round; stroke-width:0.25;"/>
<line x1="332.000000" y1="276.000000" x2="332.000000" y2="264.000000"  style="stroke:black; stroke-linecap:round; stroke-width:0.25;"/>
<line x1="332.000000" y1="276.000000" x2="332.000000" y2="276.000000"  style="stroke:black; stroke-linecap:round; stroke-width:0.25;"/>
<line x1="340.000000" y1="132.000000" x2="340.000000" y2="256.000000"  style="stroke:black; stroke-linecap:round; stroke-width:0.25;"/>
<line x1="340.000000" y1="256.000000" x2="340.000000" y2="256.000000"  style="stroke:black; stroke-linecap:round; stroke-width:0.25;"/>
<line x1="340.000000" y1="256.000000" x2="344.000000" y2="256.000000"  style="stroke:black; stroke-linecap:round; stroke-width:0.25;"/>
<line x1="340.000000" y1="264.000000" x2="344.000000" y2="264.000000"  style="stroke:black; stroke-linecap:round; stroke-width:0.25;"/>
<line x1="368.000000" y1="260.000000" x2="372.000000" y2="260.000000"  style="stroke:black; stroke-linecap:round; stroke-width:0.25;"/>
<line x1="372.000000" y1="100.000000" x2="380.000000" y2="100.000000"  style="stroke:black; stroke-linecap:round; stroke-width:0.25;"/>
<line x1="372.000000" y1="248.000000" x2="380.000000" y2="248.000000"  style="stroke:black; stroke-linecap:round; stroke-width:0.25;"/>
<line x1="372.000000" y1="260.000000" x2="372.000000" y2="248.000000"  style="stroke:black; stroke-linecap:round; stroke-width:0.25;"/>
<line x1="372.000000" y1="260.000000" x2="372.000000" y2="260.000000"  style="stroke:black; stroke-linecap:round; stroke-width:0.25;"/>
<line x1="380.000000" y1="100.000000" x2="380.000000" y2="240.000000"  style="stroke:black; stroke-linecap:round; stroke-width:0.25;"/>
<line x1="380.000000" y1="240.000000" x2="380.000000" y2="240.000000"  style="stroke:black; stroke-linecap:round; stroke-width:0.25;"/>
<line x1="380.000000" y1="240.000000" x2="384.000000" y2="240.000000"  style="stroke:black; stroke-linecap:round; stroke-width:0.25;"/>
<line x1="380.000000" y1="248.000000" x2="384.000000" y2="248.000000"  style="stroke:black; stroke-linecap:round; stroke-width:0.25;"/>
<line x1="408.000000" y1="244.000000" x2="412.000000" y2="244.000000"  style="stroke:black; stroke-linecap:round; stroke-width:0.25;"/>
<line x1="412.000000" y1="68.000000" x2="420.000000" y2="68.000000"  style="stroke:black; stroke-linecap:round; stroke-width:0.25;"/>
<line x1="412.000000" y1="232.000000" x2="420.000000" y2="232.000000"  style="stroke:black; stroke-linecap:round; stroke-width:0.25;"/>
<line x1="412.000000" y1="244.000000" x2="412.000000" y2="232.000000"  style="stroke:black; stroke-linecap:round; stroke-width:0.25;"/>
<line x1="412.000000" y1="244.000000" x2="412.000000" y2="244.000000"  style="stroke:black; stroke-linecap:round; stroke-width:0.25;"/>
<line x1="420.000000" y1="68.000000" x2="420.000000" y2="224.000000"  style="stroke:black; stroke-linecap:round; stroke-width:0.25;"/>
<line x1="420.000000" y1="224.000000" x2="420.000000" y2="224.000000"  style="stroke:black; stroke-linecap:round; stroke-width:0.25;"/>
<line x1="420.000000" y1="224.000000" x2="424.000000" y2="224.000000"  style="stroke:black; stroke-linecap:round; stroke-width:0.25;"/>
<line x1="420.000000" y1="232.000000" x2="424.000000" y2="232.000000"  style="stroke:black; stroke-linecap:round; stroke-width:0.25;"/>
<line x1="448.000000" y1="228.000000" x2="452.000000" y2="228.000000"  style="stroke:black; stroke-linecap:round; stroke-width:0.25;"/>
<line x1="452.000000" y1="36.000000" x2="460.000000" y2="36.000000"  style="stroke:black; stroke-linecap:round; stroke-width:0.25;"/>
<line x1="452.000000" y1="216.000000" x2="460.000000" y2="216.000000"  style="stroke:black; stroke-linecap:round; stroke-width:0.25;"/>
<line x1="452.000000" y1="228.000000" x2="452.000000" y2="216.000000"  style="stroke:black; stroke-linecap:round; stroke-width:0.25;"/>
<line x1="452.000000" y1="228.000000" x2="452.000000" y2="228.000000"  style="stroke:black; stroke-linecap:round; stroke-width:0.25;"/>
<line x1="460.000000" y1="36.000000" x2="460.000000" y2="208.000000"  style="stroke:black; stroke-linecap:round; stroke-width:0.25;"/>
<line x1="460.000000" y1="208.000000" x2="460.000000" y2="208.000000"  style="stroke:black; stroke-linecap:round; stroke-width:0.25;"/>
<line x1="460.000000" y1="208.000000" x2="464.000000" y2="208.000000"  style="stroke:black; stroke-linecap:round; stroke-width:0.25;"/>
<line x1="460.000000" y1="216.000000" x2="464.000000" y2="216.000000"  style="stroke:black; stroke-linecap:round; stroke-width:0.25;"/>
<line x1="488.000000" y1="212.000000" x2="492.000000" y2="212.000000"  style="stroke:black; stroke-linecap:round; stroke-width:0.25;"/>
<line x1="492.000000" y1="212.000000" x2="492.000000" y2="212.000000"  style="stroke:black; stroke-linecap:round; stroke-width:0.25;"/>
<line x1="492.000000" y1="212.000000" x2="496.000000" y2="212.000000"  style="stroke:black; stroke-linecap:round; stroke-width:0.25;"/>
<line x1="496.000000" y1="212.000000" x2="500.000000" y2="212.000000"  style="stroke:black; stroke-linecap:round; stroke-width:0.25;"/>
<line x1="500.000000" y1="212.000000" x2="510.000000" y2="212.000000"  style="stroke:black; stroke-linecap:round; stroke-width:0.25;"/>
</svg>
