<?xml version="1.0"?>
<svg xmlns="http://www.w3.org/2000/svg" xmlns:xlink="http://www.w3.org/1999/xlink" viewBox="0 0 285.000000 164.000000" width="142.500000mm" height="82.000000mm" version="1.1">
<a xlink:href="g-0x7facb25af5d0.svg">
<rect x="1.000000" y="1.000000" width="284.000000" height="163.000000" rx="0" ry="0" style="stroke:none;fill:#cccccc;"/>
<rect x="0.000000" y="0.000000" width="284.000000" height="163.000000" rx="0" ry="0" style="stroke:none;fill:#ffffff;"/>
</a>
<text x="10.000000" y="7.000000" font-family="Arial" font-size="7"></text>
<rect x="55.000000" y="55.000000" width="129.000000" height="24.000000" rx="0" ry="0" style="stroke:none;fill:#cccccc;"/>
<rect x="54.000000" y="54.000000" width="129.000000" height="24.000000" rx="0" ry="0" style="stroke:none;fill:#477881;"/>
<text x="118.500000" y="68.000000" font-family="Arial" font-size="7" text-anchor="middle" fill="#FFFFFF">vslider(0, 8.4, 0.1, 10, 0.1)</text>
<circle cx="56.000000" cy="56.000000" r="1"/>
<line x1="45.000000" y1="45.000000" x2="45.000000" y2="87.000000"  style="stroke: black; stroke-linecap:round; stroke-width:0.25; stroke-dasharray:3,3;"/>
<line x1="45.000000" y1="87.000000" x2="192.000000" y2="87.000000"  style="stroke: black; stroke-linecap:round; stroke-width:0.25; stroke-dasharray:3,3;"/>
<line x1="192.000000" y1="87.000000" x2="192.000000" y2="45.000000"  style="stroke: black; stroke-linecap:round; stroke-width:0.25; stroke-dasharray:3,3;"/>
<line x1="45.000000" y1="45.000000" x2="50.000000" y2="45.000000"  style="stroke: black; stroke-linecap:round; stroke-width:0.25; stroke-dasharray:3,3;"/>
<line x1="153.200000" y1="45.000000" x2="192.000000" y2="45.000000"  style="stroke: black; stroke-linecap:round; stroke-width:0.25; stroke-dasharray:3,3;"/>
<text x="50.000000" y="47.000000" font-family="Arial" font-size="7">hgroup(Band Decay Times (T60))</text>
<line x1="35.000000" y1="35.000000" x2="35.000000" y2="97.000000"  style="stroke: black; stroke-linecap:round; stroke-width:0.25; stroke-dasharray:3,3;"/>
<line x1="35.000000" y1="97.000000" x2="202.000000" y2="97.000000"  style="stroke: black; stroke-linecap:round; stroke-width:0.25; stroke-dasharray:3,3;"/>
<line x1="202.000000" y1="97.000000" x2="202.000000" y2="35.000000"  style="stroke: black; stroke-linecap:round; stroke-width:0.25; stroke-dasharray:3,3;"/>
<line x1="35.000000" y1="35.000000" x2="40.000000" y2="35.000000"  style="stroke: black; stroke-linecap:round; stroke-width:0.25; stroke-dasharray:3,3;"/>
<line x1="202.000000" y1="35.000000" x2="202.000000" y2="35.000000"  style="stroke: black; stroke-linecap:round; stroke-width:0.25; stroke-dasharray:3,3;"/>
<text x="40.000000" y="37.000000" font-family="Arial" font-size="7">vgroup(FEEDBACK DELAY NETWORK (FDN) REVERBERATOR, ORDER 16)</text>
<line x1="25.000000" y1="25.000000" x2="25.000000" y2="107.000000"  style="stroke: black; stroke-linecap:round; stroke-width:0.25; stroke-dasharray:3,3;"/>
<line x1="25.000000" y1="107.000000" x2="212.000000" y2="107.000000"  style="stroke: black; stroke-linecap:round; stroke-width:0.25; stroke-dasharray:3,3;"/>
<line x1="212.000000" y1="107.000000" x2="212.000000" y2="25.000000"  style="stroke: black; stroke-linecap:round; stroke-width:0.25; stroke-dasharray:3,3;"/>
<line x1="25.000000" y1="25.000000" x2="30.000000" y2="25.000000"  style="stroke: black; stroke-linecap:round; stroke-width:0.25; stroke-dasharray:3,3;"/>
<line x1="55.800000" y1="25.000000" x2="212.000000" y2="25.000000"  style="stroke: black; stroke-linecap:round; stroke-width:0.25; stroke-dasharray:3,3;"/>
<text x="30.000000" y="27.000000" font-family="Arial" font-size="7">dur(4)</text>
<a xlink:href="SR-0x7facb19f5100.svg">
<rect x="107.500000" y="117.000000" width="24.000000" height="24.000000" rx="0" ry="0" style="stroke:none;fill:#cccccc;"/>
<rect x="106.500000" y="116.000000" width="24.000000" height="24.000000" rx="0" ry="0" style="stroke:none;fill:#003366;"/>
</a>
<a xlink:href="SR-0x7facb19f5100.svg">
<text x="118.500000" y="130.000000" font-family="Arial" font-size="7" text-anchor="middle" fill="#FFFFFF">SR</text>
</a>
<circle cx="108.500000" cy="118.000000" r="1"/>
<rect x="230.000000" y="71.000000" width="24.000000" height="24.000000" rx="0" ry="0" style="stroke:none;fill:#cccccc;"/>
<rect x="229.000000" y="70.000000" width="24.000000" height="24.000000" rx="0" ry="0" style="stroke:none;fill:#4B71A1;"/>
<text x="241.000000" y="84.000000" font-family="Arial" font-size="7" text-anchor="middle" fill="#FFFFFF">*</text>
<circle cx="231.000000" cy="72.000000" r="1"/>
<line x1="226.000000" y1="77.000000" x2="229.000000" y2="78.000000"  transform="rotate(0.000000,229.000000,78.000000)" style="stroke: black; stroke-width:0.25;"/>
<line x1="226.000000" y1="79.000000" x2="229.000000" y2="78.000000"  transform="rotate(0.000000,229.000000,78.000000)" style="stroke: black; stroke-width:0.25;"/>
<line x1="226.000000" y1="85.000000" x2="229.000000" y2="86.000000"  transform="rotate(0.000000,229.000000,86.000000)" style="stroke: black; stroke-width:0.25;"/>
<line x1="226.000000" y1="87.000000" x2="229.000000" y2="86.000000"  transform="rotate(0.000000,229.000000,86.000000)" style="stroke: black; stroke-width:0.25;"/>
<line x1="15.000000" y1="15.000000" x2="15.000000" y2="149.000000"  style="stroke: black; stroke-linecap:round; stroke-width:0.25; stroke-dasharray:3,3;"/>
<line x1="15.000000" y1="149.000000" x2="270.000000" y2="149.000000"  style="stroke: black; stroke-linecap:round; stroke-width:0.25; stroke-dasharray:3,3;"/>
<line x1="270.000000" y1="149.000000" x2="270.000000" y2="15.000000"  style="stroke: black; stroke-linecap:round; stroke-width:0.25; stroke-dasharray:3,3;"/>
<line x1="15.000000" y1="15.000000" x2="20.000000" y2="15.000000"  style="stroke: black; stroke-linecap:round; stroke-width:0.25; stroke-dasharray:3,3;"/>
<line x1="45.800000" y1="15.000000" x2="270.000000" y2="15.000000"  style="stroke: black; stroke-linecap:round; stroke-width:0.25; stroke-dasharray:3,3;"/>
<text x="20.000000" y="17.000000" font-family="Arial" font-size="7">n60(4)</text>
<line x1="272.000000" y1="81.000000" x2="275.000000" y2="82.000000"  transform="rotate(0.000000,275.000000,82.000000)" style="stroke: black; stroke-width:0.25;"/>
<line x1="272.000000" y1="83.000000" x2="275.000000" y2="82.000000"  transform="rotate(0.000000,275.000000,82.000000)" style="stroke: black; stroke-width:0.25;"/>
<line x1="130.500000" y1="128.000000" x2="134.500000" y2="128.000000"  style="stroke:black; stroke-linecap:round; stroke-width:0.25;"/>
<line x1="134.500000" y1="128.000000" x2="217.000000" y2="128.000000"  style="stroke:black; stroke-linecap:round; stroke-width:0.25;"/>
<line x1="183.000000" y1="66.000000" x2="187.000000" y2="66.000000"  style="stroke:black; stroke-linecap:round; stroke-width:0.25;"/>
<line x1="187.000000" y1="66.000000" x2="197.000000" y2="66.000000"  style="stroke:black; stroke-linecap:round; stroke-width:0.25;"/>
<line x1="197.000000" y1="66.000000" x2="207.000000" y2="66.000000"  style="stroke:black; stroke-linecap:round; stroke-width:0.25;"/>
<line x1="207.000000" y1="66.000000" x2="217.000000" y2="66.000000"  style="stroke:black; stroke-linecap:round; stroke-width:0.25;"/>
<line x1="217.000000" y1="66.000000" x2="225.000000" y2="66.000000"  style="stroke:black; stroke-linecap:round; stroke-width:0.25;"/>
<line x1="217.000000" y1="86.000000" x2="225.000000" y2="86.000000"  style="stroke:black; stroke-linecap:round; stroke-width:0.25;"/>
<line x1="217.000000" y1="128.000000" x2="217.000000" y2="86.000000"  style="stroke:black; stroke-linecap:round; stroke-width:0.25;"/>
<line x1="217.000000" y1="128.000000" x2="217.000000" y2="128.000000"  style="stroke:black; stroke-linecap:round; stroke-width:0.25;"/>
<line x1="225.000000" y1="66.000000" x2="225.000000" y2="78.000000"  style="stroke:black; stroke-linecap:round; stroke-width:0.25;"/>
<line x1="225.000000" y1="78.000000" x2="225.000000" y2="78.000000"  style="stroke:black; stroke-linecap:round; stroke-width:0.25;"/>
<line x1="225.000000" y1="78.000000" x2="229.000000" y2="78.000000"  style="stroke:black; stroke-linecap:round; stroke-width:0.25;"/>
<line x1="225.000000" y1="86.000000" x2="229.000000" y2="86.000000"  style="stroke:black; stroke-linecap:round; stroke-width:0.25;"/>
<line x1="253.000000" y1="82.000000" x2="257.000000" y2="82.000000"  style="stroke:black; stroke-linecap:round; stroke-width:0.25;"/>
<line x1="257.000000" y1="82.000000" x2="257.000000" y2="82.000000"  style="stroke:black; stroke-linecap:round; stroke-width:0.25;"/>
<line x1="257.000000" y1="82.000000" x2="261.000000" y2="82.000000"  style="stroke:black; stroke-linecap:round; stroke-width:0.25;"/>
<line x1="261.000000" y1="82.000000" x2="265.000000" y2="82.000000"  style="stroke:black; stroke-linecap:round; stroke-width:0.25;"/>
<line x1="265.000000" y1="82.000000" x2="275.000000" y2="82.000000"  style="stroke:black; stroke-linecap:round; stroke-width:0.25;"/>
</svg>
