<?xml version="1.0"?>
<svg xmlns="http://www.w3.org/2000/svg" xmlns:xlink="http://www.w3.org/1999/xlink" viewBox="0 0 240.500000 136.000000" width="120.250000mm" height="68.000000mm" version="1.1">
<a xlink:href="delayval-0x7facb1adce90.svg">
<rect x="1.000000" y="1.000000" width="239.500000" height="135.000000" rx="0" ry="0" style="stroke:none;fill:#cccccc;"/>
<rect x="0.000000" y="0.000000" width="239.500000" height="135.000000" rx="0" ry="0" style="stroke:none;fill:#ffffff;"/>
</a>
<text x="10.000000" y="7.000000" font-family="Arial" font-size="7"></text>
<rect x="68.350000" y="25.000000" width="24.000000" height="24.000000" rx="0" ry="0" style="stroke:none;fill:#cccccc;"/>
<rect x="67.350000" y="24.000000" width="24.000000" height="24.000000" rx="0" ry="0" style="stroke:none;fill:#f44800;"/>
<text x="79.350000" y="38.000000" font-family="Arial" font-size="7" text-anchor="middle" fill="#FFFFFF">0.5</text>
<circle cx="69.350000" cy="26.000000" r="1"/>
<a xlink:href="dl-0x7facb1abfa60.svg">
<rect x="31.450000" y="57.000000" width="25.800000" height="24.000000" rx="0" ry="0" style="stroke:none;fill:#cccccc;"/>
<rect x="30.450000" y="56.000000" width="25.800000" height="24.000000" rx="0" ry="0" style="stroke:none;fill:#003366;"/>
</a>
<a xlink:href="dl-0x7facb1abfa60.svg">
<text x="43.350000" y="70.000000" font-family="Arial" font-size="7" text-anchor="middle" fill="#FFFFFF">dl(12)</text>
</a>
<circle cx="32.450000" cy="58.000000" r="1"/>
<rect x="65.250000" y="57.000000" width="24.000000" height="24.000000" rx="0" ry="0" style="stroke:none;fill:#cccccc;"/>
<rect x="64.250000" y="56.000000" width="24.000000" height="24.000000" rx="0" ry="0" style="stroke:none;fill:#4B71A1;"/>
<text x="76.250000" y="70.000000" font-family="Arial" font-size="7" text-anchor="middle" fill="#FFFFFF">log</text>
<circle cx="66.250000" cy="58.000000" r="1"/>
<line x1="61.250000" y1="67.000000" x2="64.250000" y2="68.000000"  transform="rotate(0.000000,64.250000,68.000000)" style="stroke: black; stroke-width:0.25;"/>
<line x1="61.250000" y1="69.000000" x2="64.250000" y2="68.000000"  transform="rotate(0.000000,64.250000,68.000000)" style="stroke: black; stroke-width:0.25;"/>
<a xlink:href="prime-0x7facb1abc050.svg">
<rect x="25.000000" y="89.000000" width="38.700000" height="24.000000" rx="0" ry="0" style="stroke:none;fill:#cccccc;"/>
<rect x="24.000000" y="88.000000" width="38.700000" height="24.000000" rx="0" ry="0" style="stroke:none;fill:#003366;"/>
</a>
<a xlink:href="prime-0x7facb1abc050.svg">
<text x="43.350000" y="102.000000" font-family="Arial" font-size="7" text-anchor="middle" fill="#FFFFFF">prime(12)</text>
</a>
<circle cx="26.000000" cy="90.000000" r="1"/>
<rect x="71.700000" y="89.000000" width="24.000000" height="24.000000" rx="0" ry="0" style="stroke:none;fill:#cccccc;"/>
<rect x="70.700000" y="88.000000" width="24.000000" height="24.000000" rx="0" ry="0" style="stroke:none;fill:#4B71A1;"/>
<text x="82.700000" y="102.000000" font-family="Arial" font-size="7" text-anchor="middle" fill="#FFFFFF">log</text>
<circle cx="72.700000" cy="90.000000" r="1"/>
<line x1="67.700000" y1="99.000000" x2="70.700000" y2="100.000000"  transform="rotate(0.000000,70.700000,100.000000)" style="stroke: black; stroke-width:0.25;"/>
<line x1="67.700000" y1="101.000000" x2="70.700000" y2="100.000000"  transform="rotate(0.000000,70.700000,100.000000)" style="stroke: black; stroke-width:0.25;"/>
<rect x="111.700000" y="73.000000" width="24.000000" height="24.000000" rx="0" ry="0" style="stroke:none;fill:#cccccc;"/>
<rect x="110.700000" y="72.000000" width="24.000000" height="24.000000" rx="0" ry="0" style="stroke:none;fill:#4B71A1;"/>
<text x="122.700000" y="86.000000" font-family="Arial" font-size="7" text-anchor="middle" fill="#FFFFFF">/</text>
<circle cx="112.700000" cy="74.000000" r="1"/>
<line x1="107.700000" y1="79.000000" x2="110.700000" y2="80.000000"  transform="rotate(0.000000,110.700000,80.000000)" style="stroke: black; stroke-width:0.25;"/>
<line x1="107.700000" y1="81.000000" x2="110.700000" y2="80.000000"  transform="rotate(0.000000,110.700000,80.000000)" style="stroke: black; stroke-width:0.25;"/>
<line x1="107.700000" y1="87.000000" x2="110.700000" y2="88.000000"  transform="rotate(0.000000,110.700000,88.000000)" style="stroke: black; stroke-width:0.25;"/>
<line x1="107.700000" y1="89.000000" x2="110.700000" y2="88.000000"  transform="rotate(0.000000,110.700000,88.000000)" style="stroke: black; stroke-width:0.25;"/>
<rect x="151.700000" y="57.000000" width="24.000000" height="24.000000" rx="0" ry="0" style="stroke:none;fill:#cccccc;"/>
<rect x="150.700000" y="56.000000" width="24.000000" height="24.000000" rx="0" ry="0" style="stroke:none;fill:#4B71A1;"/>
<text x="162.700000" y="70.000000" font-family="Arial" font-size="7" text-anchor="middle" fill="#FFFFFF">+</text>
<circle cx="152.700000" cy="58.000000" r="1"/>
<line x1="147.700000" y1="63.000000" x2="150.700000" y2="64.000000"  transform="rotate(0.000000,150.700000,64.000000)" style="stroke: black; stroke-width:0.25;"/>
<line x1="147.700000" y1="65.000000" x2="150.700000" y2="64.000000"  transform="rotate(0.000000,150.700000,64.000000)" style="stroke: black; stroke-width:0.25;"/>
<line x1="147.700000" y1="71.000000" x2="150.700000" y2="72.000000"  transform="rotate(0.000000,150.700000,72.000000)" style="stroke: black; stroke-width:0.25;"/>
<line x1="147.700000" y1="73.000000" x2="150.700000" y2="72.000000"  transform="rotate(0.000000,150.700000,72.000000)" style="stroke: black; stroke-width:0.25;"/>
<rect x="183.700000" y="57.000000" width="25.800000" height="24.000000" rx="0" ry="0" style="stroke:none;fill:#cccccc;"/>
<rect x="182.700000" y="56.000000" width="25.800000" height="24.000000" rx="0" ry="0" style="stroke:none;fill:#4B71A1;"/>
<text x="195.600000" y="70.000000" font-family="Arial" font-size="7" text-anchor="middle" fill="#FFFFFF">floor</text>
<circle cx="184.700000" cy="58.000000" r="1"/>
<line x1="179.700000" y1="67.000000" x2="182.700000" y2="68.000000"  transform="rotate(0.000000,182.700000,68.000000)" style="stroke: black; stroke-width:0.25;"/>
<line x1="179.700000" y1="69.000000" x2="182.700000" y2="68.000000"  transform="rotate(0.000000,182.700000,68.000000)" style="stroke: black; stroke-width:0.25;"/>
<line x1="15.000000" y1="15.000000" x2="15.000000" y2="121.000000"  style="stroke: black; stroke-linecap:round; stroke-width:0.25; stroke-dasharray:3,3;"/>
<line x1="15.000000" y1="121.000000" x2="225.500000" y2="121.000000"  style="stroke: black; stroke-linecap:round; stroke-width:0.25; stroke-dasharray:3,3;"/>
<line x1="225.500000" y1="121.000000" x2="225.500000" y2="15.000000"  style="stroke: black; stroke-linecap:round; stroke-width:0.25; stroke-dasharray:3,3;"/>
<line x1="15.000000" y1="15.000000" x2="20.000000" y2="15.000000"  style="stroke: black; stroke-linecap:round; stroke-width:0.25; stroke-dasharray:3,3;"/>
<line x1="52.250000" y1="15.000000" x2="225.500000" y2="15.000000"  style="stroke: black; stroke-linecap:round; stroke-width:0.25; stroke-dasharray:3,3;"/>
<text x="20.000000" y="17.000000" font-family="Arial" font-size="7">ppwr(12)</text>
<line x1="227.500000" y1="67.000000" x2="230.500000" y2="68.000000"  transform="rotate(0.000000,230.500000,68.000000)" style="stroke: black; stroke-width:0.25;"/>
<line x1="227.500000" y1="69.000000" x2="230.500000" y2="68.000000"  transform="rotate(0.000000,230.500000,68.000000)" style="stroke: black; stroke-width:0.25;"/>
<line x1="56.250000" y1="68.000000" x2="60.250000" y2="68.000000"  style="stroke:black; stroke-linecap:round; stroke-width:0.25;"/>
<line x1="60.250000" y1="68.000000" x2="60.250000" y2="68.000000"  style="stroke:black; stroke-linecap:round; stroke-width:0.25;"/>
<line x1="60.250000" y1="68.000000" x2="64.250000" y2="68.000000"  style="stroke:black; stroke-linecap:round; stroke-width:0.25;"/>
<line x1="62.700000" y1="100.000000" x2="66.700000" y2="100.000000"  style="stroke:black; stroke-linecap:round; stroke-width:0.25;"/>
<line x1="66.700000" y1="100.000000" x2="66.700000" y2="100.000000"  style="stroke:black; stroke-linecap:round; stroke-width:0.25;"/>
<line x1="66.700000" y1="100.000000" x2="70.700000" y2="100.000000"  style="stroke:black; stroke-linecap:round; stroke-width:0.25;"/>
<line x1="88.250000" y1="68.000000" x2="92.250000" y2="68.000000"  style="stroke:black; stroke-linecap:round; stroke-width:0.25;"/>
<line x1="91.350000" y1="36.000000" x2="95.350000" y2="36.000000"  style="stroke:black; stroke-linecap:round; stroke-width:0.25;"/>
<line x1="92.250000" y1="68.000000" x2="98.700000" y2="68.000000"  style="stroke:black; stroke-linecap:round; stroke-width:0.25;"/>
<line x1="94.700000" y1="100.000000" x2="98.700000" y2="100.000000"  style="stroke:black; stroke-linecap:round; stroke-width:0.25;"/>
<line x1="95.350000" y1="36.000000" x2="138.700000" y2="36.000000"  style="stroke:black; stroke-linecap:round; stroke-width:0.25;"/>
<line x1="98.700000" y1="68.000000" x2="106.700000" y2="68.000000"  style="stroke:black; stroke-linecap:round; stroke-width:0.25;"/>
<line x1="98.700000" y1="88.000000" x2="106.700000" y2="88.000000"  style="stroke:black; stroke-linecap:round; stroke-width:0.25;"/>
<line x1="98.700000" y1="100.000000" x2="98.700000" y2="88.000000"  style="stroke:black; stroke-linecap:round; stroke-width:0.25;"/>
<line x1="98.700000" y1="100.000000" x2="98.700000" y2="100.000000"  style="stroke:black; stroke-linecap:round; stroke-width:0.25;"/>
<line x1="106.700000" y1="68.000000" x2="106.700000" y2="80.000000"  style="stroke:black; stroke-linecap:round; stroke-width:0.25;"/>
<line x1="106.700000" y1="80.000000" x2="106.700000" y2="80.000000"  style="stroke:black; stroke-linecap:round; stroke-width:0.25;"/>
<line x1="106.700000" y1="80.000000" x2="110.700000" y2="80.000000"  style="stroke:black; stroke-linecap:round; stroke-width:0.25;"/>
<line x1="106.700000" y1="88.000000" x2="110.700000" y2="88.000000"  style="stroke:black; stroke-linecap:round; stroke-width:0.25;"/>
<line x1="134.700000" y1="84.000000" x2="138.700000" y2="84.000000"  style="stroke:black; stroke-linecap:round; stroke-width:0.25;"/>
<line x1="138.700000" y1="36.000000" x2="146.700000" y2="36.000000"  style="stroke:black; stroke-linecap:round; stroke-width:0.25;"/>
<line x1="138.700000" y1="72.000000" x2="146.700000" y2="72.000000"  style="stroke:black; stroke-linecap:round; stroke-width:0.25;"/>
<line x1="138.700000" y1="84.000000" x2="138.700000" y2="72.000000"  style="stroke:black; stroke-linecap:round; stroke-width:0.25;"/>
<line x1="138.700000" y1="84.000000" x2="138.700000" y2="84.000000"  style="stroke:black; stroke-linecap:round; stroke-width:0.25;"/>
<line x1="146.700000" y1="36.000000" x2="146.700000" y2="64.000000"  style="stroke:black; stroke-linecap:round; stroke-width:0.25;"/>
<line x1="146.700000" y1="64.000000" x2="146.700000" y2="64.000000"  style="stroke:black; stroke-linecap:round; stroke-width:0.25;"/>
<line x1="146.700000" y1="64.000000" x2="150.700000" y2="64.000000"  style="stroke:black; stroke-linecap:round; stroke-width:0.25;"/>
<line x1="146.700000" y1="72.000000" x2="150.700000" y2="72.000000"  style="stroke:black; stroke-linecap:round; stroke-width:0.25;"/>
<line x1="174.700000" y1="68.000000" x2="178.700000" y2="68.000000"  style="stroke:black; stroke-linecap:round; stroke-width:0.25;"/>
<line x1="178.700000" y1="68.000000" x2="178.700000" y2="68.000000"  style="stroke:black; stroke-linecap:round; stroke-width:0.25;"/>
<line x1="178.700000" y1="68.000000" x2="182.700000" y2="68.000000"  style="stroke:black; stroke-linecap:round; stroke-width:0.25;"/>
<line x1="208.500000" y1="68.000000" x2="212.500000" y2="68.000000"  style="stroke:black; stroke-linecap:round; stroke-width:0.25;"/>
<line x1="212.500000" y1="68.000000" x2="212.500000" y2="68.000000"  style="stroke:black; stroke-linecap:round; stroke-width:0.25;"/>
<line x1="212.500000" y1="68.000000" x2="216.500000" y2="68.000000"  style="stroke:black; stroke-linecap:round; stroke-width:0.25;"/>
<line x1="216.500000" y1="68.000000" x2="220.500000" y2="68.000000"  style="stroke:black; stroke-linecap:round; stroke-width:0.25;"/>
<line x1="220.500000" y1="68.000000" x2="230.500000" y2="68.000000"  style="stroke:black; stroke-linecap:round; stroke-width:0.25;"/>
</svg>
