<?xml version="1.0"?>
<svg xmlns="http://www.w3.org/2000/svg" xmlns:xlink="http://www.w3.org/1999/xlink" viewBox="0 0 161.800000 176.000000" width="80.900000mm" height="88.000000mm" version="1.1">
<a xlink:href="delayval-0x7facb1b5f680.svg">
<rect x="1.000000" y="1.000000" width="160.800000" height="175.000000" rx="0" ry="0" style="stroke:none;fill:#cccccc;"/>
<rect x="0.000000" y="0.000000" width="160.800000" height="175.000000" rx="0" ry="0" style="stroke:none;fill:#ffffff;"/>
</a>
<text x="10.000000" y="7.000000" font-family="Arial" font-size="7"></text>
<a xlink:href="primes-0x7facb0cf7650.svg">
<rect x="25.000000" y="25.000000" width="25.800000" height="128.000000" rx="0" ry="0" style="stroke:none;fill:#cccccc;"/>
<rect x="24.000000" y="24.000000" width="25.800000" height="128.000000" rx="0" ry="0" style="stroke:none;fill:#003366;"/>
</a>
<a xlink:href="primes-0x7facb0cf7650.svg">
<text x="36.900000" y="90.000000" font-family="Arial" font-size="7" text-anchor="middle" fill="#FFFFFF">primes</text>
</a>
<circle cx="26.000000" cy="26.000000" r="1"/>
<line x1="15.000000" y1="15.000000" x2="15.000000" y2="161.000000"  style="stroke: black; stroke-linecap:round; stroke-width:0.25; stroke-dasharray:3,3;"/>
<line x1="15.000000" y1="161.000000" x2="146.800000" y2="161.000000"  style="stroke: black; stroke-linecap:round; stroke-width:0.25; stroke-dasharray:3,3;"/>
<line x1="146.800000" y1="161.000000" x2="146.800000" y2="15.000000"  style="stroke: black; stroke-linecap:round; stroke-width:0.25; stroke-dasharray:3,3;"/>
<line x1="15.000000" y1="15.000000" x2="20.000000" y2="15.000000"  style="stroke: black; stroke-linecap:round; stroke-width:0.25; stroke-dasharray:3,3;"/>
<line x1="55.475000" y1="15.000000" x2="146.800000" y2="15.000000"  style="stroke: black; stroke-linecap:round; stroke-width:0.25; stroke-dasharray:3,3;"/>
<text x="20.000000" y="17.000000" font-family="Arial" font-size="7">prime(10)</text>
<line x1="148.800000" y1="87.000000" x2="151.800000" y2="88.000000"  transform="rotate(0.000000,151.800000,88.000000)" style="stroke: black; stroke-width:0.25;"/>
<line x1="148.800000" y1="89.000000" x2="151.800000" y2="88.000000"  transform="rotate(0.000000,151.800000,88.000000)" style="stroke: black; stroke-width:0.25;"/>
<line x1="49.800000" y1="108.000000" x2="53.800000" y2="108.000000"  style="stroke:black; stroke-linecap:round; stroke-width:0.25;"/>
<line x1="53.800000" y1="108.000000" x2="69.800000" y2="108.000000"  style="stroke:black; stroke-linecap:round; stroke-width:0.25;"/>
<line x1="69.800000" y1="88.200000" x2="125.800000" y2="88.200000"  style="stroke:black; stroke-linecap:round; stroke-width:0.25;"/>
<line x1="69.800000" y1="108.000000" x2="69.800000" y2="88.200000"  style="stroke:black; stroke-linecap:round; stroke-width:0.25;"/>
<line x1="125.800000" y1="88.000000" x2="133.800000" y2="88.000000"  style="stroke:black; stroke-linecap:round; stroke-width:0.25;"/>
<line x1="125.800000" y1="88.200000" x2="125.800000" y2="88.000000"  style="stroke:black; stroke-linecap:round; stroke-width:0.25;"/>
<line x1="125.800000" y1="88.200000" x2="125.800000" y2="88.200000"  style="stroke:black; stroke-linecap:round; stroke-width:0.25;"/>
<line x1="133.800000" y1="88.000000" x2="137.800000" y2="88.000000"  style="stroke:black; stroke-linecap:round; stroke-width:0.25;"/>
<line x1="137.800000" y1="88.000000" x2="141.800000" y2="88.000000"  style="stroke:black; stroke-linecap:round; stroke-width:0.25;"/>
<line x1="141.800000" y1="88.000000" x2="151.800000" y2="88.000000"  style="stroke:black; stroke-linecap:round; stroke-width:0.25;"/>
</svg>
