<?xml version="1.0"?>
<svg xmlns="http://www.w3.org/2000/svg" xmlns:xlink="http://www.w3.org/1999/xlink" viewBox="0 0 586.500000 176.000000" width="293.250000mm" height="88.000000mm" version="1.1">
<rect x="1.000000" y="1.000000" width="585.500000" height="175.000000" rx="0" ry="0" style="stroke:none;fill:#cccccc;"/>
<rect x="0.000000" y="0.000000" width="585.500000" height="175.000000" rx="0" ry="0" style="stroke:none;fill:#ffffff;"/>
<text x="10.000000" y="7.000000" font-family="Arial" font-size="7"></text>
<rect x="41.000000" y="61.000000" width="24.000000" height="24.000000" rx="0" ry="0" style="stroke:none;fill:#cccccc;"/>
<rect x="40.000000" y="60.000000" width="24.000000" height="24.000000" rx="0" ry="0" style="stroke:none;fill:#47945E;"/>
<text x="52.000000" y="74.000000" font-family="Arial" font-size="7" text-anchor="middle" fill="#FFFFFF">x</text>
<circle cx="42.000000" cy="62.000000" r="1"/>
<line x1="37.000000" y1="71.000000" x2="40.000000" y2="72.000000"  transform="rotate(0.000000,40.000000,72.000000)" style="stroke: black; stroke-width:0.25;"/>
<line x1="37.000000" y1="73.000000" x2="40.000000" y2="72.000000"  transform="rotate(0.000000,40.000000,72.000000)" style="stroke: black; stroke-width:0.25;"/>
<rect x="41.000000" y="93.000000" width="24.000000" height="24.000000" rx="0" ry="0" style="stroke:none;fill:#cccccc;"/>
<rect x="40.000000" y="92.000000" width="24.000000" height="24.000000" rx="0" ry="0" style="stroke:none;fill:#47945E;"/>
<text x="52.000000" y="106.000000" font-family="Arial" font-size="7" text-anchor="middle" fill="#FFFFFF">y</text>
<circle cx="42.000000" cy="94.000000" r="1"/>
<line x1="37.000000" y1="103.000000" x2="40.000000" y2="104.000000"  transform="rotate(0.000000,40.000000,104.000000)" style="stroke: black; stroke-width:0.25;"/>
<line x1="37.000000" y1="105.000000" x2="40.000000" y2="104.000000"  transform="rotate(0.000000,40.000000,104.000000)" style="stroke: black; stroke-width:0.25;"/>
<a xlink:href="stereo-0x7facb6b31d20.svg">
<rect x="73.000000" y="77.000000" width="167.700000" height="24.000000" rx="0" ry="0" style="stroke:none;fill:#cccccc;"/>
<rect x="72.000000" y="76.000000" width="167.700000" height="24.000000" rx="0" ry="0" style="stroke:none;fill:#003366;"/>
</a>
<a xlink:href="stereo-0x7facb6b31d20.svg">
<text x="155.850000" y="90.000000" font-family="Arial" font-size="7" text-anchor="middle" fill="#FFFFFF">stereo_reverb..., lenv = {}])(#1)(#2)</text>
</a>
<circle cx="74.000000" cy="78.000000" r="1"/>
<a xlink:href="fdnrev0-0x7facb6b6caa0.svg">
<rect x="290.700000" y="25.000000" width="129.000000" height="128.000000" rx="0" ry="0" style="stroke:none;fill:#cccccc;"/>
<rect x="289.700000" y="24.000000" width="129.000000" height="128.000000" rx="0" ry="0" style="stroke:none;fill:#003366;"/>
</a>
<a xlink:href="fdnrev0-0x7facb6b6caa0.svg">
<text x="354.200000" y="90.000000" font-family="Arial" font-size="7" text-anchor="middle" fill="#FFFFFF">fdnrev0(8192)...9, 0.001)))))</text>
</a>
<circle cx="291.700000" cy="26.000000" r="1"/>
<line x1="286.700000" y1="27.000000" x2="289.700000" y2="28.000000"  transform="rotate(0.000000,289.700000,28.000000)" style="stroke: black; stroke-width:0.25;"/>
<line x1="286.700000" y1="29.000000" x2="289.700000" y2="28.000000"  transform="rotate(0.000000,289.700000,28.000000)" style="stroke: black; stroke-width:0.25;"/>
<line x1="286.700000" y1="35.000000" x2="289.700000" y2="36.000000"  transform="rotate(0.000000,289.700000,36.000000)" style="stroke: black; stroke-width:0.25;"/>
<line x1="286.700000" y1="37.000000" x2="289.700000" y2="36.000000"  transform="rotate(0.000000,289.700000,36.000000)" style="stroke: black; stroke-width:0.25;"/>
<line x1="286.700000" y1="43.000000" x2="289.700000" y2="44.000000"  transform="rotate(0.000000,289.700000,44.000000)" style="stroke: black; stroke-width:0.25;"/>
<line x1="286.700000" y1="45.000000" x2="289.700000" y2="44.000000"  transform="rotate(0.000000,289.700000,44.000000)" style="stroke: black; stroke-width:0.25;"/>
<line x1="286.700000" y1="51.000000" x2="289.700000" y2="52.000000"  transform="rotate(0.000000,289.700000,52.000000)" style="stroke: black; stroke-width:0.25;"/>
<line x1="286.700000" y1="53.000000" x2="289.700000" y2="52.000000"  transform="rotate(0.000000,289.700000,52.000000)" style="stroke: black; stroke-width:0.25;"/>
<line x1="286.700000" y1="59.000000" x2="289.700000" y2="60.000000"  transform="rotate(0.000000,289.700000,60.000000)" style="stroke: black; stroke-width:0.25;"/>
<line x1="286.700000" y1="61.000000" x2="289.700000" y2="60.000000"  transform="rotate(0.000000,289.700000,60.000000)" style="stroke: black; stroke-width:0.25;"/>
<line x1="286.700000" y1="67.000000" x2="289.700000" y2="68.000000"  transform="rotate(0.000000,289.700000,68.000000)" style="stroke: black; stroke-width:0.25;"/>
<line x1="286.700000" y1="69.000000" x2="289.700000" y2="68.000000"  transform="rotate(0.000000,289.700000,68.000000)" style="stroke: black; stroke-width:0.25;"/>
<line x1="286.700000" y1="75.000000" x2="289.700000" y2="76.000000"  transform="rotate(0.000000,289.700000,76.000000)" style="stroke: black; stroke-width:0.25;"/>
<line x1="286.700000" y1="77.000000" x2="289.700000" y2="76.000000"  transform="rotate(0.000000,289.700000,76.000000)" style="stroke: black; stroke-width:0.25;"/>
<line x1="286.700000" y1="83.000000" x2="289.700000" y2="84.000000"  transform="rotate(0.000000,289.700000,84.000000)" style="stroke: black; stroke-width:0.25;"/>
<line x1="286.700000" y1="85.000000" x2="289.700000" y2="84.000000"  transform="rotate(0.000000,289.700000,84.000000)" style="stroke: black; stroke-width:0.25;"/>
<line x1="286.700000" y1="91.000000" x2="289.700000" y2="92.000000"  transform="rotate(0.000000,289.700000,92.000000)" style="stroke: black; stroke-width:0.25;"/>
<line x1="286.700000" y1="93.000000" x2="289.700000" y2="92.000000"  transform="rotate(0.000000,289.700000,92.000000)" style="stroke: black; stroke-width:0.25;"/>
<line x1="286.700000" y1="99.000000" x2="289.700000" y2="100.000000"  transform="rotate(0.000000,289.700000,100.000000)" style="stroke: black; stroke-width:0.25;"/>
<line x1="286.700000" y1="101.000000" x2="289.700000" y2="100.000000"  transform="rotate(0.000000,289.700000,100.000000)" style="stroke: black; stroke-width:0.25;"/>
<line x1="286.700000" y1="107.000000" x2="289.700000" y2="108.000000"  transform="rotate(0.000000,289.700000,108.000000)" style="stroke: black; stroke-width:0.25;"/>
<line x1="286.700000" y1="109.000000" x2="289.700000" y2="108.000000"  transform="rotate(0.000000,289.700000,108.000000)" style="stroke: black; stroke-width:0.25;"/>
<line x1="286.700000" y1="115.000000" x2="289.700000" y2="116.000000"  transform="rotate(0.000000,289.700000,116.000000)" style="stroke: black; stroke-width:0.25;"/>
<line x1="286.700000" y1="117.000000" x2="289.700000" y2="116.000000"  transform="rotate(0.000000,289.700000,116.000000)" style="stroke: black; stroke-width:0.25;"/>
<line x1="286.700000" y1="123.000000" x2="289.700000" y2="124.000000"  transform="rotate(0.000000,289.700000,124.000000)" style="stroke: black; stroke-width:0.25;"/>
<line x1="286.700000" y1="125.000000" x2="289.700000" y2="124.000000"  transform="rotate(0.000000,289.700000,124.000000)" style="stroke: black; stroke-width:0.25;"/>
<line x1="286.700000" y1="131.000000" x2="289.700000" y2="132.000000"  transform="rotate(0.000000,289.700000,132.000000)" style="stroke: black; stroke-width:0.25;"/>
<line x1="286.700000" y1="133.000000" x2="289.700000" y2="132.000000"  transform="rotate(0.000000,289.700000,132.000000)" style="stroke: black; stroke-width:0.25;"/>
<line x1="286.700000" y1="139.000000" x2="289.700000" y2="140.000000"  transform="rotate(0.000000,289.700000,140.000000)" style="stroke: black; stroke-width:0.25;"/>
<line x1="286.700000" y1="141.000000" x2="289.700000" y2="140.000000"  transform="rotate(0.000000,289.700000,140.000000)" style="stroke: black; stroke-width:0.25;"/>
<line x1="286.700000" y1="147.000000" x2="289.700000" y2="148.000000"  transform="rotate(0.000000,289.700000,148.000000)" style="stroke: black; stroke-width:0.25;"/>
<line x1="286.700000" y1="149.000000" x2="289.700000" y2="148.000000"  transform="rotate(0.000000,289.700000,148.000000)" style="stroke: black; stroke-width:0.25;"/>
<a xlink:href="gain-0x7facb6b2c220.svg">
<rect x="481.700000" y="61.000000" width="25.800000" height="24.000000" rx="0" ry="0" style="stroke:none;fill:#cccccc;"/>
<rect x="480.700000" y="60.000000" width="25.800000" height="24.000000" rx="0" ry="0" style="stroke:none;fill:#003366;"/>
</a>
<a xlink:href="gain-0x7facb6b2c220.svg">
<text x="493.600000" y="74.000000" font-family="Arial" font-size="7" text-anchor="middle" fill="#FFFFFF">gain</text>
</a>
<circle cx="482.700000" cy="62.000000" r="1"/>
<rect x="523.500000" y="57.000000" width="24.000000" height="24.000000" rx="0" ry="0" style="stroke:none;fill:#cccccc;"/>
<rect x="522.500000" y="56.000000" width="24.000000" height="24.000000" rx="0" ry="0" style="stroke:none;fill:#4B71A1;"/>
<text x="534.500000" y="70.000000" font-family="Arial" font-size="7" text-anchor="middle" fill="#FFFFFF">*</text>
<circle cx="524.500000" cy="58.000000" r="1"/>
<line x1="519.500000" y1="63.000000" x2="522.500000" y2="64.000000"  transform="rotate(0.000000,522.500000,64.000000)" style="stroke: black; stroke-width:0.25;"/>
<line x1="519.500000" y1="65.000000" x2="522.500000" y2="64.000000"  transform="rotate(0.000000,522.500000,64.000000)" style="stroke: black; stroke-width:0.25;"/>
<line x1="519.500000" y1="71.000000" x2="522.500000" y2="72.000000"  transform="rotate(0.000000,522.500000,72.000000)" style="stroke: black; stroke-width:0.25;"/>
<line x1="519.500000" y1="73.000000" x2="522.500000" y2="72.000000"  transform="rotate(0.000000,522.500000,72.000000)" style="stroke: black; stroke-width:0.25;"/>
<a xlink:href="gain-0x7facb6b2c220.svg">
<rect x="481.700000" y="101.000000" width="25.800000" height="24.000000" rx="0" ry="0" style="stroke:none;fill:#cccccc;"/>
<rect x="480.700000" y="100.000000" width="25.800000" height="24.000000" rx="0" ry="0" style="stroke:none;fill:#003366;"/>
</a>
<a xlink:href="gain-0x7facb6b2c220.svg">
<text x="493.600000" y="114.000000" font-family="Arial" font-size="7" text-anchor="middle" fill="#FFFFFF">gain</text>
</a>
<circle cx="482.700000" cy="102.000000" r="1"/>
<rect x="523.500000" y="97.000000" width="24.000000" height="24.000000" rx="0" ry="0" style="stroke:none;fill:#cccccc;"/>
<rect x="522.500000" y="96.000000" width="24.000000" height="24.000000" rx="0" ry="0" style="stroke:none;fill:#4B71A1;"/>
<text x="534.500000" y="110.000000" font-family="Arial" font-size="7" text-anchor="middle" fill="#FFFFFF">*</text>
<circle cx="524.500000" cy="98.000000" r="1"/>
<line x1="519.500000" y1="103.000000" x2="522.500000" y2="104.000000"  transform="rotate(0.000000,522.500000,104.000000)" style="stroke: black; stroke-width:0.25;"/>
<line x1="519.500000" y1="105.000000" x2="522.500000" y2="104.000000"  transform="rotate(0.000000,522.500000,104.000000)" style="stroke: black; stroke-width:0.25;"/>
<line x1="519.500000" y1="111.000000" x2="522.500000" y2="112.000000"  transform="rotate(0.000000,522.500000,112.000000)" style="stroke: black; stroke-width:0.25;"/>
<line x1="519.500000" y1="113.000000" x2="522.500000" y2="112.000000"  transform="rotate(0.000000,522.500000,112.000000)" style="stroke: black; stroke-width:0.25;"/>
<line x1="15.000000" y1="15.000000" x2="15.000000" y2="161.000000"  style="stroke: black; stroke-linecap:round; stroke-width:0.25; stroke-dasharray:3,3;"/>
<line x1="15.000000" y1="161.000000" x2="571.500000" y2="161.000000"  style="stroke: black; stroke-linecap:round; stroke-width:0.25; stroke-dasharray:3,3;"/>
<line x1="571.500000" y1="161.000000" x2="571.500000" y2="15.000000"  style="stroke: black; stroke-linecap:round; stroke-width:0.25; stroke-dasharray:3,3;"/>
<line x1="15.000000" y1="15.000000" x2="20.000000" y2="15.000000"  style="stroke: black; stroke-linecap:round; stroke-width:0.25; stroke-dasharray:3,3;"/>
<line x1="49.025000" y1="15.000000" x2="571.500000" y2="15.000000"  style="stroke: black; stroke-linecap:round; stroke-width:0.25; stroke-dasharray:3,3;"/>
<text x="20.000000" y="17.000000" font-family="Arial" font-size="7">process</text>
<line x1="573.500000" y1="83.000000" x2="576.500000" y2="84.000000"  transform="rotate(0.000000,576.500000,84.000000)" style="stroke: black; stroke-width:0.25;"/>
<line x1="573.500000" y1="85.000000" x2="576.500000" y2="84.000000"  transform="rotate(0.000000,576.500000,84.000000)" style="stroke: black; stroke-width:0.25;"/>
<line x1="573.500000" y1="91.000000" x2="576.500000" y2="92.000000"  transform="rotate(0.000000,576.500000,92.000000)" style="stroke: black; stroke-width:0.25;"/>
<line x1="573.500000" y1="93.000000" x2="576.500000" y2="92.000000"  transform="rotate(0.000000,576.500000,92.000000)" style="stroke: black; stroke-width:0.25;"/>
<line x1="10.000000" y1="84.000000" x2="20.000000" y2="84.000000"  style="stroke:black; stroke-linecap:round; stroke-width:0.25;"/>
<line x1="10.000000" y1="92.000000" x2="20.000000" y2="92.000000"  style="stroke:black; stroke-linecap:round; stroke-width:0.25;"/>
<line x1="20.000000" y1="84.000000" x2="24.000000" y2="84.000000"  style="stroke:black; stroke-linecap:round; stroke-width:0.25;"/>
<line x1="20.000000" y1="92.000000" x2="24.000000" y2="92.000000"  style="stroke:black; stroke-linecap:round; stroke-width:0.25;"/>
<line x1="24.000000" y1="84.000000" x2="28.000000" y2="84.000000"  style="stroke:black; stroke-linecap:round; stroke-width:0.25;"/>
<line x1="24.000000" y1="92.000000" x2="28.000000" y2="92.000000"  style="stroke:black; stroke-linecap:round; stroke-width:0.25;"/>
<line x1="28.000000" y1="72.000000" x2="36.000000" y2="72.000000"  style="stroke:black; stroke-linecap:round; stroke-width:0.25;"/>
<line x1="28.000000" y1="84.000000" x2="28.000000" y2="72.000000"  style="stroke:black; stroke-linecap:round; stroke-width:0.25;"/>
<line x1="28.000000" y1="84.000000" x2="28.000000" y2="84.000000"  style="stroke:black; stroke-linecap:round; stroke-width:0.25;"/>
<line x1="28.000000" y1="92.000000" x2="36.000000" y2="92.000000"  style="stroke:black; stroke-linecap:round; stroke-width:0.25;"/>
<line x1="36.000000" y1="72.000000" x2="40.000000" y2="72.000000"  style="stroke:black; stroke-linecap:round; stroke-width:0.25;"/>
<line x1="36.000000" y1="92.000000" x2="36.000000" y2="104.000000"  style="stroke:black; stroke-linecap:round; stroke-width:0.25;"/>
<line x1="36.000000" y1="104.000000" x2="36.000000" y2="104.000000"  style="stroke:black; stroke-linecap:round; stroke-width:0.25;"/>
<line x1="36.000000" y1="104.000000" x2="40.000000" y2="104.000000"  style="stroke:black; stroke-linecap:round; stroke-width:0.25;"/>
<line x1="239.700000" y1="84.000000" x2="243.700000" y2="84.000000"  style="stroke:black; stroke-linecap:round; stroke-width:0.25;"/>
<line x1="239.700000" y1="92.000000" x2="243.700000" y2="92.000000"  style="stroke:black; stroke-linecap:round; stroke-width:0.25;"/>
<line x1="243.700000" y1="84.000000" x2="285.700000" y2="28.000000"  style="stroke:black; stroke-linecap:round; stroke-width:0.25;"/>
<line x1="243.700000" y1="84.000000" x2="285.700000" y2="44.000000"  style="stroke:black; stroke-linecap:round; stroke-width:0.25;"/>
<line x1="243.700000" y1="84.000000" x2="285.700000" y2="60.000000"  style="stroke:black; stroke-linecap:round; stroke-width:0.25;"/>
<line x1="243.700000" y1="84.000000" x2="285.700000" y2="76.000000"  style="stroke:black; stroke-linecap:round; stroke-width:0.25;"/>
<line x1="243.700000" y1="84.000000" x2="285.700000" y2="92.000000"  style="stroke:black; stroke-linecap:round; stroke-width:0.25;"/>
<line x1="243.700000" y1="84.000000" x2="285.700000" y2="108.000000"  style="stroke:black; stroke-linecap:round; stroke-width:0.25;"/>
<line x1="243.700000" y1="84.000000" x2="285.700000" y2="124.000000"  style="stroke:black; stroke-linecap:round; stroke-width:0.25;"/>
<line x1="243.700000" y1="84.000000" x2="285.700000" y2="140.000000"  style="stroke:black; stroke-linecap:round; stroke-width:0.25;"/>
<line x1="243.700000" y1="92.000000" x2="285.700000" y2="36.000000"  style="stroke:black; stroke-linecap:round; stroke-width:0.25;"/>
<line x1="243.700000" y1="92.000000" x2="285.700000" y2="52.000000"  style="stroke:black; stroke-linecap:round; stroke-width:0.25;"/>
<line x1="243.700000" y1="92.000000" x2="285.700000" y2="68.000000"  style="stroke:black; stroke-linecap:round; stroke-width:0.25;"/>
<line x1="243.700000" y1="92.000000" x2="285.700000" y2="84.000000"  style="stroke:black; stroke-linecap:round; stroke-width:0.25;"/>
<line x1="243.700000" y1="92.000000" x2="285.700000" y2="100.000000"  style="stroke:black; stroke-linecap:round; stroke-width:0.25;"/>
<line x1="243.700000" y1="92.000000" x2="285.700000" y2="116.000000"  style="stroke:black; stroke-linecap:round; stroke-width:0.25;"/>
<line x1="243.700000" y1="92.000000" x2="285.700000" y2="132.000000"  style="stroke:black; stroke-linecap:round; stroke-width:0.25;"/>
<line x1="243.700000" y1="92.000000" x2="285.700000" y2="148.000000"  style="stroke:black; stroke-linecap:round; stroke-width:0.25;"/>
<line x1="285.700000" y1="28.000000" x2="289.700000" y2="28.000000"  style="stroke:black; stroke-linecap:round; stroke-width:0.25;"/>
<line x1="285.700000" y1="36.000000" x2="289.700000" y2="36.000000"  style="stroke:black; stroke-linecap:round; stroke-width:0.25;"/>
<line x1="285.700000" y1="44.000000" x2="289.700000" y2="44.000000"  style="stroke:black; stroke-linecap:round; stroke-width:0.25;"/>
<line x1="285.700000" y1="52.000000" x2="289.700000" y2="52.000000"  style="stroke:black; stroke-linecap:round; stroke-width:0.25;"/>
<line x1="285.700000" y1="60.000000" x2="289.700000" y2="60.000000"  style="stroke:black; stroke-linecap:round; stroke-width:0.25;"/>
<line x1="285.700000" y1="68.000000" x2="289.700000" y2="68.000000"  style="stroke:black; stroke-linecap:round; stroke-width:0.25;"/>
<line x1="285.700000" y1="76.000000" x2="289.700000" y2="76.000000"  style="stroke:black; stroke-linecap:round; stroke-width:0.25;"/>
<line x1="285.700000" y1="84.000000" x2="289.700000" y2="84.000000"  style="stroke:black; stroke-linecap:round; stroke-width:0.25;"/>
<line x1="285.700000" y1="92.000000" x2="289.700000" y2="92.000000"  style="stroke:black; stroke-linecap:round; stroke-width:0.25;"/>
<line x1="285.700000" y1="100.000000" x2="289.700000" y2="100.000000"  style="stroke:black; stroke-linecap:round; stroke-width:0.25;"/>
<line x1="285.700000" y1="108.000000" x2="289.700000" y2="108.000000"  style="stroke:black; stroke-linecap:round; stroke-width:0.25;"/>
<line x1="285.700000" y1="116.000000" x2="289.700000" y2="116.000000"  style="stroke:black; stroke-linecap:round; stroke-width:0.25;"/>
<line x1="285.700000" y1="124.000000" x2="289.700000" y2="124.000000"  style="stroke:black; stroke-linecap:round; stroke-width:0.25;"/>
<line x1="285.700000" y1="132.000000" x2="289.700000" y2="132.000000"  style="stroke:black; stroke-linecap:round; stroke-width:0.25;"/>
<line x1="285.700000" y1="140.000000" x2="289.700000" y2="140.000000"  style="stroke:black; stroke-linecap:round; stroke-width:0.25;"/>
<line x1="285.700000" y1="148.000000" x2="289.700000" y2="148.000000"  style="stroke:black; stroke-linecap:round; stroke-width:0.25;"/>
<line x1="418.700000" y1="28.000000" x2="422.700000" y2="28.000000"  style="stroke:black; stroke-linecap:round; stroke-width:0.25;"/>
<line x1="418.700000" y1="36.000000" x2="422.700000" y2="36.000000"  style="stroke:black; stroke-linecap:round; stroke-width:0.25;"/>
<line x1="418.700000" y1="44.000000" x2="422.700000" y2="44.000000"  style="stroke:black; stroke-linecap:round; stroke-width:0.25;"/>
<line x1="418.700000" y1="52.000000" x2="422.700000" y2="52.000000"  style="stroke:black; stroke-linecap:round; stroke-width:0.25;"/>
<line x1="418.700000" y1="60.000000" x2="422.700000" y2="60.000000"  style="stroke:black; stroke-linecap:round; stroke-width:0.25;"/>
<line x1="418.700000" y1="68.000000" x2="422.700000" y2="68.000000"  style="stroke:black; stroke-linecap:round; stroke-width:0.25;"/>
<line x1="418.700000" y1="76.000000" x2="422.700000" y2="76.000000"  style="stroke:black; stroke-linecap:round; stroke-width:0.25;"/>
<line x1="418.700000" y1="84.000000" x2="422.700000" y2="84.000000"  style="stroke:black; stroke-linecap:round; stroke-width:0.25;"/>
<line x1="418.700000" y1="92.000000" x2="422.700000" y2="92.000000"  style="stroke:black; stroke-linecap:round; stroke-width:0.25;"/>
<line x1="418.700000" y1="100.000000" x2="422.700000" y2="100.000000"  style="stroke:black; stroke-linecap:round; stroke-width:0.25;"/>
<line x1="418.700000" y1="108.000000" x2="422.700000" y2="108.000000"  style="stroke:black; stroke-linecap:round; stroke-width:0.25;"/>
<line x1="418.700000" y1="116.000000" x2="422.700000" y2="116.000000"  style="stroke:black; stroke-linecap:round; stroke-width:0.25;"/>
<line x1="418.700000" y1="124.000000" x2="422.700000" y2="124.000000"  style="stroke:black; stroke-linecap:round; stroke-width:0.25;"/>
<line x1="418.700000" y1="132.000000" x2="422.700000" y2="132.000000"  style="stroke:black; stroke-linecap:round; stroke-width:0.25;"/>
<line x1="418.700000" y1="140.000000" x2="422.700000" y2="140.000000"  style="stroke:black; stroke-linecap:round; stroke-width:0.25;"/>
<line x1="418.700000" y1="148.000000" x2="422.700000" y2="148.000000"  style="stroke:black; stroke-linecap:round; stroke-width:0.25;"/>
<line x1="422.700000" y1="28.000000" x2="476.700000" y2="52.000000"  style="stroke:black; stroke-linecap:round; stroke-width:0.25;"/>
<line x1="422.700000" y1="36.000000" x2="476.700000" y2="92.000000"  style="stroke:black; stroke-linecap:round; stroke-width:0.25;"/>
<line x1="422.700000" y1="44.000000" x2="476.700000" y2="52.000000"  style="stroke:black; stroke-linecap:round; stroke-width:0.25;"/>
<line x1="422.700000" y1="52.000000" x2="476.700000" y2="92.000000"  style="stroke:black; stroke-linecap:round; stroke-width:0.25;"/>
<line x1="422.700000" y1="60.000000" x2="476.700000" y2="52.000000"  style="stroke:black; stroke-linecap:round; stroke-width:0.25;"/>
<line x1="422.700000" y1="68.000000" x2="476.700000" y2="92.000000"  style="stroke:black; stroke-linecap:round; stroke-width:0.25;"/>
<line x1="422.700000" y1="76.000000" x2="476.700000" y2="52.000000"  style="stroke:black; stroke-linecap:round; stroke-width:0.25;"/>
<line x1="422.700000" y1="84.000000" x2="476.700000" y2="92.000000"  style="stroke:black; stroke-linecap:round; stroke-width:0.25;"/>
<line x1="422.700000" y1="92.000000" x2="476.700000" y2="52.000000"  style="stroke:black; stroke-linecap:round; stroke-width:0.25;"/>
<line x1="422.700000" y1="100.000000" x2="476.700000" y2="92.000000"  style="stroke:black; stroke-linecap:round; stroke-width:0.25;"/>
<line x1="422.700000" y1="108.000000" x2="476.700000" y2="52.000000"  style="stroke:black; stroke-linecap:round; stroke-width:0.25;"/>
<line x1="422.700000" y1="116.000000" x2="476.700000" y2="92.000000"  style="stroke:black; stroke-linecap:round; stroke-width:0.25;"/>
<line x1="422.700000" y1="124.000000" x2="476.700000" y2="52.000000"  style="stroke:black; stroke-linecap:round; stroke-width:0.25;"/>
<line x1="422.700000" y1="132.000000" x2="476.700000" y2="92.000000"  style="stroke:black; stroke-linecap:round; stroke-width:0.25;"/>
<line x1="422.700000" y1="140.000000" x2="476.700000" y2="52.000000"  style="stroke:black; stroke-linecap:round; stroke-width:0.25;"/>
<line x1="422.700000" y1="148.000000" x2="476.700000" y2="92.000000"  style="stroke:black; stroke-linecap:round; stroke-width:0.25;"/>
<line x1="476.700000" y1="52.000000" x2="493.600000" y2="52.000000"  style="stroke:black; stroke-linecap:round; stroke-width:0.25;"/>
<line x1="476.700000" y1="92.000000" x2="493.600000" y2="92.000000"  style="stroke:black; stroke-linecap:round; stroke-width:0.25;"/>
<line x1="493.600000" y1="52.000000" x2="510.500000" y2="52.000000"  style="stroke:black; stroke-linecap:round; stroke-width:0.25;"/>
<line x1="493.600000" y1="92.000000" x2="510.500000" y2="92.000000"  style="stroke:black; stroke-linecap:round; stroke-width:0.25;"/>
<line x1="506.500000" y1="72.000000" x2="510.500000" y2="72.000000"  style="stroke:black; stroke-linecap:round; stroke-width:0.25;"/>
<line x1="506.500000" y1="112.000000" x2="510.500000" y2="112.000000"  style="stroke:black; stroke-linecap:round; stroke-width:0.25;"/>
<line x1="510.500000" y1="52.000000" x2="518.500000" y2="52.000000"  style="stroke:black; stroke-linecap:round; stroke-width:0.25;"/>
<line x1="510.500000" y1="92.000000" x2="518.500000" y2="92.000000"  style="stroke:black; stroke-linecap:round; stroke-width:0.25;"/>
<line x1="510.500000" y1="72.000000" x2="518.500000" y2="72.000000"  style="stroke:black; stroke-linecap:round; stroke-width:0.25;"/>
<line x1="510.500000" y1="112.000000" x2="518.500000" y2="112.000000"  style="stroke:black; stroke-linecap:round; stroke-width:0.25;"/>
<line x1="518.500000" y1="52.000000" x2="518.500000" y2="64.000000"  style="stroke:black; stroke-linecap:round; stroke-width:0.25;"/>
<line x1="518.500000" y1="64.000000" x2="518.500000" y2="64.000000"  style="stroke:black; stroke-linecap:round; stroke-width:0.25;"/>
<line x1="518.500000" y1="64.000000" x2="522.500000" y2="64.000000"  style="stroke:black; stroke-linecap:round; stroke-width:0.25;"/>
<line x1="518.500000" y1="72.000000" x2="522.500000" y2="72.000000"  style="stroke:black; stroke-linecap:round; stroke-width:0.25;"/>
<line x1="518.500000" y1="92.000000" x2="518.500000" y2="104.000000"  style="stroke:black; stroke-linecap:round; stroke-width:0.25;"/>
<line x1="518.500000" y1="104.000000" x2="518.500000" y2="104.000000"  style="stroke:black; stroke-linecap:round; stroke-width:0.25;"/>
<line x1="518.500000" y1="104.000000" x2="522.500000" y2="104.000000"  style="stroke:black; stroke-linecap:round; stroke-width:0.25;"/>
<line x1="518.500000" y1="112.000000" x2="522.500000" y2="112.000000"  style="stroke:black; stroke-linecap:round; stroke-width:0.25;"/>
<line x1="546.500000" y1="68.000000" x2="550.500000" y2="68.000000"  style="stroke:black; stroke-linecap:round; stroke-width:0.25;"/>
<line x1="546.500000" y1="108.000000" x2="550.500000" y2="108.000000"  style="stroke:black; stroke-linecap:round; stroke-width:0.25;"/>
<line x1="550.500000" y1="68.000000" x2="558.500000" y2="68.000000"  style="stroke:black; stroke-linecap:round; stroke-width:0.25;"/>
<line x1="550.500000" y1="92.000000" x2="558.500000" y2="92.000000"  style="stroke:black; stroke-linecap:round; stroke-width:0.25;"/>
<line x1="550.500000" y1="108.000000" x2="550.500000" y2="92.000000"  style="stroke:black; stroke-linecap:round; stroke-width:0.25;"/>
<line x1="550.500000" y1="108.000000" x2="550.500000" y2="108.000000"  style="stroke:black; stroke-linecap:round; stroke-width:0.25;"/>
<line x1="558.500000" y1="68.000000" x2="558.500000" y2="84.000000"  style="stroke:black; stroke-linecap:round; stroke-width:0.25;"/>
<line x1="558.500000" y1="84.000000" x2="558.500000" y2="84.000000"  style="stroke:black; stroke-linecap:round; stroke-width:0.25;"/>
<line x1="558.500000" y1="84.000000" x2="562.500000" y2="84.000000"  style="stroke:black; stroke-linecap:round; stroke-width:0.25;"/>
<line x1="558.500000" y1="92.000000" x2="562.500000" y2="92.000000"  style="stroke:black; stroke-linecap:round; stroke-width:0.25;"/>
<line x1="562.500000" y1="84.000000" x2="566.500000" y2="84.000000"  style="stroke:black; stroke-linecap:round; stroke-width:0.25;"/>
<line x1="562.500000" y1="92.000000" x2="566.500000" y2="92.000000"  style="stroke:black; stroke-linecap:round; stroke-width:0.25;"/>
<line x1="566.500000" y1="84.000000" x2="576.500000" y2="84.000000"  style="stroke:black; stroke-linecap:round; stroke-width:0.25;"/>
<line x1="566.500000" y1="92.000000" x2="576.500000" y2="92.000000"  style="stroke:black; stroke-linecap:round; stroke-width:0.25;"/>
</svg>
