<?xml version="1.0"?>
<svg xmlns="http://www.w3.org/2000/svg" xmlns:xlink="http://www.w3.org/1999/xlink" viewBox="0 0 234.300000 152.000000" width="117.150000mm" height="76.000000mm" version="1.1">
<a xlink:href="inx-0x7facb6b31870.svg">
<rect x="1.000000" y="1.000000" width="233.300000" height="151.000000" rx="0" ry="0" style="stroke:none;fill:#cccccc;"/>
<rect x="0.000000" y="0.000000" width="233.300000" height="151.000000" rx="0" ry="0" style="stroke:none;fill:#ffffff;"/>
</a>
<text x="10.000000" y="7.000000" font-family="Arial" font-size="7"></text>
<rect x="65.000000" y="65.000000" width="51.600000" height="24.000000" rx="0" ry="0" style="stroke:none;fill:#cccccc;"/>
<rect x="64.000000" y="64.000000" width="51.600000" height="24.000000" rx="0" ry="0" style="stroke:none;fill:#477881;"/>
<text x="89.800000" y="78.000000" font-family="Arial" font-size="7" text-anchor="middle" fill="#FFFFFF">button(Left)</text>
<circle cx="66.000000" cy="66.000000" r="1"/>
<line x1="55.000000" y1="55.000000" x2="55.000000" y2="97.000000"  style="stroke: black; stroke-linecap:round; stroke-width:0.25; stroke-dasharray:3,3;"/>
<line x1="55.000000" y1="97.000000" x2="124.600000" y2="97.000000"  style="stroke: black; stroke-linecap:round; stroke-width:0.25; stroke-dasharray:3,3;"/>
<line x1="124.600000" y1="97.000000" x2="124.600000" y2="55.000000"  style="stroke: black; stroke-linecap:round; stroke-width:0.25; stroke-dasharray:3,3;"/>
<line x1="55.000000" y1="55.000000" x2="60.000000" y2="55.000000"  style="stroke: black; stroke-linecap:round; stroke-width:0.25; stroke-dasharray:3,3;"/>
<line x1="124.600000" y1="55.000000" x2="124.600000" y2="55.000000"  style="stroke: black; stroke-linecap:round; stroke-width:0.25; stroke-dasharray:3,3;"/>
<text x="60.000000" y="57.000000" font-family="Arial" font-size="7">hgroup(Impulse Selection)</text>
<line x1="45.000000" y1="45.000000" x2="45.000000" y2="107.000000"  style="stroke: black; stroke-linecap:round; stroke-width:0.25; stroke-dasharray:3,3;"/>
<line x1="45.000000" y1="107.000000" x2="134.600000" y2="107.000000"  style="stroke: black; stroke-linecap:round; stroke-width:0.25; stroke-dasharray:3,3;"/>
<line x1="134.600000" y1="107.000000" x2="134.600000" y2="45.000000"  style="stroke: black; stroke-linecap:round; stroke-width:0.25; stroke-dasharray:3,3;"/>
<line x1="45.000000" y1="45.000000" x2="50.000000" y2="45.000000"  style="stroke: black; stroke-linecap:round; stroke-width:0.25; stroke-dasharray:3,3;"/>
<line x1="127.400000" y1="45.000000" x2="134.600000" y2="45.000000"  style="stroke: black; stroke-linecap:round; stroke-width:0.25; stroke-dasharray:3,3;"/>
<text x="50.000000" y="47.000000" font-family="Arial" font-size="7">hgroup(Input Controls)</text>
<line x1="35.000000" y1="35.000000" x2="35.000000" y2="117.000000"  style="stroke: black; stroke-linecap:round; stroke-width:0.25; stroke-dasharray:3,3;"/>
<line x1="35.000000" y1="117.000000" x2="144.600000" y2="117.000000"  style="stroke: black; stroke-linecap:round; stroke-width:0.25; stroke-dasharray:3,3;"/>
<line x1="144.600000" y1="117.000000" x2="144.600000" y2="35.000000"  style="stroke: black; stroke-linecap:round; stroke-width:0.25; stroke-dasharray:3,3;"/>
<line x1="35.000000" y1="35.000000" x2="40.000000" y2="35.000000"  style="stroke: black; stroke-linecap:round; stroke-width:0.25; stroke-dasharray:3,3;"/>
<line x1="144.600000" y1="35.000000" x2="144.600000" y2="35.000000"  style="stroke: black; stroke-linecap:round; stroke-width:0.25; stroke-dasharray:3,3;"/>
<text x="40.000000" y="37.000000" font-family="Arial" font-size="7">vgroup(FEEDBACK DELAY NETWORK (FDN) REVERBERATOR, ORDER 16)</text>
<line x1="25.000000" y1="25.000000" x2="25.000000" y2="127.000000"  style="stroke: black; stroke-linecap:round; stroke-width:0.25; stroke-dasharray:3,3;"/>
<line x1="25.000000" y1="127.000000" x2="154.600000" y2="127.000000"  style="stroke: black; stroke-linecap:round; stroke-width:0.25; stroke-dasharray:3,3;"/>
<line x1="154.600000" y1="127.000000" x2="154.600000" y2="25.000000"  style="stroke: black; stroke-linecap:round; stroke-width:0.25; stroke-dasharray:3,3;"/>
<line x1="25.000000" y1="25.000000" x2="30.000000" y2="25.000000"  style="stroke: black; stroke-linecap:round; stroke-width:0.25; stroke-dasharray:3,3;"/>
<line x1="129.975000" y1="25.000000" x2="154.600000" y2="25.000000"  style="stroke: black; stroke-linecap:round; stroke-width:0.25; stroke-dasharray:3,3;"/>
<text x="30.000000" y="27.000000" font-family="Arial" font-size="7">imp_group(but...FT channel]))</text>
<a xlink:href="impulsify-0x7facb189b4a0.svg">
<rect x="164.600000" y="65.000000" width="38.700000" height="24.000000" rx="0" ry="0" style="stroke:none;fill:#cccccc;"/>
<rect x="163.600000" y="64.000000" width="38.700000" height="24.000000" rx="0" ry="0" style="stroke:none;fill:#003366;"/>
</a>
<a xlink:href="impulsify-0x7facb189b4a0.svg">
<text x="182.950000" y="78.000000" font-family="Arial" font-size="7" text-anchor="middle" fill="#FFFFFF">impulsify</text>
</a>
<circle cx="165.600000" cy="66.000000" r="1"/>
<line x1="160.600000" y1="75.000000" x2="163.600000" y2="76.000000"  transform="rotate(0.000000,163.600000,76.000000)" style="stroke: black; stroke-width:0.25;"/>
<line x1="160.600000" y1="77.000000" x2="163.600000" y2="76.000000"  transform="rotate(0.000000,163.600000,76.000000)" style="stroke: black; stroke-width:0.25;"/>
<line x1="15.000000" y1="15.000000" x2="15.000000" y2="137.000000"  style="stroke: black; stroke-linecap:round; stroke-width:0.25; stroke-dasharray:3,3;"/>
<line x1="15.000000" y1="137.000000" x2="219.300000" y2="137.000000"  style="stroke: black; stroke-linecap:round; stroke-width:0.25; stroke-dasharray:3,3;"/>
<line x1="219.300000" y1="137.000000" x2="219.300000" y2="15.000000"  style="stroke: black; stroke-linecap:round; stroke-width:0.25; stroke-dasharray:3,3;"/>
<line x1="15.000000" y1="15.000000" x2="20.000000" y2="15.000000"  style="stroke: black; stroke-linecap:round; stroke-width:0.25; stroke-dasharray:3,3;"/>
<line x1="45.800000" y1="15.000000" x2="219.300000" y2="15.000000"  style="stroke: black; stroke-linecap:round; stroke-width:0.25; stroke-dasharray:3,3;"/>
<text x="20.000000" y="17.000000" font-family="Arial" font-size="7">pulseL</text>
<line x1="221.300000" y1="75.000000" x2="224.300000" y2="76.000000"  transform="rotate(0.000000,224.300000,76.000000)" style="stroke: black; stroke-width:0.25;"/>
<line x1="221.300000" y1="77.000000" x2="224.300000" y2="76.000000"  transform="rotate(0.000000,224.300000,76.000000)" style="stroke: black; stroke-width:0.25;"/>
<line x1="115.600000" y1="76.000000" x2="119.600000" y2="76.000000"  style="stroke:black; stroke-linecap:round; stroke-width:0.25;"/>
<line x1="119.600000" y1="76.000000" x2="129.600000" y2="76.000000"  style="stroke:black; stroke-linecap:round; stroke-width:0.25;"/>
<line x1="129.600000" y1="76.000000" x2="139.600000" y2="76.000000"  style="stroke:black; stroke-linecap:round; stroke-width:0.25;"/>
<line x1="139.600000" y1="76.000000" x2="149.600000" y2="76.000000"  style="stroke:black; stroke-linecap:round; stroke-width:0.25;"/>
<line x1="149.600000" y1="76.000000" x2="159.600000" y2="76.000000"  style="stroke:black; stroke-linecap:round; stroke-width:0.25;"/>
<line x1="159.600000" y1="76.000000" x2="159.600000" y2="76.000000"  style="stroke:black; stroke-linecap:round; stroke-width:0.25;"/>
<line x1="159.600000" y1="76.000000" x2="163.600000" y2="76.000000"  style="stroke:black; stroke-linecap:round; stroke-width:0.25;"/>
<line x1="202.300000" y1="76.000000" x2="206.300000" y2="76.000000"  style="stroke:black; stroke-linecap:round; stroke-width:0.25;"/>
<line x1="206.300000" y1="76.000000" x2="206.300000" y2="76.000000"  style="stroke:black; stroke-linecap:round; stroke-width:0.25;"/>
<line x1="206.300000" y1="76.000000" x2="210.300000" y2="76.000000"  style="stroke:black; stroke-linecap:round; stroke-width:0.25;"/>
<line x1="210.300000" y1="76.000000" x2="214.300000" y2="76.000000"  style="stroke:black; stroke-linecap:round; stroke-width:0.25;"/>
<line x1="214.300000" y1="76.000000" x2="224.300000" y2="76.000000"  style="stroke:black; stroke-linecap:round; stroke-width:0.25;"/>
</svg>
