<?xml version="1.0"?>
<svg xmlns="http://www.w3.org/2000/svg" xmlns:xlink="http://www.w3.org/1999/xlink" viewBox="0 0 386.000000 144.000000" width="193.000000mm" height="72.000000mm" version="1.1">
<a xlink:href="lp-0x7facb6b64420.svg">
<rect x="1.000000" y="1.000000" width="385.000000" height="143.000000" rx="0" ry="0" style="stroke:none;fill:#cccccc;"/>
<rect x="0.000000" y="0.000000" width="385.000000" height="143.000000" rx="0" ry="0" style="stroke:none;fill:#ffffff;"/>
</a>
<text x="10.000000" y="7.000000" font-family="Arial" font-size="7"></text>
<a xlink:href="b0d-0x7facb23c4b60.svg">
<rect x="89.000000" y="45.000000" width="24.000000" height="24.000000" rx="0" ry="0" style="stroke:none;fill:#cccccc;"/>
<rect x="88.000000" y="44.000000" width="24.000000" height="24.000000" rx="0" ry="0" style="stroke:none;fill:#003366;"/>
</a>
<a xlink:href="b0d-0x7facb23c4b60.svg">
<text x="100.000000" y="58.000000" font-family="Arial" font-size="7" text-anchor="middle" fill="#FFFFFF">b0d</text>
</a>
<circle cx="90.000000" cy="46.000000" r="1"/>
<rect x="129.000000" y="41.000000" width="24.000000" height="24.000000" rx="0" ry="0" style="stroke:none;fill:#cccccc;"/>
<rect x="128.000000" y="40.000000" width="24.000000" height="24.000000" rx="0" ry="0" style="stroke:none;fill:#4B71A1;"/>
<text x="140.000000" y="54.000000" font-family="Arial" font-size="7" text-anchor="middle" fill="#FFFFFF">*</text>
<circle cx="130.000000" cy="42.000000" r="1"/>
<line x1="125.000000" y1="47.000000" x2="128.000000" y2="48.000000"  transform="rotate(0.000000,128.000000,48.000000)" style="stroke: black; stroke-width:0.25;"/>
<line x1="125.000000" y1="49.000000" x2="128.000000" y2="48.000000"  transform="rotate(0.000000,128.000000,48.000000)" style="stroke: black; stroke-width:0.25;"/>
<line x1="125.000000" y1="55.000000" x2="128.000000" y2="56.000000"  transform="rotate(0.000000,128.000000,56.000000)" style="stroke: black; stroke-width:0.25;"/>
<line x1="125.000000" y1="57.000000" x2="128.000000" y2="56.000000"  transform="rotate(0.000000,128.000000,56.000000)" style="stroke: black; stroke-width:0.25;"/>
<rect x="69.000000" y="81.000000" width="24.000000" height="24.000000" rx="0" ry="0" style="stroke:none;fill:#cccccc;"/>
<rect x="68.000000" y="80.000000" width="24.000000" height="24.000000" rx="0" ry="0" style="stroke:none;fill:#4B71A1;"/>
<text x="80.000000" y="94.000000" font-family="Arial" font-size="7" text-anchor="middle" fill="#FFFFFF">mem</text>
<circle cx="70.000000" cy="82.000000" r="1"/>
<line x1="65.000000" y1="91.000000" x2="68.000000" y2="92.000000"  transform="rotate(0.000000,68.000000,92.000000)" style="stroke: black; stroke-width:0.25;"/>
<line x1="65.000000" y1="93.000000" x2="68.000000" y2="92.000000"  transform="rotate(0.000000,68.000000,92.000000)" style="stroke: black; stroke-width:0.25;"/>
<a xlink:href="b1d-0x7facb23c4150.svg">
<rect x="109.000000" y="85.000000" width="24.000000" height="24.000000" rx="0" ry="0" style="stroke:none;fill:#cccccc;"/>
<rect x="108.000000" y="84.000000" width="24.000000" height="24.000000" rx="0" ry="0" style="stroke:none;fill:#003366;"/>
</a>
<a xlink:href="b1d-0x7facb23c4150.svg">
<text x="120.000000" y="98.000000" font-family="Arial" font-size="7" text-anchor="middle" fill="#FFFFFF">b1d</text>
</a>
<circle cx="110.000000" cy="86.000000" r="1"/>
<rect x="149.000000" y="81.000000" width="24.000000" height="24.000000" rx="0" ry="0" style="stroke:none;fill:#cccccc;"/>
<rect x="148.000000" y="80.000000" width="24.000000" height="24.000000" rx="0" ry="0" style="stroke:none;fill:#4B71A1;"/>
<text x="160.000000" y="94.000000" font-family="Arial" font-size="7" text-anchor="middle" fill="#FFFFFF">*</text>
<circle cx="150.000000" cy="82.000000" r="1"/>
<line x1="145.000000" y1="87.000000" x2="148.000000" y2="88.000000"  transform="rotate(0.000000,148.000000,88.000000)" style="stroke: black; stroke-width:0.25;"/>
<line x1="145.000000" y1="89.000000" x2="148.000000" y2="88.000000"  transform="rotate(0.000000,148.000000,88.000000)" style="stroke: black; stroke-width:0.25;"/>
<line x1="145.000000" y1="95.000000" x2="148.000000" y2="96.000000"  transform="rotate(0.000000,148.000000,96.000000)" style="stroke: black; stroke-width:0.25;"/>
<line x1="145.000000" y1="97.000000" x2="148.000000" y2="96.000000"  transform="rotate(0.000000,148.000000,96.000000)" style="stroke: black; stroke-width:0.25;"/>
<rect x="275.000000" y="97.000000" width="24.000000" height="24.000000" rx="0" ry="0" style="stroke:none;fill:#cccccc;"/>
<rect x="274.000000" y="96.000000" width="24.000000" height="24.000000" rx="0" ry="0" style="stroke:none;fill:#4B71A1;"/>
<text x="286.000000" y="110.000000" font-family="Arial" font-size="7" text-anchor="middle" fill="#FFFFFF">+</text>
<circle cx="276.000000" cy="98.000000" r="1"/>
<line x1="271.000000" y1="103.000000" x2="274.000000" y2="104.000000"  transform="rotate(0.000000,274.000000,104.000000)" style="stroke: black; stroke-width:0.25;"/>
<line x1="271.000000" y1="105.000000" x2="274.000000" y2="104.000000"  transform="rotate(0.000000,274.000000,104.000000)" style="stroke: black; stroke-width:0.25;"/>
<line x1="271.000000" y1="111.000000" x2="274.000000" y2="112.000000"  transform="rotate(0.000000,274.000000,112.000000)" style="stroke: black; stroke-width:0.25;"/>
<line x1="271.000000" y1="113.000000" x2="274.000000" y2="112.000000"  transform="rotate(0.000000,274.000000,112.000000)" style="stroke: black; stroke-width:0.25;"/>
<rect x="315.000000" y="57.000000" width="24.000000" height="24.000000" rx="0" ry="0" style="stroke:none;fill:#cccccc;"/>
<rect x="314.000000" y="56.000000" width="24.000000" height="24.000000" rx="0" ry="0" style="stroke:none;fill:#f44800;"/>
<text x="326.000000" y="70.000000" font-family="Arial" font-size="7" text-anchor="middle" fill="#FFFFFF">0</text>
<circle cx="336.000000" cy="78.000000" r="1"/>
<a xlink:href="a1d-0x7facb234f650.svg">
<rect x="315.000000" y="25.000000" width="24.000000" height="24.000000" rx="0" ry="0" style="stroke:none;fill:#cccccc;"/>
<rect x="314.000000" y="24.000000" width="24.000000" height="24.000000" rx="0" ry="0" style="stroke:none;fill:#003366;"/>
</a>
<a xlink:href="a1d-0x7facb234f650.svg">
<text x="326.000000" y="38.000000" font-family="Arial" font-size="7" text-anchor="middle" fill="#FFFFFF">a1d</text>
</a>
<circle cx="336.000000" cy="46.000000" r="1"/>
<rect x="275.000000" y="41.000000" width="24.000000" height="24.000000" rx="0" ry="0" style="stroke:none;fill:#cccccc;"/>
<rect x="274.000000" y="40.000000" width="24.000000" height="24.000000" rx="0" ry="0" style="stroke:none;fill:#4B71A1;"/>
<text x="286.000000" y="54.000000" font-family="Arial" font-size="7" text-anchor="middle" fill="#FFFFFF">-</text>
<circle cx="296.000000" cy="62.000000" r="1"/>
<line x1="301.000000" y1="55.000000" x2="298.000000" y2="56.000000"  transform="rotate(0.000000,298.000000,56.000000)" style="stroke: black; stroke-width:0.25;"/>
<line x1="301.000000" y1="57.000000" x2="298.000000" y2="56.000000"  transform="rotate(0.000000,298.000000,56.000000)" style="stroke: black; stroke-width:0.25;"/>
<line x1="301.000000" y1="47.000000" x2="298.000000" y2="48.000000"  transform="rotate(0.000000,298.000000,48.000000)" style="stroke: black; stroke-width:0.25;"/>
<line x1="301.000000" y1="49.000000" x2="298.000000" y2="48.000000"  transform="rotate(0.000000,298.000000,48.000000)" style="stroke: black; stroke-width:0.25;"/>
<rect x="235.000000" y="45.000000" width="24.000000" height="24.000000" rx="0" ry="0" style="stroke:none;fill:#cccccc;"/>
<rect x="234.000000" y="44.000000" width="24.000000" height="24.000000" rx="0" ry="0" style="stroke:none;fill:#4B71A1;"/>
<text x="246.000000" y="58.000000" font-family="Arial" font-size="7" text-anchor="middle" fill="#FFFFFF">*</text>
<circle cx="256.000000" cy="66.000000" r="1"/>
<line x1="261.000000" y1="59.000000" x2="258.000000" y2="60.000000"  transform="rotate(0.000000,258.000000,60.000000)" style="stroke: black; stroke-width:0.25;"/>
<line x1="261.000000" y1="61.000000" x2="258.000000" y2="60.000000"  transform="rotate(0.000000,258.000000,60.000000)" style="stroke: black; stroke-width:0.25;"/>
<line x1="261.000000" y1="51.000000" x2="258.000000" y2="52.000000"  transform="rotate(0.000000,258.000000,52.000000)" style="stroke: black; stroke-width:0.25;"/>
<line x1="261.000000" y1="53.000000" x2="258.000000" y2="52.000000"  transform="rotate(0.000000,258.000000,52.000000)" style="stroke: black; stroke-width:0.25;"/>
<line x1="340.000000" y1="108.000000" x2="340.000000" y2="104.000000"  style="stroke:black; stroke-linecap:round; stroke-width:0.25;"/>
<line x1="340.000000" y1="104.000000" x2="344.000000" y2="104.000000"  style="stroke:black; stroke-linecap:round; stroke-width:0.25;"/>
<line x1="344.000000" y1="104.000000" x2="344.000000" y2="108.000000"  style="stroke:black; stroke-linecap:round; stroke-width:0.25;"/>
<line x1="15.000000" y1="15.000000" x2="15.000000" y2="129.000000"  style="stroke: black; stroke-linecap:round; stroke-width:0.25; stroke-dasharray:3,3;"/>
<line x1="15.000000" y1="129.000000" x2="371.000000" y2="129.000000"  style="stroke: black; stroke-linecap:round; stroke-width:0.25; stroke-dasharray:3,3;"/>
<line x1="371.000000" y1="129.000000" x2="371.000000" y2="15.000000"  style="stroke: black; stroke-linecap:round; stroke-width:0.25; stroke-dasharray:3,3;"/>
<line x1="15.000000" y1="15.000000" x2="20.000000" y2="15.000000"  style="stroke: black; stroke-linecap:round; stroke-width:0.25; stroke-dasharray:3,3;"/>
<line x1="119.975000" y1="15.000000" x2="371.000000" y2="15.000000"  style="stroke: black; stroke-linecap:round; stroke-width:0.25; stroke-dasharray:3,3;"/>
<text x="20.000000" y="17.000000" font-family="Arial" font-size="7">tf1s(0)(1)(1)...0000, 1))):*)</text>
<line x1="373.000000" y1="71.000000" x2="376.000000" y2="72.000000"  transform="rotate(0.000000,376.000000,72.000000)" style="stroke: black; stroke-width:0.25;"/>
<line x1="373.000000" y1="73.000000" x2="376.000000" y2="72.000000"  transform="rotate(0.000000,376.000000,72.000000)" style="stroke: black; stroke-width:0.25;"/>
<line x1="10.000000" y1="72.000000" x2="20.000000" y2="72.000000"  style="stroke:black; stroke-linecap:round; stroke-width:0.25;"/>
<line x1="20.000000" y1="72.000000" x2="24.000000" y2="72.000000"  style="stroke:black; stroke-linecap:round; stroke-width:0.25;"/>
<line x1="24.000000" y1="72.000000" x2="28.000000" y2="72.000000"  style="stroke:black; stroke-linecap:round; stroke-width:0.25;"/>
<line x1="28.000000" y1="72.000000" x2="28.000000" y2="72.000000"  style="stroke:black; stroke-linecap:round; stroke-width:0.25;"/>
<line x1="28.000000" y1="72.000000" x2="32.000000" y2="72.000000"  style="stroke:black; stroke-linecap:round; stroke-width:0.25;"/>
<line x1="32.000000" y1="72.000000" x2="36.000000" y2="72.000000"  style="stroke:black; stroke-linecap:round; stroke-width:0.25;"/>
<line x1="36.000000" y1="72.000000" x2="64.000000" y2="36.000000"  style="stroke:black; stroke-linecap:round; stroke-width:0.25;"/>
<line x1="36.000000" y1="72.000000" x2="64.000000" y2="92.000000"  style="stroke:black; stroke-linecap:round; stroke-width:0.25;"/>
<line x1="64.000000" y1="36.000000" x2="84.000000" y2="36.000000"  style="stroke:black; stroke-linecap:round; stroke-width:0.25;"/>
<line x1="64.000000" y1="92.000000" x2="68.000000" y2="92.000000"  style="stroke:black; stroke-linecap:round; stroke-width:0.25;"/>
<line x1="84.000000" y1="36.000000" x2="100.000000" y2="36.000000"  style="stroke:black; stroke-linecap:round; stroke-width:0.25;"/>
<line x1="92.000000" y1="92.000000" x2="96.000000" y2="92.000000"  style="stroke:black; stroke-linecap:round; stroke-width:0.25;"/>
<line x1="96.000000" y1="76.000000" x2="104.000000" y2="76.000000"  style="stroke:black; stroke-linecap:round; stroke-width:0.25;"/>
<line x1="96.000000" y1="92.000000" x2="96.000000" y2="76.000000"  style="stroke:black; stroke-linecap:round; stroke-width:0.25;"/>
<line x1="96.000000" y1="92.000000" x2="96.000000" y2="92.000000"  style="stroke:black; stroke-linecap:round; stroke-width:0.25;"/>
<line x1="100.000000" y1="36.000000" x2="116.000000" y2="36.000000"  style="stroke:black; stroke-linecap:round; stroke-width:0.25;"/>
<line x1="104.000000" y1="76.000000" x2="120.000000" y2="76.000000"  style="stroke:black; stroke-linecap:round; stroke-width:0.25;"/>
<line x1="112.000000" y1="56.000000" x2="116.000000" y2="56.000000"  style="stroke:black; stroke-linecap:round; stroke-width:0.25;"/>
<line x1="116.000000" y1="36.000000" x2="124.000000" y2="36.000000"  style="stroke:black; stroke-linecap:round; stroke-width:0.25;"/>
<line x1="116.000000" y1="56.000000" x2="124.000000" y2="56.000000"  style="stroke:black; stroke-linecap:round; stroke-width:0.25;"/>
<line x1="120.000000" y1="76.000000" x2="136.000000" y2="76.000000"  style="stroke:black; stroke-linecap:round; stroke-width:0.25;"/>
<line x1="124.000000" y1="36.000000" x2="124.000000" y2="48.000000"  style="stroke:black; stroke-linecap:round; stroke-width:0.25;"/>
<line x1="124.000000" y1="48.000000" x2="124.000000" y2="48.000000"  style="stroke:black; stroke-linecap:round; stroke-width:0.25;"/>
<line x1="124.000000" y1="48.000000" x2="128.000000" y2="48.000000"  style="stroke:black; stroke-linecap:round; stroke-width:0.25;"/>
<line x1="124.000000" y1="56.000000" x2="128.000000" y2="56.000000"  style="stroke:black; stroke-linecap:round; stroke-width:0.25;"/>
<line x1="132.000000" y1="96.000000" x2="136.000000" y2="96.000000"  style="stroke:black; stroke-linecap:round; stroke-width:0.25;"/>
<line x1="136.000000" y1="76.000000" x2="144.000000" y2="76.000000"  style="stroke:black; stroke-linecap:round; stroke-width:0.25;"/>
<line x1="136.000000" y1="96.000000" x2="144.000000" y2="96.000000"  style="stroke:black; stroke-linecap:round; stroke-width:0.25;"/>
<line x1="144.000000" y1="76.000000" x2="144.000000" y2="88.000000"  style="stroke:black; stroke-linecap:round; stroke-width:0.25;"/>
<line x1="144.000000" y1="88.000000" x2="144.000000" y2="88.000000"  style="stroke:black; stroke-linecap:round; stroke-width:0.25;"/>
<line x1="144.000000" y1="88.000000" x2="148.000000" y2="88.000000"  style="stroke:black; stroke-linecap:round; stroke-width:0.25;"/>
<line x1="144.000000" y1="96.000000" x2="148.000000" y2="96.000000"  style="stroke:black; stroke-linecap:round; stroke-width:0.25;"/>
<line x1="152.000000" y1="52.000000" x2="156.000000" y2="52.000000"  style="stroke:black; stroke-linecap:round; stroke-width:0.25;"/>
<line x1="156.000000" y1="52.000000" x2="176.000000" y2="52.000000"  style="stroke:black; stroke-linecap:round; stroke-width:0.25;"/>
<line x1="172.000000" y1="92.000000" x2="176.000000" y2="92.000000"  style="stroke:black; stroke-linecap:round; stroke-width:0.25;"/>
<line x1="176.000000" y1="52.000000" x2="222.000000" y2="112.000000"  style="stroke:black; stroke-linecap:round; stroke-width:0.25;"/>
<line x1="176.000000" y1="92.000000" x2="222.000000" y2="112.000000"  style="stroke:black; stroke-linecap:round; stroke-width:0.25;"/>
<line x1="222.000000" y1="112.000000" x2="230.000000" y2="112.000000"  style="stroke:black; stroke-linecap:round; stroke-width:0.25;"/>
<line x1="230.000000" y1="56.000000" x2="230.000000" y2="56.000000"  style="stroke:black; stroke-linecap:round; stroke-width:0.25;"/>
<line x1="230.000000" y1="56.000000" x2="230.000000" y2="104.000000"  style="stroke:black; stroke-linecap:round; stroke-width:0.25;"/>
<line x1="230.000000" y1="104.000000" x2="230.000000" y2="104.000000"  style="stroke:black; stroke-linecap:round; stroke-width:0.25;"/>
<line x1="230.000000" y1="104.000000" x2="270.000000" y2="104.000000"  style="stroke:black; stroke-linecap:round; stroke-width:0.25;"/>
<line x1="230.000000" y1="112.000000" x2="270.000000" y2="112.000000"  style="stroke:black; stroke-linecap:round; stroke-width:0.25;"/>
<line x1="234.000000" y1="56.000000" x2="230.000000" y2="56.000000"  style="stroke:black; stroke-linecap:round; stroke-width:0.25;"/>
<line x1="262.000000" y1="52.000000" x2="258.000000" y2="52.000000"  style="stroke:black; stroke-linecap:round; stroke-width:0.25;"/>
<line x1="262.000000" y1="60.000000" x2="258.000000" y2="60.000000"  style="stroke:black; stroke-linecap:round; stroke-width:0.25;"/>
<line x1="262.000000" y1="60.000000" x2="262.000000" y2="60.000000"  style="stroke:black; stroke-linecap:round; stroke-width:0.25;"/>
<line x1="262.000000" y1="88.000000" x2="262.000000" y2="60.000000"  style="stroke:black; stroke-linecap:round; stroke-width:0.25;"/>
<line x1="270.000000" y1="52.000000" x2="262.000000" y2="52.000000"  style="stroke:black; stroke-linecap:round; stroke-width:0.25;"/>
<line x1="270.000000" y1="88.000000" x2="262.000000" y2="88.000000"  style="stroke:black; stroke-linecap:round; stroke-width:0.25;"/>
<line x1="270.000000" y1="104.000000" x2="274.000000" y2="104.000000"  style="stroke:black; stroke-linecap:round; stroke-width:0.25;"/>
<line x1="270.000000" y1="112.000000" x2="274.000000" y2="112.000000"  style="stroke:black; stroke-linecap:round; stroke-width:0.25;"/>
<line x1="274.000000" y1="52.000000" x2="270.000000" y2="52.000000"  style="stroke:black; stroke-linecap:round; stroke-width:0.25;"/>
<line x1="298.000000" y1="108.000000" x2="302.000000" y2="108.000000"  style="stroke:black; stroke-linecap:round; stroke-width:0.25;"/>
<line x1="302.000000" y1="48.000000" x2="298.000000" y2="48.000000"  style="stroke:black; stroke-linecap:round; stroke-width:0.25;"/>
<line x1="302.000000" y1="56.000000" x2="298.000000" y2="56.000000"  style="stroke:black; stroke-linecap:round; stroke-width:0.25;"/>
<line x1="302.000000" y1="56.000000" x2="302.000000" y2="56.000000"  style="stroke:black; stroke-linecap:round; stroke-width:0.25;"/>
<line x1="302.000000" y1="68.000000" x2="302.000000" y2="56.000000"  style="stroke:black; stroke-linecap:round; stroke-width:0.25;"/>
<line x1="302.000000" y1="108.000000" x2="342.000000" y2="108.000000"  style="stroke:black; stroke-linecap:round; stroke-width:0.25;"/>
<line x1="306.000000" y1="88.000000" x2="270.000000" y2="88.000000"  style="stroke:black; stroke-linecap:round; stroke-width:0.25;"/>
<line x1="310.000000" y1="36.000000" x2="310.000000" y2="36.000000"  style="stroke:black; stroke-linecap:round; stroke-width:0.25;"/>
<line x1="310.000000" y1="36.000000" x2="310.000000" y2="48.000000"  style="stroke:black; stroke-linecap:round; stroke-width:0.25;"/>
<line x1="310.000000" y1="48.000000" x2="302.000000" y2="48.000000"  style="stroke:black; stroke-linecap:round; stroke-width:0.25;"/>
<line x1="310.000000" y1="68.000000" x2="302.000000" y2="68.000000"  style="stroke:black; stroke-linecap:round; stroke-width:0.25;"/>
<line x1="314.000000" y1="36.000000" x2="310.000000" y2="36.000000"  style="stroke:black; stroke-linecap:round; stroke-width:0.25;"/>
<line x1="314.000000" y1="68.000000" x2="310.000000" y2="68.000000"  style="stroke:black; stroke-linecap:round; stroke-width:0.25;"/>
<line x1="342.000000" y1="88.000000" x2="306.000000" y2="88.000000"  style="stroke:black; stroke-linecap:round; stroke-width:0.25;"/>
<line x1="342.000000" y1="88.000000" x2="342.000000" y2="88.000000"  style="stroke:black; stroke-linecap:round; stroke-width:0.25;"/>
<line x1="342.000000" y1="104.000000" x2="342.000000" y2="88.000000"  style="stroke:black; stroke-linecap:round; stroke-width:0.25;"/>
<line x1="342.000000" y1="108.000000" x2="344.000000" y2="108.000000"  style="stroke:black; stroke-linecap:round; stroke-width:0.25;"/>
<line x1="344.000000" y1="108.000000" x2="350.000000" y2="108.000000"  style="stroke:black; stroke-linecap:round; stroke-width:0.25;"/>
<line x1="350.000000" y1="72.000000" x2="358.000000" y2="72.000000"  style="stroke:black; stroke-linecap:round; stroke-width:0.25;"/>
<line x1="350.000000" y1="108.000000" x2="350.000000" y2="72.000000"  style="stroke:black; stroke-linecap:round; stroke-width:0.25;"/>
<line x1="350.000000" y1="108.000000" x2="350.000000" y2="108.000000"  style="stroke:black; stroke-linecap:round; stroke-width:0.25;"/>
<line x1="358.000000" y1="72.000000" x2="362.000000" y2="72.000000"  style="stroke:black; stroke-linecap:round; stroke-width:0.25;"/>
<line x1="362.000000" y1="72.000000" x2="366.000000" y2="72.000000"  style="stroke:black; stroke-linecap:round; stroke-width:0.25;"/>
<line x1="366.000000" y1="72.000000" x2="376.000000" y2="72.000000"  style="stroke:black; stroke-linecap:round; stroke-width:0.25;"/>
</svg>
