<?xml version="1.0"?>
<svg xmlns="http://www.w3.org/2000/svg" xmlns:xlink="http://www.w3.org/1999/xlink" viewBox="0 0 588.000000 192.000000" width="294.000000mm" height="96.000000mm" version="1.1">
<a xlink:href="lp-0x7facb6b634b0.svg">
<rect x="1.000000" y="1.000000" width="587.000000" height="191.000000" rx="0" ry="0" style="stroke:none;fill:#cccccc;"/>
<rect x="0.000000" y="0.000000" width="587.000000" height="191.000000" rx="0" ry="0" style="stroke:none;fill:#ffffff;"/>
</a>
<text x="10.000000" y="7.000000" font-family="Arial" font-size="7"></text>
<a xlink:href="sub-0x7facb6b5f4f0.svg">
<rect x="139.000000" y="125.000000" width="24.000000" height="24.000000" rx="0" ry="0" style="stroke:none;fill:#cccccc;"/>
<rect x="138.000000" y="124.000000" width="24.000000" height="24.000000" rx="0" ry="0" style="stroke:none;fill:#003366;"/>
</a>
<a xlink:href="sub-0x7facb6b5f4f0.svg">
<text x="150.000000" y="138.000000" font-family="Arial" font-size="7" text-anchor="middle" fill="#FFFFFF">sub</text>
</a>
<circle cx="140.000000" cy="126.000000" r="1"/>
<line x1="135.000000" y1="131.000000" x2="138.000000" y2="132.000000"  transform="rotate(0.000000,138.000000,132.000000)" style="stroke: black; stroke-width:0.25;"/>
<line x1="135.000000" y1="133.000000" x2="138.000000" y2="132.000000"  transform="rotate(0.000000,138.000000,132.000000)" style="stroke: black; stroke-width:0.25;"/>
<line x1="135.000000" y1="139.000000" x2="138.000000" y2="140.000000"  transform="rotate(0.000000,138.000000,140.000000)" style="stroke: black; stroke-width:0.25;"/>
<line x1="135.000000" y1="141.000000" x2="138.000000" y2="140.000000"  transform="rotate(0.000000,138.000000,140.000000)" style="stroke: black; stroke-width:0.25;"/>
<a xlink:href="a1d-0x7facb2293920.svg">
<rect x="159.000000" y="85.000000" width="24.000000" height="24.000000" rx="0" ry="0" style="stroke:none;fill:#cccccc;"/>
<rect x="158.000000" y="84.000000" width="24.000000" height="24.000000" rx="0" ry="0" style="stroke:none;fill:#003366;"/>
</a>
<a xlink:href="a1d-0x7facb2293920.svg">
<text x="170.000000" y="98.000000" font-family="Arial" font-size="7" text-anchor="middle" fill="#FFFFFF">a1d</text>
</a>
<circle cx="180.000000" cy="106.000000" r="1"/>
<rect x="119.000000" y="89.000000" width="24.000000" height="24.000000" rx="0" ry="0" style="stroke:none;fill:#cccccc;"/>
<rect x="118.000000" y="88.000000" width="24.000000" height="24.000000" rx="0" ry="0" style="stroke:none;fill:#4B71A1;"/>
<text x="130.000000" y="102.000000" font-family="Arial" font-size="7" text-anchor="middle" fill="#FFFFFF">*</text>
<circle cx="140.000000" cy="110.000000" r="1"/>
<line x1="145.000000" y1="103.000000" x2="142.000000" y2="104.000000"  transform="rotate(0.000000,142.000000,104.000000)" style="stroke: black; stroke-width:0.25;"/>
<line x1="145.000000" y1="105.000000" x2="142.000000" y2="104.000000"  transform="rotate(0.000000,142.000000,104.000000)" style="stroke: black; stroke-width:0.25;"/>
<line x1="145.000000" y1="95.000000" x2="142.000000" y2="96.000000"  transform="rotate(0.000000,142.000000,96.000000)" style="stroke: black; stroke-width:0.25;"/>
<line x1="145.000000" y1="97.000000" x2="142.000000" y2="96.000000"  transform="rotate(0.000000,142.000000,96.000000)" style="stroke: black; stroke-width:0.25;"/>
<rect x="199.000000" y="45.000000" width="24.000000" height="24.000000" rx="0" ry="0" style="stroke:none;fill:#cccccc;"/>
<rect x="198.000000" y="44.000000" width="24.000000" height="24.000000" rx="0" ry="0" style="stroke:none;fill:#f44800;"/>
<text x="210.000000" y="58.000000" font-family="Arial" font-size="7" text-anchor="middle" fill="#FFFFFF">1</text>
<circle cx="220.000000" cy="66.000000" r="1"/>
<rect x="159.000000" y="49.000000" width="24.000000" height="24.000000" rx="0" ry="0" style="stroke:none;fill:#cccccc;"/>
<rect x="158.000000" y="48.000000" width="24.000000" height="24.000000" rx="0" ry="0" style="stroke:none;fill:#4B71A1;"/>
<text x="170.000000" y="62.000000" font-family="Arial" font-size="7" text-anchor="middle" fill="#FFFFFF">@</text>
<circle cx="180.000000" cy="70.000000" r="1"/>
<line x1="185.000000" y1="63.000000" x2="182.000000" y2="64.000000"  transform="rotate(0.000000,182.000000,64.000000)" style="stroke: black; stroke-width:0.25;"/>
<line x1="185.000000" y1="65.000000" x2="182.000000" y2="64.000000"  transform="rotate(0.000000,182.000000,64.000000)" style="stroke: black; stroke-width:0.25;"/>
<line x1="185.000000" y1="55.000000" x2="182.000000" y2="56.000000"  transform="rotate(0.000000,182.000000,56.000000)" style="stroke: black; stroke-width:0.25;"/>
<line x1="185.000000" y1="57.000000" x2="182.000000" y2="56.000000"  transform="rotate(0.000000,182.000000,56.000000)" style="stroke: black; stroke-width:0.25;"/>
<a xlink:href="a2d-0x7facb22928a0.svg">
<rect x="119.000000" y="45.000000" width="24.000000" height="24.000000" rx="0" ry="0" style="stroke:none;fill:#cccccc;"/>
<rect x="118.000000" y="44.000000" width="24.000000" height="24.000000" rx="0" ry="0" style="stroke:none;fill:#003366;"/>
</a>
<a xlink:href="a2d-0x7facb22928a0.svg">
<text x="130.000000" y="58.000000" font-family="Arial" font-size="7" text-anchor="middle" fill="#FFFFFF">a2d</text>
</a>
<circle cx="140.000000" cy="66.000000" r="1"/>
<rect x="79.000000" y="49.000000" width="24.000000" height="24.000000" rx="0" ry="0" style="stroke:none;fill:#cccccc;"/>
<rect x="78.000000" y="48.000000" width="24.000000" height="24.000000" rx="0" ry="0" style="stroke:none;fill:#4B71A1;"/>
<text x="90.000000" y="62.000000" font-family="Arial" font-size="7" text-anchor="middle" fill="#FFFFFF">*</text>
<circle cx="100.000000" cy="70.000000" r="1"/>
<line x1="105.000000" y1="63.000000" x2="102.000000" y2="64.000000"  transform="rotate(0.000000,102.000000,64.000000)" style="stroke: black; stroke-width:0.25;"/>
<line x1="105.000000" y1="65.000000" x2="102.000000" y2="64.000000"  transform="rotate(0.000000,102.000000,64.000000)" style="stroke: black; stroke-width:0.25;"/>
<line x1="105.000000" y1="55.000000" x2="102.000000" y2="56.000000"  transform="rotate(0.000000,102.000000,56.000000)" style="stroke: black; stroke-width:0.25;"/>
<line x1="105.000000" y1="57.000000" x2="102.000000" y2="56.000000"  transform="rotate(0.000000,102.000000,56.000000)" style="stroke: black; stroke-width:0.25;"/>
<line x1="254.000000" y1="136.000000" x2="254.000000" y2="132.000000"  style="stroke:black; stroke-linecap:round; stroke-width:0.25;"/>
<line x1="254.000000" y1="132.000000" x2="258.000000" y2="132.000000"  style="stroke:black; stroke-linecap:round; stroke-width:0.25;"/>
<line x1="258.000000" y1="132.000000" x2="258.000000" y2="136.000000"  style="stroke:black; stroke-linecap:round; stroke-width:0.25;"/>
<a xlink:href="b0d-0x7facb2308c80.svg">
<rect x="385.000000" y="33.000000" width="24.000000" height="24.000000" rx="0" ry="0" style="stroke:none;fill:#cccccc;"/>
<rect x="384.000000" y="32.000000" width="24.000000" height="24.000000" rx="0" ry="0" style="stroke:none;fill:#003366;"/>
</a>
<a xlink:href="b0d-0x7facb2308c80.svg">
<text x="396.000000" y="46.000000" font-family="Arial" font-size="7" text-anchor="middle" fill="#FFFFFF">b0d</text>
</a>
<circle cx="386.000000" cy="34.000000" r="1"/>
<rect x="425.000000" y="29.000000" width="24.000000" height="24.000000" rx="0" ry="0" style="stroke:none;fill:#cccccc;"/>
<rect x="424.000000" y="28.000000" width="24.000000" height="24.000000" rx="0" ry="0" style="stroke:none;fill:#4B71A1;"/>
<text x="436.000000" y="42.000000" font-family="Arial" font-size="7" text-anchor="middle" fill="#FFFFFF">*</text>
<circle cx="426.000000" cy="30.000000" r="1"/>
<line x1="421.000000" y1="35.000000" x2="424.000000" y2="36.000000"  transform="rotate(0.000000,424.000000,36.000000)" style="stroke: black; stroke-width:0.25;"/>
<line x1="421.000000" y1="37.000000" x2="424.000000" y2="36.000000"  transform="rotate(0.000000,424.000000,36.000000)" style="stroke: black; stroke-width:0.25;"/>
<line x1="421.000000" y1="43.000000" x2="424.000000" y2="44.000000"  transform="rotate(0.000000,424.000000,44.000000)" style="stroke: black; stroke-width:0.25;"/>
<line x1="421.000000" y1="45.000000" x2="424.000000" y2="44.000000"  transform="rotate(0.000000,424.000000,44.000000)" style="stroke: black; stroke-width:0.25;"/>
<rect x="345.000000" y="73.000000" width="24.000000" height="24.000000" rx="0" ry="0" style="stroke:none;fill:#cccccc;"/>
<rect x="344.000000" y="72.000000" width="24.000000" height="24.000000" rx="0" ry="0" style="stroke:none;fill:#f44800;"/>
<text x="356.000000" y="86.000000" font-family="Arial" font-size="7" text-anchor="middle" fill="#FFFFFF">1</text>
<circle cx="346.000000" cy="74.000000" r="1"/>
<rect x="385.000000" y="69.000000" width="24.000000" height="24.000000" rx="0" ry="0" style="stroke:none;fill:#cccccc;"/>
<rect x="384.000000" y="68.000000" width="24.000000" height="24.000000" rx="0" ry="0" style="stroke:none;fill:#4B71A1;"/>
<text x="396.000000" y="82.000000" font-family="Arial" font-size="7" text-anchor="middle" fill="#FFFFFF">@</text>
<circle cx="386.000000" cy="70.000000" r="1"/>
<line x1="381.000000" y1="75.000000" x2="384.000000" y2="76.000000"  transform="rotate(0.000000,384.000000,76.000000)" style="stroke: black; stroke-width:0.25;"/>
<line x1="381.000000" y1="77.000000" x2="384.000000" y2="76.000000"  transform="rotate(0.000000,384.000000,76.000000)" style="stroke: black; stroke-width:0.25;"/>
<line x1="381.000000" y1="83.000000" x2="384.000000" y2="84.000000"  transform="rotate(0.000000,384.000000,84.000000)" style="stroke: black; stroke-width:0.25;"/>
<line x1="381.000000" y1="85.000000" x2="384.000000" y2="84.000000"  transform="rotate(0.000000,384.000000,84.000000)" style="stroke: black; stroke-width:0.25;"/>
<a xlink:href="b1d-0x7facb2307fa0.svg">
<rect x="425.000000" y="73.000000" width="24.000000" height="24.000000" rx="0" ry="0" style="stroke:none;fill:#cccccc;"/>
<rect x="424.000000" y="72.000000" width="24.000000" height="24.000000" rx="0" ry="0" style="stroke:none;fill:#003366;"/>
</a>
<a xlink:href="b1d-0x7facb2307fa0.svg">
<text x="436.000000" y="86.000000" font-family="Arial" font-size="7" text-anchor="middle" fill="#FFFFFF">b1d</text>
</a>
<circle cx="426.000000" cy="74.000000" r="1"/>
<rect x="465.000000" y="69.000000" width="24.000000" height="24.000000" rx="0" ry="0" style="stroke:none;fill:#cccccc;"/>
<rect x="464.000000" y="68.000000" width="24.000000" height="24.000000" rx="0" ry="0" style="stroke:none;fill:#4B71A1;"/>
<text x="476.000000" y="82.000000" font-family="Arial" font-size="7" text-anchor="middle" fill="#FFFFFF">*</text>
<circle cx="466.000000" cy="70.000000" r="1"/>
<line x1="461.000000" y1="75.000000" x2="464.000000" y2="76.000000"  transform="rotate(0.000000,464.000000,76.000000)" style="stroke: black; stroke-width:0.25;"/>
<line x1="461.000000" y1="77.000000" x2="464.000000" y2="76.000000"  transform="rotate(0.000000,464.000000,76.000000)" style="stroke: black; stroke-width:0.25;"/>
<line x1="461.000000" y1="83.000000" x2="464.000000" y2="84.000000"  transform="rotate(0.000000,464.000000,84.000000)" style="stroke: black; stroke-width:0.25;"/>
<line x1="461.000000" y1="85.000000" x2="464.000000" y2="84.000000"  transform="rotate(0.000000,464.000000,84.000000)" style="stroke: black; stroke-width:0.25;"/>
<rect x="325.000000" y="113.000000" width="24.000000" height="24.000000" rx="0" ry="0" style="stroke:none;fill:#cccccc;"/>
<rect x="324.000000" y="112.000000" width="24.000000" height="24.000000" rx="0" ry="0" style="stroke:none;fill:#f44800;"/>
<text x="336.000000" y="126.000000" font-family="Arial" font-size="7" text-anchor="middle" fill="#FFFFFF">1</text>
<circle cx="326.000000" cy="114.000000" r="1"/>
<rect x="325.000000" y="145.000000" width="24.000000" height="24.000000" rx="0" ry="0" style="stroke:none;fill:#cccccc;"/>
<rect x="324.000000" y="144.000000" width="24.000000" height="24.000000" rx="0" ry="0" style="stroke:none;fill:#f44800;"/>
<text x="336.000000" y="158.000000" font-family="Arial" font-size="7" text-anchor="middle" fill="#FFFFFF">1</text>
<circle cx="326.000000" cy="146.000000" r="1"/>
<rect x="365.000000" y="129.000000" width="24.000000" height="24.000000" rx="0" ry="0" style="stroke:none;fill:#cccccc;"/>
<rect x="364.000000" y="128.000000" width="24.000000" height="24.000000" rx="0" ry="0" style="stroke:none;fill:#4B71A1;"/>
<text x="376.000000" y="142.000000" font-family="Arial" font-size="7" text-anchor="middle" fill="#FFFFFF">+</text>
<circle cx="366.000000" cy="130.000000" r="1"/>
<line x1="361.000000" y1="135.000000" x2="364.000000" y2="136.000000"  transform="rotate(0.000000,364.000000,136.000000)" style="stroke: black; stroke-width:0.25;"/>
<line x1="361.000000" y1="137.000000" x2="364.000000" y2="136.000000"  transform="rotate(0.000000,364.000000,136.000000)" style="stroke: black; stroke-width:0.25;"/>
<line x1="361.000000" y1="143.000000" x2="364.000000" y2="144.000000"  transform="rotate(0.000000,364.000000,144.000000)" style="stroke: black; stroke-width:0.25;"/>
<line x1="361.000000" y1="145.000000" x2="364.000000" y2="144.000000"  transform="rotate(0.000000,364.000000,144.000000)" style="stroke: black; stroke-width:0.25;"/>
<rect x="405.000000" y="125.000000" width="24.000000" height="24.000000" rx="0" ry="0" style="stroke:none;fill:#cccccc;"/>
<rect x="404.000000" y="124.000000" width="24.000000" height="24.000000" rx="0" ry="0" style="stroke:none;fill:#4B71A1;"/>
<text x="416.000000" y="138.000000" font-family="Arial" font-size="7" text-anchor="middle" fill="#FFFFFF">@</text>
<circle cx="406.000000" cy="126.000000" r="1"/>
<line x1="401.000000" y1="131.000000" x2="404.000000" y2="132.000000"  transform="rotate(0.000000,404.000000,132.000000)" style="stroke: black; stroke-width:0.25;"/>
<line x1="401.000000" y1="133.000000" x2="404.000000" y2="132.000000"  transform="rotate(0.000000,404.000000,132.000000)" style="stroke: black; stroke-width:0.25;"/>
<line x1="401.000000" y1="139.000000" x2="404.000000" y2="140.000000"  transform="rotate(0.000000,404.000000,140.000000)" style="stroke: black; stroke-width:0.25;"/>
<line x1="401.000000" y1="141.000000" x2="404.000000" y2="140.000000"  transform="rotate(0.000000,404.000000,140.000000)" style="stroke: black; stroke-width:0.25;"/>
<a xlink:href="b2d-0x7facb2307020.svg">
<rect x="445.000000" y="129.000000" width="24.000000" height="24.000000" rx="0" ry="0" style="stroke:none;fill:#cccccc;"/>
<rect x="444.000000" y="128.000000" width="24.000000" height="24.000000" rx="0" ry="0" style="stroke:none;fill:#003366;"/>
</a>
<a xlink:href="b2d-0x7facb2307020.svg">
<text x="456.000000" y="142.000000" font-family="Arial" font-size="7" text-anchor="middle" fill="#FFFFFF">b2d</text>
</a>
<circle cx="446.000000" cy="130.000000" r="1"/>
<rect x="485.000000" y="125.000000" width="24.000000" height="24.000000" rx="0" ry="0" style="stroke:none;fill:#cccccc;"/>
<rect x="484.000000" y="124.000000" width="24.000000" height="24.000000" rx="0" ry="0" style="stroke:none;fill:#4B71A1;"/>
<text x="496.000000" y="138.000000" font-family="Arial" font-size="7" text-anchor="middle" fill="#FFFFFF">*</text>
<circle cx="486.000000" cy="126.000000" r="1"/>
<line x1="481.000000" y1="131.000000" x2="484.000000" y2="132.000000"  transform="rotate(0.000000,484.000000,132.000000)" style="stroke: black; stroke-width:0.25;"/>
<line x1="481.000000" y1="133.000000" x2="484.000000" y2="132.000000"  transform="rotate(0.000000,484.000000,132.000000)" style="stroke: black; stroke-width:0.25;"/>
<line x1="481.000000" y1="139.000000" x2="484.000000" y2="140.000000"  transform="rotate(0.000000,484.000000,140.000000)" style="stroke: black; stroke-width:0.25;"/>
<line x1="481.000000" y1="141.000000" x2="484.000000" y2="140.000000"  transform="rotate(0.000000,484.000000,140.000000)" style="stroke: black; stroke-width:0.25;"/>
<line x1="15.000000" y1="15.000000" x2="15.000000" y2="177.000000"  style="stroke: black; stroke-linecap:round; stroke-width:0.25; stroke-dasharray:3,3;"/>
<line x1="15.000000" y1="177.000000" x2="573.000000" y2="177.000000"  style="stroke: black; stroke-linecap:round; stroke-width:0.25; stroke-dasharray:3,3;"/>
<line x1="573.000000" y1="177.000000" x2="573.000000" y2="15.000000"  style="stroke: black; stroke-linecap:round; stroke-width:0.25; stroke-dasharray:3,3;"/>
<line x1="15.000000" y1="15.000000" x2="20.000000" y2="15.000000"  style="stroke: black; stroke-linecap:round; stroke-width:0.25; stroke-dasharray:3,3;"/>
<line x1="119.975000" y1="15.000000" x2="573.000000" y2="15.000000"  style="stroke: black; stroke-linecap:round; stroke-width:0.25; stroke-dasharray:3,3;"/>
<text x="20.000000" y="17.000000" font-family="Arial" font-size="7">tf2s(0)(0)(1)...0000, 1))):*)</text>
<line x1="575.000000" y1="95.000000" x2="578.000000" y2="96.000000"  transform="rotate(0.000000,578.000000,96.000000)" style="stroke: black; stroke-width:0.25;"/>
<line x1="575.000000" y1="97.000000" x2="578.000000" y2="96.000000"  transform="rotate(0.000000,578.000000,96.000000)" style="stroke: black; stroke-width:0.25;"/>
<line x1="10.000000" y1="96.000000" x2="20.000000" y2="96.000000"  style="stroke:black; stroke-linecap:round; stroke-width:0.25;"/>
<line x1="20.000000" y1="96.000000" x2="24.000000" y2="96.000000"  style="stroke:black; stroke-linecap:round; stroke-width:0.25;"/>
<line x1="24.000000" y1="96.000000" x2="28.000000" y2="96.000000"  style="stroke:black; stroke-linecap:round; stroke-width:0.25;"/>
<line x1="28.000000" y1="96.000000" x2="36.000000" y2="96.000000"  style="stroke:black; stroke-linecap:round; stroke-width:0.25;"/>
<line x1="36.000000" y1="96.000000" x2="36.000000" y2="140.000000"  style="stroke:black; stroke-linecap:round; stroke-width:0.25;"/>
<line x1="36.000000" y1="140.000000" x2="36.000000" y2="140.000000"  style="stroke:black; stroke-linecap:round; stroke-width:0.25;"/>
<line x1="36.000000" y1="140.000000" x2="44.000000" y2="140.000000"  style="stroke:black; stroke-linecap:round; stroke-width:0.25;"/>
<line x1="44.000000" y1="80.000000" x2="44.000000" y2="80.000000"  style="stroke:black; stroke-linecap:round; stroke-width:0.25;"/>
<line x1="44.000000" y1="80.000000" x2="44.000000" y2="132.000000"  style="stroke:black; stroke-linecap:round; stroke-width:0.25;"/>
<line x1="44.000000" y1="132.000000" x2="44.000000" y2="132.000000"  style="stroke:black; stroke-linecap:round; stroke-width:0.25;"/>
<line x1="44.000000" y1="132.000000" x2="134.000000" y2="132.000000"  style="stroke:black; stroke-linecap:round; stroke-width:0.25;"/>
<line x1="44.000000" y1="140.000000" x2="134.000000" y2="140.000000"  style="stroke:black; stroke-linecap:round; stroke-width:0.25;"/>
<line x1="48.000000" y1="80.000000" x2="44.000000" y2="80.000000"  style="stroke:black; stroke-linecap:round; stroke-width:0.25;"/>
<line x1="52.000000" y1="80.000000" x2="48.000000" y2="80.000000"  style="stroke:black; stroke-linecap:round; stroke-width:0.25;"/>
<line x1="74.000000" y1="60.000000" x2="52.000000" y2="80.000000"  style="stroke:black; stroke-linecap:round; stroke-width:0.25;"/>
<line x1="74.000000" y1="100.000000" x2="52.000000" y2="80.000000"  style="stroke:black; stroke-linecap:round; stroke-width:0.25;"/>
<line x1="78.000000" y1="60.000000" x2="74.000000" y2="60.000000"  style="stroke:black; stroke-linecap:round; stroke-width:0.25;"/>
<line x1="106.000000" y1="56.000000" x2="102.000000" y2="56.000000"  style="stroke:black; stroke-linecap:round; stroke-width:0.25;"/>
<line x1="106.000000" y1="64.000000" x2="102.000000" y2="64.000000"  style="stroke:black; stroke-linecap:round; stroke-width:0.25;"/>
<line x1="106.000000" y1="64.000000" x2="106.000000" y2="64.000000"  style="stroke:black; stroke-linecap:round; stroke-width:0.25;"/>
<line x1="106.000000" y1="76.000000" x2="106.000000" y2="64.000000"  style="stroke:black; stroke-linecap:round; stroke-width:0.25;"/>
<line x1="114.000000" y1="56.000000" x2="106.000000" y2="56.000000"  style="stroke:black; stroke-linecap:round; stroke-width:0.25;"/>
<line x1="114.000000" y1="76.000000" x2="106.000000" y2="76.000000"  style="stroke:black; stroke-linecap:round; stroke-width:0.25;"/>
<line x1="114.000000" y1="100.000000" x2="74.000000" y2="100.000000"  style="stroke:black; stroke-linecap:round; stroke-width:0.25;"/>
<line x1="118.000000" y1="56.000000" x2="114.000000" y2="56.000000"  style="stroke:black; stroke-linecap:round; stroke-width:0.25;"/>
<line x1="118.000000" y1="100.000000" x2="114.000000" y2="100.000000"  style="stroke:black; stroke-linecap:round; stroke-width:0.25;"/>
<line x1="130.000000" y1="76.000000" x2="114.000000" y2="76.000000"  style="stroke:black; stroke-linecap:round; stroke-width:0.25;"/>
<line x1="134.000000" y1="132.000000" x2="138.000000" y2="132.000000"  style="stroke:black; stroke-linecap:round; stroke-width:0.25;"/>
<line x1="134.000000" y1="140.000000" x2="138.000000" y2="140.000000"  style="stroke:black; stroke-linecap:round; stroke-width:0.25;"/>
<line x1="146.000000" y1="76.000000" x2="130.000000" y2="76.000000"  style="stroke:black; stroke-linecap:round; stroke-width:0.25;"/>
<line x1="146.000000" y1="96.000000" x2="142.000000" y2="96.000000"  style="stroke:black; stroke-linecap:round; stroke-width:0.25;"/>
<line x1="146.000000" y1="104.000000" x2="142.000000" y2="104.000000"  style="stroke:black; stroke-linecap:round; stroke-width:0.25;"/>
<line x1="146.000000" y1="104.000000" x2="146.000000" y2="104.000000"  style="stroke:black; stroke-linecap:round; stroke-width:0.25;"/>
<line x1="146.000000" y1="116.000000" x2="146.000000" y2="104.000000"  style="stroke:black; stroke-linecap:round; stroke-width:0.25;"/>
<line x1="154.000000" y1="60.000000" x2="154.000000" y2="60.000000"  style="stroke:black; stroke-linecap:round; stroke-width:0.25;"/>
<line x1="154.000000" y1="60.000000" x2="154.000000" y2="76.000000"  style="stroke:black; stroke-linecap:round; stroke-width:0.25;"/>
<line x1="154.000000" y1="76.000000" x2="146.000000" y2="76.000000"  style="stroke:black; stroke-linecap:round; stroke-width:0.25;"/>
<line x1="154.000000" y1="96.000000" x2="146.000000" y2="96.000000"  style="stroke:black; stroke-linecap:round; stroke-width:0.25;"/>
<line x1="154.000000" y1="116.000000" x2="146.000000" y2="116.000000"  style="stroke:black; stroke-linecap:round; stroke-width:0.25;"/>
<line x1="158.000000" y1="60.000000" x2="154.000000" y2="60.000000"  style="stroke:black; stroke-linecap:round; stroke-width:0.25;"/>
<line x1="158.000000" y1="96.000000" x2="154.000000" y2="96.000000"  style="stroke:black; stroke-linecap:round; stroke-width:0.25;"/>
<line x1="162.000000" y1="136.000000" x2="166.000000" y2="136.000000"  style="stroke:black; stroke-linecap:round; stroke-width:0.25;"/>
<line x1="166.000000" y1="136.000000" x2="256.000000" y2="136.000000"  style="stroke:black; stroke-linecap:round; stroke-width:0.25;"/>
<line x1="170.000000" y1="116.000000" x2="154.000000" y2="116.000000"  style="stroke:black; stroke-linecap:round; stroke-width:0.25;"/>
<line x1="186.000000" y1="56.000000" x2="182.000000" y2="56.000000"  style="stroke:black; stroke-linecap:round; stroke-width:0.25;"/>
<line x1="186.000000" y1="64.000000" x2="182.000000" y2="64.000000"  style="stroke:black; stroke-linecap:round; stroke-width:0.25;"/>
<line x1="186.000000" y1="64.000000" x2="186.000000" y2="64.000000"  style="stroke:black; stroke-linecap:round; stroke-width:0.25;"/>
<line x1="186.000000" y1="76.000000" x2="186.000000" y2="64.000000"  style="stroke:black; stroke-linecap:round; stroke-width:0.25;"/>
<line x1="186.000000" y1="116.000000" x2="170.000000" y2="116.000000"  style="stroke:black; stroke-linecap:round; stroke-width:0.25;"/>
<line x1="194.000000" y1="56.000000" x2="186.000000" y2="56.000000"  style="stroke:black; stroke-linecap:round; stroke-width:0.25;"/>
<line x1="194.000000" y1="76.000000" x2="186.000000" y2="76.000000"  style="stroke:black; stroke-linecap:round; stroke-width:0.25;"/>
<line x1="198.000000" y1="56.000000" x2="194.000000" y2="56.000000"  style="stroke:black; stroke-linecap:round; stroke-width:0.25;"/>
<line x1="210.000000" y1="76.000000" x2="194.000000" y2="76.000000"  style="stroke:black; stroke-linecap:round; stroke-width:0.25;"/>
<line x1="226.000000" y1="76.000000" x2="210.000000" y2="76.000000"  style="stroke:black; stroke-linecap:round; stroke-width:0.25;"/>
<line x1="226.000000" y1="116.000000" x2="186.000000" y2="116.000000"  style="stroke:black; stroke-linecap:round; stroke-width:0.25;"/>
<line x1="248.000000" y1="80.000000" x2="226.000000" y2="76.000000"  style="stroke:black; stroke-linecap:round; stroke-width:0.25;"/>
<line x1="248.000000" y1="80.000000" x2="226.000000" y2="116.000000"  style="stroke:black; stroke-linecap:round; stroke-width:0.25;"/>
<line x1="252.000000" y1="80.000000" x2="248.000000" y2="80.000000"  style="stroke:black; stroke-linecap:round; stroke-width:0.25;"/>
<line x1="256.000000" y1="80.000000" x2="252.000000" y2="80.000000"  style="stroke:black; stroke-linecap:round; stroke-width:0.25;"/>
<line x1="256.000000" y1="80.000000" x2="256.000000" y2="80.000000"  style="stroke:black; stroke-linecap:round; stroke-width:0.25;"/>
<line x1="256.000000" y1="132.000000" x2="256.000000" y2="80.000000"  style="stroke:black; stroke-linecap:round; stroke-width:0.25;"/>
<line x1="256.000000" y1="136.000000" x2="258.000000" y2="136.000000"  style="stroke:black; stroke-linecap:round; stroke-width:0.25;"/>
<line x1="258.000000" y1="136.000000" x2="264.000000" y2="136.000000"  style="stroke:black; stroke-linecap:round; stroke-width:0.25;"/>
<line x1="264.000000" y1="96.000000" x2="272.000000" y2="96.000000"  style="stroke:black; stroke-linecap:round; stroke-width:0.25;"/>
<line x1="264.000000" y1="136.000000" x2="264.000000" y2="96.000000"  style="stroke:black; stroke-linecap:round; stroke-width:0.25;"/>
<line x1="264.000000" y1="136.000000" x2="264.000000" y2="136.000000"  style="stroke:black; stroke-linecap:round; stroke-width:0.25;"/>
<line x1="272.000000" y1="96.000000" x2="276.000000" y2="96.000000"  style="stroke:black; stroke-linecap:round; stroke-width:0.25;"/>
<line x1="276.000000" y1="96.000000" x2="280.000000" y2="96.000000"  style="stroke:black; stroke-linecap:round; stroke-width:0.25;"/>
<line x1="280.000000" y1="96.000000" x2="320.000000" y2="24.000000"  style="stroke:black; stroke-linecap:round; stroke-width:0.25;"/>
<line x1="280.000000" y1="96.000000" x2="320.000000" y2="64.000000"  style="stroke:black; stroke-linecap:round; stroke-width:0.25;"/>
<line x1="280.000000" y1="96.000000" x2="320.000000" y2="104.000000"  style="stroke:black; stroke-linecap:round; stroke-width:0.25;"/>
<line x1="320.000000" y1="24.000000" x2="380.000000" y2="24.000000"  style="stroke:black; stroke-linecap:round; stroke-width:0.25;"/>
<line x1="320.000000" y1="64.000000" x2="340.000000" y2="64.000000"  style="stroke:black; stroke-linecap:round; stroke-width:0.25;"/>
<line x1="320.000000" y1="104.000000" x2="356.000000" y2="104.000000"  style="stroke:black; stroke-linecap:round; stroke-width:0.25;"/>
<line x1="340.000000" y1="64.000000" x2="356.000000" y2="64.000000"  style="stroke:black; stroke-linecap:round; stroke-width:0.25;"/>
<line x1="348.000000" y1="124.000000" x2="352.000000" y2="124.000000"  style="stroke:black; stroke-linecap:round; stroke-width:0.25;"/>
<line x1="348.000000" y1="156.000000" x2="352.000000" y2="156.000000"  style="stroke:black; stroke-linecap:round; stroke-width:0.25;"/>
<line x1="352.000000" y1="124.000000" x2="360.000000" y2="124.000000"  style="stroke:black; stroke-linecap:round; stroke-width:0.25;"/>
<line x1="352.000000" y1="144.000000" x2="360.000000" y2="144.000000"  style="stroke:black; stroke-linecap:round; stroke-width:0.25;"/>
<line x1="352.000000" y1="156.000000" x2="352.000000" y2="144.000000"  style="stroke:black; stroke-linecap:round; stroke-width:0.25;"/>
<line x1="352.000000" y1="156.000000" x2="352.000000" y2="156.000000"  style="stroke:black; stroke-linecap:round; stroke-width:0.25;"/>
<line x1="356.000000" y1="64.000000" x2="372.000000" y2="64.000000"  style="stroke:black; stroke-linecap:round; stroke-width:0.25;"/>
<line x1="356.000000" y1="104.000000" x2="392.000000" y2="104.000000"  style="stroke:black; stroke-linecap:round; stroke-width:0.25;"/>
<line x1="360.000000" y1="124.000000" x2="360.000000" y2="136.000000"  style="stroke:black; stroke-linecap:round; stroke-width:0.25;"/>
<line x1="360.000000" y1="136.000000" x2="360.000000" y2="136.000000"  style="stroke:black; stroke-linecap:round; stroke-width:0.25;"/>
<line x1="360.000000" y1="136.000000" x2="364.000000" y2="136.000000"  style="stroke:black; stroke-linecap:round; stroke-width:0.25;"/>
<line x1="360.000000" y1="144.000000" x2="364.000000" y2="144.000000"  style="stroke:black; stroke-linecap:round; stroke-width:0.25;"/>
<line x1="368.000000" y1="84.000000" x2="372.000000" y2="84.000000"  style="stroke:black; stroke-linecap:round; stroke-width:0.25;"/>
<line x1="372.000000" y1="64.000000" x2="380.000000" y2="64.000000"  style="stroke:black; stroke-linecap:round; stroke-width:0.25;"/>
<line x1="372.000000" y1="84.000000" x2="380.000000" y2="84.000000"  style="stroke:black; stroke-linecap:round; stroke-width:0.25;"/>
<line x1="380.000000" y1="24.000000" x2="396.000000" y2="24.000000"  style="stroke:black; stroke-linecap:round; stroke-width:0.25;"/>
<line x1="380.000000" y1="64.000000" x2="380.000000" y2="76.000000"  style="stroke:black; stroke-linecap:round; stroke-width:0.25;"/>
<line x1="380.000000" y1="76.000000" x2="380.000000" y2="76.000000"  style="stroke:black; stroke-linecap:round; stroke-width:0.25;"/>
<line x1="380.000000" y1="76.000000" x2="384.000000" y2="76.000000"  style="stroke:black; stroke-linecap:round; stroke-width:0.25;"/>
<line x1="380.000000" y1="84.000000" x2="384.000000" y2="84.000000"  style="stroke:black; stroke-linecap:round; stroke-width:0.25;"/>
<line x1="388.000000" y1="140.000000" x2="392.000000" y2="140.000000"  style="stroke:black; stroke-linecap:round; stroke-width:0.25;"/>
<line x1="392.000000" y1="104.000000" x2="400.000000" y2="104.000000"  style="stroke:black; stroke-linecap:round; stroke-width:0.25;"/>
<line x1="392.000000" y1="140.000000" x2="400.000000" y2="140.000000"  style="stroke:black; stroke-linecap:round; stroke-width:0.25;"/>
<line x1="396.000000" y1="24.000000" x2="412.000000" y2="24.000000"  style="stroke:black; stroke-linecap:round; stroke-width:0.25;"/>
<line x1="400.000000" y1="104.000000" x2="400.000000" y2="132.000000"  style="stroke:black; stroke-linecap:round; stroke-width:0.25;"/>
<line x1="400.000000" y1="132.000000" x2="400.000000" y2="132.000000"  style="stroke:black; stroke-linecap:round; stroke-width:0.25;"/>
<line x1="400.000000" y1="132.000000" x2="404.000000" y2="132.000000"  style="stroke:black; stroke-linecap:round; stroke-width:0.25;"/>
<line x1="400.000000" y1="140.000000" x2="404.000000" y2="140.000000"  style="stroke:black; stroke-linecap:round; stroke-width:0.25;"/>
<line x1="408.000000" y1="44.000000" x2="412.000000" y2="44.000000"  style="stroke:black; stroke-linecap:round; stroke-width:0.25;"/>
<line x1="408.000000" y1="80.000000" x2="412.000000" y2="80.000000"  style="stroke:black; stroke-linecap:round; stroke-width:0.25;"/>
<line x1="412.000000" y1="24.000000" x2="420.000000" y2="24.000000"  style="stroke:black; stroke-linecap:round; stroke-width:0.25;"/>
<line x1="412.000000" y1="44.000000" x2="420.000000" y2="44.000000"  style="stroke:black; stroke-linecap:round; stroke-width:0.25;"/>
<line x1="412.000000" y1="64.000000" x2="420.000000" y2="64.000000"  style="stroke:black; stroke-linecap:round; stroke-width:0.25;"/>
<line x1="412.000000" y1="80.000000" x2="412.000000" y2="64.000000"  style="stroke:black; stroke-linecap:round; stroke-width:0.25;"/>
<line x1="412.000000" y1="80.000000" x2="412.000000" y2="80.000000"  style="stroke:black; stroke-linecap:round; stroke-width:0.25;"/>
<line x1="420.000000" y1="24.000000" x2="420.000000" y2="36.000000"  style="stroke:black; stroke-linecap:round; stroke-width:0.25;"/>
<line x1="420.000000" y1="36.000000" x2="420.000000" y2="36.000000"  style="stroke:black; stroke-linecap:round; stroke-width:0.25;"/>
<line x1="420.000000" y1="36.000000" x2="424.000000" y2="36.000000"  style="stroke:black; stroke-linecap:round; stroke-width:0.25;"/>
<line x1="420.000000" y1="44.000000" x2="424.000000" y2="44.000000"  style="stroke:black; stroke-linecap:round; stroke-width:0.25;"/>
<line x1="420.000000" y1="64.000000" x2="436.000000" y2="64.000000"  style="stroke:black; stroke-linecap:round; stroke-width:0.25;"/>
<line x1="428.000000" y1="136.000000" x2="432.000000" y2="136.000000"  style="stroke:black; stroke-linecap:round; stroke-width:0.25;"/>
<line x1="432.000000" y1="120.000000" x2="440.000000" y2="120.000000"  style="stroke:black; stroke-linecap:round; stroke-width:0.25;"/>
<line x1="432.000000" y1="136.000000" x2="432.000000" y2="120.000000"  style="stroke:black; stroke-linecap:round; stroke-width:0.25;"/>
<line x1="432.000000" y1="136.000000" x2="432.000000" y2="136.000000"  style="stroke:black; stroke-linecap:round; stroke-width:0.25;"/>
<line x1="436.000000" y1="64.000000" x2="452.000000" y2="64.000000"  style="stroke:black; stroke-linecap:round; stroke-width:0.25;"/>
<line x1="440.000000" y1="120.000000" x2="456.000000" y2="120.000000"  style="stroke:black; stroke-linecap:round; stroke-width:0.25;"/>
<line x1="448.000000" y1="40.000000" x2="452.000000" y2="40.000000"  style="stroke:black; stroke-linecap:round; stroke-width:0.25;"/>
<line x1="448.000000" y1="84.000000" x2="452.000000" y2="84.000000"  style="stroke:black; stroke-linecap:round; stroke-width:0.25;"/>
<line x1="452.000000" y1="40.000000" x2="512.000000" y2="40.000000"  style="stroke:black; stroke-linecap:round; stroke-width:0.25;"/>
<line x1="452.000000" y1="64.000000" x2="460.000000" y2="64.000000"  style="stroke:black; stroke-linecap:round; stroke-width:0.25;"/>
<line x1="452.000000" y1="84.000000" x2="460.000000" y2="84.000000"  style="stroke:black; stroke-linecap:round; stroke-width:0.25;"/>
<line x1="456.000000" y1="120.000000" x2="472.000000" y2="120.000000"  style="stroke:black; stroke-linecap:round; stroke-width:0.25;"/>
<line x1="460.000000" y1="64.000000" x2="460.000000" y2="76.000000"  style="stroke:black; stroke-linecap:round; stroke-width:0.25;"/>
<line x1="460.000000" y1="76.000000" x2="460.000000" y2="76.000000"  style="stroke:black; stroke-linecap:round; stroke-width:0.25;"/>
<line x1="460.000000" y1="76.000000" x2="464.000000" y2="76.000000"  style="stroke:black; stroke-linecap:round; stroke-width:0.25;"/>
<line x1="460.000000" y1="84.000000" x2="464.000000" y2="84.000000"  style="stroke:black; stroke-linecap:round; stroke-width:0.25;"/>
<line x1="468.000000" y1="140.000000" x2="472.000000" y2="140.000000"  style="stroke:black; stroke-linecap:round; stroke-width:0.25;"/>
<line x1="472.000000" y1="120.000000" x2="480.000000" y2="120.000000"  style="stroke:black; stroke-linecap:round; stroke-width:0.25;"/>
<line x1="472.000000" y1="140.000000" x2="480.000000" y2="140.000000"  style="stroke:black; stroke-linecap:round; stroke-width:0.25;"/>
<line x1="480.000000" y1="120.000000" x2="480.000000" y2="132.000000"  style="stroke:black; stroke-linecap:round; stroke-width:0.25;"/>
<line x1="480.000000" y1="132.000000" x2="480.000000" y2="132.000000"  style="stroke:black; stroke-linecap:round; stroke-width:0.25;"/>
<line x1="480.000000" y1="132.000000" x2="484.000000" y2="132.000000"  style="stroke:black; stroke-linecap:round; stroke-width:0.25;"/>
<line x1="480.000000" y1="140.000000" x2="484.000000" y2="140.000000"  style="stroke:black; stroke-linecap:round; stroke-width:0.25;"/>
<line x1="488.000000" y1="80.000000" x2="492.000000" y2="80.000000"  style="stroke:black; stroke-linecap:round; stroke-width:0.25;"/>
<line x1="492.000000" y1="80.000000" x2="512.000000" y2="80.000000"  style="stroke:black; stroke-linecap:round; stroke-width:0.25;"/>
<line x1="508.000000" y1="136.000000" x2="512.000000" y2="136.000000"  style="stroke:black; stroke-linecap:round; stroke-width:0.25;"/>
<line x1="512.000000" y1="40.000000" x2="552.000000" y2="96.000000"  style="stroke:black; stroke-linecap:round; stroke-width:0.25;"/>
<line x1="512.000000" y1="80.000000" x2="552.000000" y2="96.000000"  style="stroke:black; stroke-linecap:round; stroke-width:0.25;"/>
<line x1="512.000000" y1="136.000000" x2="552.000000" y2="96.000000"  style="stroke:black; stroke-linecap:round; stroke-width:0.25;"/>
<line x1="552.000000" y1="96.000000" x2="556.000000" y2="96.000000"  style="stroke:black; stroke-linecap:round; stroke-width:0.25;"/>
<line x1="556.000000" y1="96.000000" x2="560.000000" y2="96.000000"  style="stroke:black; stroke-linecap:round; stroke-width:0.25;"/>
<line x1="560.000000" y1="96.000000" x2="560.000000" y2="96.000000"  style="stroke:black; stroke-linecap:round; stroke-width:0.25;"/>
<line x1="560.000000" y1="96.000000" x2="564.000000" y2="96.000000"  style="stroke:black; stroke-linecap:round; stroke-width:0.25;"/>
<line x1="564.000000" y1="96.000000" x2="568.000000" y2="96.000000"  style="stroke:black; stroke-linecap:round; stroke-width:0.25;"/>
<line x1="568.000000" y1="96.000000" x2="578.000000" y2="96.000000"  style="stroke:black; stroke-linecap:round; stroke-width:0.25;"/>
</svg>
